<svg width="24" height="24" viewBox="0 0 24 24" fill="none" xmlns="http://www.w3.org/2000/svg">
<g clip-path="url(#clip0)">
<path d="M11.6922 23.0001C11.2981 23.0011 10.9077 22.9239 10.5436 22.7731C10.1795 22.6222 9.84901 22.4006 9.57116 22.1211L6.18416 18.7001C6.07747 18.6107 5.99061 18.5 5.92916 18.3751C5.86771 18.2502 5.83301 18.1138 5.82729 17.9747C5.82157 17.8357 5.84495 17.6969 5.89593 17.5674C5.94692 17.4379 6.02438 17.3204 6.12337 17.2225C6.22236 17.1247 6.34069 17.0485 6.47079 16.999C6.60089 16.9495 6.73989 16.9277 6.87891 16.935C7.01792 16.9423 7.15387 16.9786 7.27807 17.0414C7.40227 17.1043 7.51197 17.1924 7.60016 17.3001L10.9842 20.7141C11.1746 20.8948 11.4271 20.9955 11.6897 20.9955C11.9522 20.9955 12.2047 20.8948 12.3952 20.7141L17.8092 15.3001C17.9967 15.1125 18.251 15.007 18.5163 15.0069C18.7816 15.0068 19.036 15.1121 19.2237 15.2996C19.4113 15.4871 19.5168 15.7415 19.5169 16.0067C19.517 16.272 19.4117 16.5265 19.2242 16.7141L13.8092 22.1281C13.5313 22.406 13.2012 22.6262 12.8379 22.7758C12.4745 22.9255 12.0851 23.0017 11.6922 23.0001ZM7.00016 22.0001C7.00016 21.7349 6.8948 21.4805 6.70727 21.293C6.51973 21.1055 6.26538 21.0001 6.00016 21.0001H5.68316C4.82912 20.9837 4.00536 20.6808 3.34415 20.14C2.68294 19.5992 2.22264 18.8519 2.03716 18.0181C1.9285 17.3015 2.04707 16.5689 2.3762 15.9232C2.70533 15.2775 3.22848 14.7512 3.87216 14.4181C4.33065 14.1643 4.67079 13.7402 4.81901 13.2375C4.96722 12.7349 4.91159 12.1941 4.66416 11.7321C4.27587 10.9916 4.04665 10.178 3.99122 9.34369C3.93578 8.50935 4.05535 7.67265 4.34224 6.88723C4.62914 6.10182 5.07704 5.38505 5.6572 4.78289C6.23737 4.18074 6.93699 3.70649 7.71119 3.39058C8.48539 3.07467 9.31707 2.92407 10.1529 2.94844C10.9887 2.97281 11.8102 3.17161 12.5647 3.5321C13.3192 3.89258 13.99 4.40678 14.534 5.04172C15.0781 5.67665 15.4835 6.41831 15.7242 7.2191C15.8719 7.70188 16.1354 8.14126 16.4916 8.49906C16.8478 8.85685 17.286 9.12222 17.7682 9.2721C19.0748 9.66944 20.2058 10.5027 20.9724 11.633C21.7391 12.7632 22.0951 14.1221 21.9812 15.4831C21.866 16.6651 21.3935 17.7841 20.6266 18.6909C19.8597 19.5977 18.8347 20.2493 17.6882 20.5591C17.4393 20.6443 17.234 20.8241 17.1168 21.0596C16.9996 21.2951 16.9799 21.5673 17.062 21.8172C17.144 22.0671 17.3213 22.2747 17.5553 22.3948C17.7893 22.515 18.0612 22.5381 18.3122 22.4591C19.9509 21.9915 21.3932 21.0038 22.4216 19.6449C23.45 18.2861 24.0088 16.6298 24.0138 14.9256C24.0188 13.2215 23.4696 11.562 22.4491 10.1972C21.4286 8.83235 19.9921 7.83628 18.3562 7.3591C18.1845 7.30562 18.0288 7.21053 17.9028 7.08229C17.7769 6.95405 17.6846 6.79665 17.6342 6.6241C17.105 4.92372 16.0236 3.44851 14.5614 2.43214C13.0991 1.41577 11.3395 0.916361 9.56127 1.01302C7.78308 1.10968 6.08798 1.79688 4.74448 2.96576C3.40097 4.13464 2.48588 5.71838 2.14416 7.4661C1.79271 9.2331 2.07601 11.0675 2.94416 12.6461C1.93193 13.168 1.10891 13.9943 0.590995 15.0086C0.0730838 16.0229 -0.113625 17.1741 0.0571606 18.3001C0.317812 19.6079 1.01797 20.7872 2.04138 21.6422C3.06478 22.4971 4.34984 22.9763 5.68316 23.0001H6.00016C6.26538 23.0001 6.51973 22.8947 6.70727 22.7072C6.8948 22.5197 7.00016 22.2653 7.00016 22.0001Z" fill="#374957"/>
</g>
<defs>
<clipPath id="clip0">
<rect width="24" height="24" fill="white"/>
</clipPath>
</defs>
</svg>
