<svg width="24" height="24" viewBox="0 0 24 24" fill="none" xmlns="http://www.w3.org/2000/svg">
<g clip-path="url(#clip0)">
<path d="M11.107 14.4469C11.1651 14.5654 11.2461 14.6713 11.3452 14.7584C11.4444 14.8454 11.5598 14.912 11.6849 14.9543C11.8099 14.9965 11.9421 15.0136 12.0737 15.0045C12.2054 14.9955 12.334 14.9604 12.452 14.9014C12.5701 14.8424 12.6753 14.7607 12.7616 14.6608C12.8479 14.5609 12.9136 14.445 12.9549 14.3196C12.9961 14.1943 13.0122 14.062 13.0021 13.9304C12.992 13.7988 12.9559 13.6705 12.896 13.5529L7.39603 2.55293C7.31299 2.38679 7.18532 2.24705 7.02733 2.14939C6.86934 2.05173 6.68727 2 6.50153 2C6.31579 2 6.13372 2.05173 5.97573 2.14939C5.81774 2.24705 5.69007 2.38679 5.60703 2.55293L0.107031 13.5529C0.0471169 13.6705 0.0110728 13.7988 0.000977042 13.9304C-0.00911871 14.062 0.00693358 14.1943 0.0482084 14.3196C0.0894832 14.445 0.155164 14.5609 0.241464 14.6608C0.327764 14.7607 0.432976 14.8424 0.551033 14.9014C0.669091 14.9604 0.797659 14.9955 0.929325 15.0045C1.06099 15.0136 1.19315 14.9965 1.31818 14.9543C1.44321 14.912 1.55865 14.8454 1.65782 14.7584C1.757 14.6713 1.83796 14.5654 1.89603 14.4469L3.61903 10.9999H9.38303L11.107 14.4469ZM4.61903 8.99993L6.50003 5.23593L8.38303 8.99993H4.61903Z" fill="#374957"/>
<path d="M23.7071 11.293C23.5196 11.1056 23.2652 11.0002 23.0001 11.0002C22.7349 11.0002 22.4806 11.1056 22.2931 11.293L13.0001 20.586L8.70708 16.293C8.61483 16.1975 8.50449 16.1213 8.38249 16.0689C8.26048 16.0165 8.12926 15.9889 7.99648 15.9878C7.8637 15.9866 7.73202 16.0119 7.60913 16.0622C7.48623 16.1125 7.37458 16.1867 7.28069 16.2806C7.18679 16.3745 7.11254 16.4862 7.06226 16.6091C7.01198 16.732 6.98668 16.8637 6.98783 16.9964C6.98898 17.1292 7.01657 17.2604 7.06898 17.3824C7.12139 17.5044 7.19757 17.6148 7.29308 17.707L12.2931 22.707C12.4806 22.8945 12.7349 22.9998 13.0001 22.9998C13.2652 22.9998 13.5196 22.8945 13.7071 22.707L23.7071 12.707C23.8946 12.5195 23.9999 12.2652 23.9999 12C23.9999 11.7349 23.8946 11.4806 23.7071 11.293Z" fill="#374957"/>
</g>
<defs>
<clipPath id="clip0">
<rect width="24" height="24" fill="white"/>
</clipPath>
</defs>
</svg>
