<svg width="24" height="24" viewBox="0 0 24 24" fill="none" xmlns="http://www.w3.org/2000/svg">
<g clip-path="url(#clip0)">
<path d="M12 6C11.7348 6 11.4804 6.10536 11.2929 6.29289C11.1054 6.48043 11 6.73478 11 7V12C11.0001 12.2652 11.1055 12.5195 11.293 12.707L14.293 15.707C14.4816 15.8892 14.7342 15.99 14.9964 15.9877C15.2586 15.9854 15.5094 15.8802 15.6948 15.6948C15.8802 15.5094 15.9854 15.2586 15.9877 14.9964C15.99 14.7342 15.8892 14.4816 15.707 14.293L13 11.586V7C13 6.73478 12.8946 6.48043 12.7071 6.29289C12.5196 6.10536 12.2652 6 12 6Z" fill="#374957"/>
<path d="M23.8124 10.132C23.4691 7.95784 22.5345 5.91997 21.1107 4.24136C19.687 2.56275 17.8289 1.30808 15.7399 0.614599C13.6509 -0.0788766 11.4115 -0.184432 9.26649 0.309482C7.12153 0.803396 5.15373 1.87775 3.5784 3.415V1C3.5784 0.734784 3.47304 0.48043 3.2855 0.292893C3.09797 0.105357 2.84361 0 2.5784 0C2.31318 0 2.05883 0.105357 1.87129 0.292893C1.68375 0.48043 1.5784 0.734784 1.5784 1V5C1.5784 5.53043 1.78911 6.03914 2.16418 6.41421C2.53926 6.78929 3.04797 7 3.5784 7H7.5784C7.84361 7 8.09797 6.89464 8.2855 6.70711C8.47304 6.51957 8.5784 6.26522 8.5784 6C8.5784 5.73478 8.47304 5.48043 8.2855 5.29289C8.09797 5.10536 7.84361 5 7.5784 5H4.8274C6.4254 3.37763 8.52972 2.3499 10.7917 2.08709C13.0537 1.82428 15.3376 2.34216 17.265 3.55494C19.1924 4.76771 20.6476 6.60257 21.3896 8.75553C22.1315 10.9085 22.1156 13.2503 21.3445 15.393C20.5734 17.5357 19.0935 19.3507 17.1498 20.5372C15.2061 21.7237 12.9154 22.2105 10.6572 21.917C8.39895 21.6236 6.30877 20.5674 4.73293 18.9235C3.15709 17.2796 2.19018 15.1466 1.9924 12.878C1.96647 12.6342 1.85031 12.409 1.66675 12.2465C1.48319 12.0841 1.2455 11.9961 1.0004 12C0.860543 12.0004 0.7223 12.0299 0.594476 12.0866C0.466652 12.1434 0.352051 12.2261 0.257974 12.3296C0.163897 12.4331 0.0924079 12.555 0.0480607 12.6877C0.00371359 12.8203 -0.0125188 12.9607 0.000397813 13.1C0.158533 14.6934 0.633975 16.2391 1.39871 17.6459C2.16345 19.0528 3.20201 20.2923 4.45322 21.2916C5.70443 22.2908 7.14297 23.0296 8.68409 23.4643C10.2252 23.899 11.8378 24.0208 13.4267 23.8227C15.0157 23.6245 16.5489 23.1104 17.936 22.3105C19.3232 21.5106 20.5363 20.4412 21.5037 19.1653C22.4712 17.8894 23.1736 16.4327 23.5694 14.8811C23.9652 13.3296 24.0464 11.7145 23.8084 10.131L23.8124 10.132Z" fill="#374957"/>
</g>
<defs>
<clipPath id="clip0">
<rect width="24" height="24" fill="white"/>
</clipPath>
</defs>
</svg>
