<svg width="24" height="24" viewBox="0 0 24 24" fill="none" xmlns="http://www.w3.org/2000/svg">
<path d="M22.6102 0.208058C22.4003 0.0469868 22.1351 -0.0243006 21.8726 0.00981306C21.6102 0.0439267 21.372 0.18066 21.2102 0.390058L12.0002 12.3601L2.79224 0.390058C2.62791 0.187479 2.39093 0.0571296 2.13185 0.0268141C1.87277 -0.00350142 1.61209 0.0686171 1.40543 0.227786C1.19878 0.386954 1.06249 0.620573 1.02565 0.878808C0.988812 1.13704 1.05433 1.39945 1.20824 1.61006L10.7382 14.0001H6.00024C5.73502 14.0001 5.48067 14.1054 5.29313 14.293C5.1056 14.4805 5.00024 14.7348 5.00024 15.0001C5.00024 15.2653 5.1056 15.5196 5.29313 15.7072C5.48067 15.8947 5.73502 16.0001 6.00024 16.0001H11.0002V18.0001H6.00024C5.73502 18.0001 5.48067 18.1054 5.29313 18.2929C5.1056 18.4805 5.00024 18.7348 5.00024 19.0001C5.00024 19.2653 5.1056 19.5196 5.29313 19.7072C5.48067 19.8947 5.73502 20.0001 6.00024 20.0001H11.0002V23.0001C11.0002 23.2653 11.1056 23.5196 11.2931 23.7072C11.4807 23.8947 11.735 24.0001 12.0002 24.0001C12.2655 24.0001 12.5198 23.8947 12.7073 23.7072C12.8949 23.5196 13.0002 23.2653 13.0002 23.0001V20.0001H18.0002C18.2655 20.0001 18.5198 19.8947 18.7073 19.7072C18.8949 19.5196 19.0002 19.2653 19.0002 19.0001C19.0002 18.7348 18.8949 18.4805 18.7073 18.2929C18.5198 18.1054 18.2655 18.0001 18.0002 18.0001H13.0002V16.0001H18.0002C18.2655 16.0001 18.5198 15.8947 18.7073 15.7072C18.8949 15.5196 19.0002 15.2653 19.0002 15.0001C19.0002 14.7348 18.8949 14.4805 18.7073 14.293C18.5198 14.1054 18.2655 14.0001 18.0002 14.0001H13.2622L22.7922 1.61006C22.9539 1.39998 23.0256 1.13428 22.9915 0.871381C22.9573 0.608481 22.8202 0.369891 22.6102 0.208058Z" fill="#374957"/>
</svg>
