<svg width="24" height="24" viewBox="0 0 24 24" fill="none" xmlns="http://www.w3.org/2000/svg">
<path d="M13.0999 19C12.9021 19.0001 12.7086 18.9416 12.5441 18.8318C12.3795 18.722 12.2512 18.5658 12.1754 18.3831C12.0996 18.2003 12.0797 17.9992 12.1183 17.8052C12.1568 17.6111 12.252 17.4329 12.3919 17.293L16.9779 12.707C17.1654 12.5194 17.2707 12.2651 17.2707 12C17.2707 11.7348 17.1654 11.4805 16.9779 11.293L12.3999 6.70696C12.2124 6.51932 12.1071 6.26488 12.1072 5.99961C12.1073 5.73434 12.2128 5.47997 12.4004 5.29246C12.588 5.10495 12.8425 4.99966 13.1078 4.99976C13.373 4.99985 13.6274 5.10532 13.8149 5.29296L18.3999 9.87896C18.9623 10.4415 19.2783 11.2045 19.2783 12C19.2783 12.7955 18.9623 13.5584 18.3999 14.121L13.8139 18.707C13.7202 18.8007 13.6089 18.8748 13.4863 18.9251C13.3637 18.9754 13.2324 19.0009 13.0999 19Z" fill="#374957"/>
<path d="M6.10023 18.9999C5.90308 18.9985 5.71074 18.9388 5.5474 18.8284C5.38406 18.718 5.257 18.5618 5.1822 18.3794C5.10739 18.1969 5.08818 17.9965 5.12697 17.8032C5.16577 17.6099 5.26084 17.4323 5.40023 17.2929L10.6892 11.9999L5.40023 6.70691C5.22767 6.51687 5.13479 6.26775 5.14084 6.01112C5.14688 5.75449 5.25138 5.51002 5.4327 5.32831C5.61402 5.14661 5.85828 5.04159 6.11489 5.035C6.37151 5.02841 6.62083 5.12075 6.81123 5.29292L12.8112 11.2929C12.9987 11.4804 13.104 11.7348 13.104 11.9999C13.104 12.2651 12.9987 12.5194 12.8112 12.7069L6.81123 18.7069C6.71792 18.8003 6.60705 18.8742 6.48503 18.9245C6.363 18.9748 6.23222 19.0004 6.10023 18.9999Z" fill="#374957"/>
</svg>
