<svg width="24" height="24" viewBox="0 0 24 24" fill="none" xmlns="http://www.w3.org/2000/svg">
<path d="M12.0001 23.9999C11.7349 23.9999 11.4806 23.8945 11.2931 23.7069L3.12214 15.5349C2.18478 14.5973 1.6582 13.3257 1.6582 11.9999C1.6582 10.6741 2.18478 9.40256 3.12214 8.46492L11.2931 0.292919C11.4817 0.110761 11.7343 0.00996641 11.9965 0.0122448C12.2587 0.0145233 12.5095 0.119692 12.695 0.3051C12.8804 0.490508 12.9855 0.741321 12.9878 1.00352C12.9901 1.26571 12.8893 1.51832 12.7071 1.70692L4.53614 9.87892C3.97372 10.4415 3.65778 11.2044 3.65778 11.9999C3.65778 12.7954 3.97372 13.5583 4.53614 14.1209L12.7071 22.2929C12.8469 22.4328 12.9422 22.6109 12.9807 22.8049C13.0193 22.9988 12.9995 23.1999 12.9238 23.3826C12.8481 23.5653 12.72 23.7214 12.5556 23.8313C12.3912 23.9412 12.1979 23.9999 12.0001 23.9999Z" fill="#374957"/>
<path d="M22 23.9999C21.7348 23.9999 21.4805 23.8945 21.293 23.7069L11.707 14.1209C11.1446 13.5583 10.8286 12.7954 10.8286 11.9999C10.8286 11.2044 11.1446 10.4415 11.707 9.87892L21.293 0.292919C21.4816 0.110761 21.7342 0.00996641 21.9964 0.0122448C22.2586 0.0145233 22.5094 0.119692 22.6948 0.3051C22.8802 0.490508 22.9854 0.741321 22.9876 1.00352C22.9899 1.26571 22.8891 1.51832 22.707 1.70692L13.121 11.2929C12.9335 11.4804 12.8282 11.7348 12.8282 11.9999C12.8282 12.2651 12.9335 12.5194 13.121 12.7069L22.707 22.2929C22.8468 22.4328 22.942 22.6109 22.9806 22.8049C23.0191 22.9988 22.9993 23.1999 22.9236 23.3826C22.848 23.5653 22.7198 23.7214 22.5554 23.8313C22.391 23.9412 22.1977 23.9999 22 23.9999Z" fill="#374957"/>
</svg>
