<svg width="24" height="24" viewBox="0 0 24 24" fill="none" xmlns="http://www.w3.org/2000/svg">
<g clip-path="url(#clip0)">
<path d="M22.9999 12.0001C22.7555 11.9972 22.5188 12.0856 22.3361 12.248C22.1534 12.4103 22.0378 12.635 22.0119 12.8781C21.8473 14.7821 21.1397 16.599 19.9732 18.1128C18.8067 19.6267 17.2303 20.774 15.4311 21.4186C13.6319 22.0632 11.6855 22.178 9.82305 21.7493C7.96058 21.3205 6.26026 20.3664 4.92394 19.0001H7.66895C7.93416 19.0001 8.18852 18.8947 8.37605 18.7072C8.56359 18.5196 8.66894 18.2653 8.66894 18.0001C8.66894 17.7349 8.56359 17.4805 8.37605 17.293C8.18852 17.1054 7.93416 17.0001 7.66895 17.0001H3.66895C3.13851 17.0001 2.6298 17.2108 2.25473 17.5859C1.87966 17.9609 1.66895 18.4696 1.66895 19.0001V23.0001C1.66895 23.2653 1.7743 23.5196 1.96184 23.7072C2.14937 23.8947 2.40373 24.0001 2.66895 24.0001C2.93416 24.0001 3.18852 23.8947 3.37605 23.7072C3.56359 23.5196 3.66895 23.2653 3.66895 23.0001V20.5621C5.28619 22.1541 7.32245 23.2539 9.54059 23.7334C11.7587 24.2128 14.0674 24.0523 16.1978 23.2704C18.3282 22.4884 20.1927 21.1174 21.574 19.3168C22.9552 17.5162 23.7966 15.3603 23.9999 13.1001C24.0129 12.9608 23.9966 12.8204 23.9523 12.6878C23.9079 12.5551 23.8364 12.4332 23.7424 12.3297C23.6483 12.2262 23.5337 12.1434 23.4059 12.0867C23.278 12.0299 23.1398 12.0004 22.9999 12.0001Z" fill="#374957"/>
<path d="M21.3309 1.78318e-05C21.0657 1.78318e-05 20.8113 0.105375 20.6238 0.292911C20.4363 0.480447 20.3309 0.734801 20.3309 1.00002V3.43802C18.7137 1.846 16.6774 0.746205 14.4593 0.266725C12.2411 -0.212756 9.93243 -0.0521891 7.80202 0.729724C5.67162 1.51164 3.8072 2.88272 2.4259 4.68328C1.0446 6.48384 0.203279 8.63978 -9.04682e-05 10.9C-0.0130071 11.0393 0.0032253 11.1797 0.0475725 11.3123C0.0919196 11.445 0.163409 11.5669 0.257486 11.6704C0.351563 11.7739 0.466164 11.8566 0.593988 11.9134C0.721811 11.9701 0.860055 11.9996 0.99991 12C1.24433 12.0029 1.48103 11.9145 1.66374 11.7521C1.84645 11.5898 1.96204 11.3651 1.98791 11.122C2.15256 9.21796 2.86015 7.40113 4.02666 5.88726C5.19317 4.37338 6.7696 3.22604 8.56879 2.58146C10.368 1.93688 12.3143 1.82213 14.1768 2.25083C16.0393 2.67954 17.7396 3.6337 19.0759 5.00002H16.3309C16.0657 5.00002 15.8113 5.10537 15.6238 5.29291C15.4363 5.48045 15.3309 5.7348 15.3309 6.00002C15.3309 6.26523 15.4363 6.51959 15.6238 6.70712C15.8113 6.89466 16.0657 7.00002 16.3309 7.00002H20.3309C20.8613 7.00002 21.3701 6.7893 21.7451 6.41423C22.1202 6.03916 22.3309 5.53045 22.3309 5.00002V1.00002C22.3309 0.734801 22.2256 0.480447 22.038 0.292911C21.8505 0.105375 21.5961 1.78318e-05 21.3309 1.78318e-05Z" fill="#374957"/>
</g>
<defs>
<clipPath id="clip0">
<rect width="24" height="24" fill="white"/>
</clipPath>
</defs>
</svg>
