<svg width="24" height="24" viewBox="0 0 24 24" fill="none" xmlns="http://www.w3.org/2000/svg">
<g clip-path="url(#clip0)">
<path d="M21 15C20.2044 15 19.4413 15.3161 18.8787 15.8787C18.3161 16.4413 18 17.2044 18 18V21C18 21.7956 18.3161 22.5587 18.8787 23.1213C19.4413 23.6839 20.2044 24 21 24C21.7956 24 22.5587 23.6839 23.1213 23.1213C23.6839 22.5587 24 21.7956 24 21V18C24 17.2044 23.6839 16.4413 23.1213 15.8787C22.5587 15.3161 21.7956 15 21 15ZM22 21C22 21.2652 21.8946 21.5196 21.7071 21.7071C21.5196 21.8946 21.2652 22 21 22C20.7348 22 20.4804 21.8946 20.2929 21.7071C20.1054 21.5196 20 21.2652 20 21V18C20 17.7348 20.1054 17.4804 20.2929 17.2929C20.4804 17.1054 20.7348 17 21 17C21.2652 17 21.5196 17.1054 21.7071 17.2929C21.8946 17.4804 22 17.7348 22 18V21Z" fill="#374957"/>
<path d="M13 12V7C13 6.73478 12.8946 6.48043 12.7071 6.29289C12.5196 6.10536 12.2652 6 12 6C11.7348 6 11.4804 6.10536 11.2929 6.29289C11.1054 6.48043 11 6.73478 11 7V11H8C7.73478 11 7.48043 11.1054 7.29289 11.2929C7.10536 11.4804 7 11.7348 7 12C7 12.2652 7.10536 12.5196 7.29289 12.7071C7.48043 12.8946 7.73478 13 8 13H12C12.2652 13 12.5196 12.8946 12.7071 12.7071C12.8946 12.5196 13 12.2652 13 12Z" fill="#374957"/>
<path d="M22.9998 2.00005C22.7346 2.00005 22.4802 2.10541 22.2927 2.29294C22.1052 2.48048 21.9998 2.73483 21.9998 3.00005V5.37405C20.9579 3.80162 19.5599 2.49697 17.9194 1.56595C16.2789 0.634933 14.4419 0.103773 12.5577 0.015569C10.6735 -0.0726351 8.79497 0.284601 7.07463 1.05829C5.3543 1.83198 3.84059 3.00034 2.65632 4.46855C1.47205 5.93677 0.650587 7.66349 0.258576 9.50861C-0.133435 11.3537 -0.0849487 13.2653 0.400101 15.0882C0.88515 16.911 1.7931 18.5939 3.05028 20.0002C4.30746 21.4065 5.87846 22.4966 7.6358 23.182C7.75194 23.2268 7.87533 23.2499 7.9998 23.25C8.23316 23.2504 8.4593 23.1691 8.63905 23.0203C8.8188 22.8715 8.94085 22.6645 8.98406 22.4352C9.02726 22.2059 8.98891 21.9687 8.87563 21.7646C8.76236 21.5606 8.58129 21.4026 8.3638 21.3181C6.87183 20.7411 5.54002 19.8147 4.48019 18.6166C3.42035 17.4184 2.66341 15.9835 2.27291 14.4322C1.88241 12.881 1.86974 11.2587 2.23598 9.70159C2.60221 8.14444 3.33665 6.69788 4.37765 5.48332C5.41865 4.26877 6.73583 3.32167 8.21861 2.72152C9.7014 2.12138 11.3065 1.88571 12.8992 2.03429C14.492 2.18288 16.0258 2.71138 17.372 3.57544C18.7182 4.4395 19.8374 5.6139 20.6358 7.00005H17.9998C17.7346 7.00005 17.4802 7.10541 17.2927 7.29294C17.1052 7.48048 16.9998 7.73483 16.9998 8.00005C16.9998 8.26527 17.1052 8.51962 17.2927 8.70716C17.4802 8.89469 17.7346 9.00005 17.9998 9.00005H20.9998C21.7955 9.00005 22.5585 8.68398 23.1211 8.12137C23.6837 7.55876 23.9998 6.7957 23.9998 6.00005V3.00005C23.9998 2.73483 23.8944 2.48048 23.7069 2.29294C23.5194 2.10541 23.265 2.00005 22.9998 2.00005Z" fill="#374957"/>
<path d="M15.3829 15.0761C15.2001 15.0004 14.999 14.9806 14.805 15.0192C14.611 15.0579 14.4328 15.1532 14.2929 15.2931L11.2929 18.2931C11.1108 18.4817 11.01 18.7343 11.0122 18.9965C11.0145 19.2587 11.1197 19.5095 11.3051 19.6949C11.4905 19.8803 11.7413 19.9855 12.0035 19.9878C12.2657 19.9901 12.5183 19.8893 12.7069 19.7071L13.9999 18.4141V23.0001C13.9999 23.2653 14.1053 23.5197 14.2928 23.7072C14.4803 23.8948 14.7347 24.0001 14.9999 24.0001C15.2651 24.0001 15.5195 23.8948 15.707 23.7072C15.8946 23.5197 15.9999 23.2653 15.9999 23.0001V16.0001C16 15.8023 15.9414 15.609 15.8316 15.4445C15.7217 15.2801 15.5656 15.1519 15.3829 15.0761Z" fill="#374957"/>
</g>
<defs>
<clipPath id="clip0">
<rect width="24" height="24" fill="white"/>
</clipPath>
</defs>
</svg>
