<svg width="24" height="24" viewBox="0 0 24 24" fill="none" xmlns="http://www.w3.org/2000/svg">
<g clip-path="url(#clip0)">
<path d="M23.4136 0.586912C23.1627 0.339795 22.8517 0.162472 22.5113 0.0724954C22.1708 -0.0174816 21.8128 -0.0169931 21.4726 0.0739124C19.0316 0.877628 16.8127 2.2417 14.9936 4.05691L5.51759 13.5319C4.14937 12.7946 2.67206 12.2808 1.14159 12.0099C0.881973 11.9779 0.620162 12.049 0.412298 12.2078C0.204434 12.3666 0.0670672 12.6005 0.029653 12.8594C-0.00776133 13.1183 0.0577557 13.3815 0.212155 13.5927C0.366555 13.8038 0.597544 13.9461 0.855593 13.9889C2.80239 14.3539 4.63608 15.1716 6.20859 16.3759L2.49959 20.0859L1.70659 19.2929C1.61435 19.1974 1.504 19.1212 1.382 19.0688C1.25999 19.0164 1.12877 18.9888 0.995994 18.9877C0.863215 18.9865 0.731535 19.0118 0.608639 19.0621C0.485743 19.1124 0.374091 19.1866 0.280198 19.2805C0.186305 19.3744 0.112052 19.4861 0.0617712 19.609C0.0114903 19.7319 -0.0138114 19.8635 -0.0126576 19.9963C-0.0115037 20.1291 0.0160825 20.2603 0.0684915 20.3823C0.1209 20.5043 0.197083 20.6147 0.292593 20.7069L3.29259 23.7069C3.38484 23.8024 3.49518 23.8786 3.61719 23.931C3.73919 23.9834 3.87041 24.011 4.00319 24.0122C4.13597 24.0133 4.26765 23.988 4.39055 23.9377C4.51344 23.8875 4.6251 23.8132 4.71899 23.7193C4.81288 23.6254 4.88713 23.5138 4.93741 23.3909C4.9877 23.268 5.013 23.1363 5.01184 23.0035C5.01069 22.8707 4.9831 22.7395 4.93069 22.6175C4.87828 22.4955 4.8021 22.3852 4.70659 22.2929L3.91359 21.4999L7.62259 17.7899C8.82782 19.3623 9.64559 21.1965 10.0096 23.1439C10.0442 23.3817 10.1633 23.5992 10.3451 23.7564C10.5269 23.9136 10.7593 24 10.9996 23.9999C11.0478 24.0002 11.096 23.9965 11.1436 23.9889C11.4056 23.951 11.6419 23.8108 11.8007 23.599C11.9594 23.3872 12.0277 23.121 11.9906 22.8589C11.7208 21.3282 11.207 19.8507 10.4686 18.4829L19.9436 9.00691C21.7795 7.16205 23.1534 4.90953 23.9536 2.43291C24.0265 2.10464 24.0153 1.76325 23.9209 1.4405C23.8265 1.11775 23.652 0.824114 23.4136 0.586912ZM18.5286 7.59191L9.36159 16.7599C9.05816 16.3601 8.72807 15.9812 8.37359 15.6259C8.01815 15.2719 7.63966 14.9419 7.24059 14.6379L16.4076 5.47091C17.9767 3.90085 19.8879 2.71525 21.9916 2.00691C21.2814 4.10979 20.0965 6.02085 18.5286 7.59191Z" fill="#374957"/>
</g>
<defs>
<clipPath id="clip0">
<rect width="24" height="24" fill="white"/>
</clipPath>
</defs>
</svg>
