<svg width="24" height="24" viewBox="0 0 24 24" fill="none" xmlns="http://www.w3.org/2000/svg">
<g clip-path="url(#clip0)">
<path d="M21.835 2.16512C21.1488 1.47878 20.3342 0.934338 19.4376 0.562884C18.541 0.191431 17.58 0.000244141 16.6095 0.000244141C15.639 0.000244141 14.678 0.191431 13.7814 0.562884C12.8848 0.934338 12.0701 1.47878 11.384 2.16512L2.16496 11.3841C1.47569 12.0697 0.928456 12.8845 0.554609 13.7819C0.180762 14.6793 -0.0123504 15.6416 -0.0136651 16.6138C-0.0149798 17.5859 0.175529 18.5488 0.546948 19.4472C0.918366 20.3456 1.46339 21.1619 2.15081 21.8493C2.83822 22.5367 3.65451 23.0817 4.55291 23.4531C5.45132 23.8246 6.41417 24.0151 7.38632 24.0137C8.35847 24.0124 9.32081 23.8193 10.2182 23.4455C11.1156 23.0716 11.9304 22.5244 12.616 21.8351L21.835 12.6161C22.5213 11.93 23.0657 11.1153 23.4372 10.2187C23.8087 9.32212 23.9998 8.36112 23.9998 7.39062C23.9998 6.42012 23.8087 5.45912 23.4372 4.56252C23.0657 3.66592 22.5213 2.85128 21.835 2.16512ZM20.421 11.2001L11.2 20.4211C10.7034 20.9385 10.1086 21.3517 9.45031 21.6363C8.79206 21.9209 8.08363 22.0713 7.36651 22.0787C6.6494 22.0861 5.93803 21.9503 5.27406 21.6792C4.6101 21.4082 4.0069 21.0074 3.4998 20.5003C2.9927 19.9932 2.59189 19.39 2.32086 18.726C2.04983 18.0621 1.91402 17.3507 1.92139 16.6336C1.92876 15.9165 2.07917 15.208 2.36379 14.5498C2.64842 13.8915 3.06154 13.2967 3.57896 12.8001L12.8 3.57912C13.2965 3.0617 13.8914 2.64858 14.5496 2.36395C15.2079 2.07933 15.9163 1.92892 16.6334 1.92155C17.3505 1.91418 18.0619 2.04998 18.7259 2.32102C19.3898 2.59205 19.993 2.99286 20.5001 3.49996C21.0072 4.00706 21.408 4.61026 21.6791 5.27422C21.9501 5.93819 22.0859 6.64956 22.0785 7.36667C22.0712 8.08379 21.9208 8.79222 21.6361 9.45047C21.3515 10.1087 20.9384 10.7036 20.421 11.2001ZM19.707 8.29112C19.8944 8.47865 19.9997 8.73296 19.9997 8.99812C19.9997 9.26328 19.8944 9.51759 19.707 9.70512L16.707 12.7051C16.5184 12.8873 16.2658 12.9881 16.0036 12.9858C15.7414 12.9835 15.4906 12.8783 15.3051 12.6929C15.1197 12.5075 15.0146 12.2567 15.0123 11.9945C15.01 11.7323 15.1108 11.4797 15.293 11.2911L16.086 10.4981L13.5 7.91412L12.707 8.70712C12.5184 8.88928 12.2658 8.99007 12.0036 8.98779C11.7414 8.98552 11.4906 8.88035 11.3051 8.69494C11.1197 8.50953 11.0146 8.25872 11.0123 7.99652C11.01 7.73432 11.1108 7.48172 11.293 7.29312L14.293 4.29312C14.3852 4.19761 14.4956 4.12143 14.6176 4.06902C14.7396 4.01661 14.8708 3.98902 15.0036 3.98787C15.1363 3.98672 15.268 4.01202 15.3909 4.0623C15.5138 4.11258 15.6255 4.18683 15.7194 4.28073C15.8132 4.37462 15.8875 4.48627 15.9378 4.60917C15.9881 4.73206 16.0134 4.86374 16.0122 4.99652C16.0111 5.1293 15.9835 5.26052 15.9311 5.38252C15.8787 5.50453 15.8025 5.61487 15.707 5.70712L14.914 6.50012L17.5 9.08612L18.293 8.29312C18.4805 8.10565 18.7348 8.00033 19 8.00033C19.2651 8.00033 19.5194 8.10565 19.707 8.29312V8.29112ZM12.707 15.2911C12.8944 15.4786 12.9997 15.733 12.9997 15.9981C12.9997 16.2633 12.8944 16.5176 12.707 16.7051L9.70696 19.7051C9.51836 19.8873 9.26576 19.9881 9.00356 19.9858C8.74136 19.9835 8.49055 19.8783 8.30514 19.6929C8.11974 19.5075 8.01457 19.2567 8.01229 18.9945C8.01001 18.7323 8.1108 18.4797 8.29296 18.2911L9.08596 17.4981L6.49996 14.9141L5.70696 15.7071C5.51836 15.8893 5.26576 15.9901 5.00356 15.9878C4.74136 15.9855 4.49055 15.8803 4.30514 15.6949C4.11973 15.5095 4.01457 15.2587 4.01229 14.9965C4.01001 14.7343 4.1108 14.4817 4.29296 14.2931L7.29296 11.2931C7.48156 11.111 7.73417 11.0102 7.99636 11.0124C8.25856 11.0147 8.50937 11.1199 8.69478 11.3053C8.88019 11.4907 8.98536 11.7415 8.98764 12.0037C8.98991 12.2659 8.88912 12.5185 8.70696 12.7071L7.91396 13.5001L10.5 16.0861L11.293 15.2931C11.4805 15.1056 11.7348 15.0003 12 15.0003C12.2651 15.0003 12.5194 15.1056 12.707 15.2931V15.2911Z" fill="#374957"/>
</g>
<defs>
<clipPath id="clip0">
<rect width="24" height="24" fill="white"/>
</clipPath>
</defs>
</svg>
