<svg width="24" height="24" viewBox="0 0 24 24" fill="none" xmlns="http://www.w3.org/2000/svg">
<g clip-path="url(#clip0)">
<path d="M17.9999 9.06395C18 8.66171 17.9206 8.26342 17.7661 7.89202C17.6117 7.52062 17.3852 7.18346 17.0999 6.89995C16.516 6.3428 15.7399 6.03195 14.9329 6.03195C14.1258 6.03195 13.3498 6.3428 12.7659 6.89995L0.899887 18.7689C0.358306 19.3497 0.0633283 20.118 0.0771231 20.9119C0.0909179 21.7059 0.412407 22.4635 0.973835 23.025C1.53526 23.5866 2.29278 23.9082 3.08672 23.9222C3.88067 23.9362 4.64904 23.6414 5.22989 23.1L17.0999 11.231C17.3857 10.9472 17.6124 10.6095 17.7668 10.2376C17.9213 9.8656 18.0005 9.46671 17.9999 9.06395ZM3.81589 21.688C3.61373 21.8806 3.34517 21.9881 3.06589 21.9881C2.78661 21.9881 2.51804 21.8806 2.31589 21.688C2.1173 21.4889 2.00578 21.2191 2.00578 20.938C2.00578 20.6568 2.1173 20.387 2.31589 20.188L10.0849 12.418L11.5899 13.923L3.81589 21.688ZM15.6879 9.81595L12.9999 12.505L11.4999 11L14.1889 8.31195C14.2847 8.20245 14.4021 8.11379 14.5336 8.05148C14.6651 7.98916 14.808 7.95452 14.9535 7.94969C15.0989 7.94486 15.2438 7.96995 15.3792 8.02341C15.5145 8.07686 15.6375 8.15755 15.7404 8.26045C15.8433 8.36336 15.924 8.4863 15.9774 8.62166C16.0309 8.75702 16.056 8.90192 16.0511 9.04737C16.0463 9.19283 16.0117 9.33574 15.9494 9.46725C15.887 9.59877 15.7984 9.71609 15.6889 9.81195L15.6879 9.81595ZM4.86289 2.85495L6.41289 2.41295L6.85489 0.862951C6.92609 0.614236 7.07634 0.395468 7.28293 0.239731C7.48951 0.0839937 7.74118 -0.000244141 7.99989 -0.000244141C8.25859 -0.000244141 8.51027 0.0839937 8.71685 0.239731C8.92343 0.395468 9.07368 0.614236 9.14489 0.862951L9.58689 2.41295L11.1369 2.85495C11.3856 2.92616 11.6044 3.07641 11.7601 3.28299C11.9158 3.48957 12.0001 3.74124 12.0001 3.99995C12.0001 4.25866 11.9158 4.51033 11.7601 4.71691C11.6044 4.92349 11.3856 5.07375 11.1369 5.14495L9.58689 5.58695L9.14489 7.13695C9.07368 7.38567 8.92343 7.60443 8.71685 7.76017C8.51027 7.91591 8.25859 8.00015 7.99989 8.00015C7.74118 8.00015 7.48951 7.91591 7.28293 7.76017C7.07634 7.60443 6.92609 7.38567 6.85489 7.13695L6.41289 5.58695L4.86289 5.14495C4.61417 5.07375 4.3954 4.92349 4.23967 4.71691C4.08393 4.51033 3.99969 4.25866 3.99969 3.99995C3.99969 3.74124 4.08393 3.48957 4.23967 3.28299C4.3954 3.07641 4.61417 2.92616 4.86289 2.85495ZM23.1369 17.145L21.5869 17.587L21.1449 19.1369C21.0737 19.3857 20.9234 19.6044 20.7168 19.7602C20.5103 19.9159 20.2586 20.0001 19.9999 20.0001C19.7412 20.0001 19.4895 19.9159 19.2829 19.7602C19.0763 19.6044 18.9261 19.3857 18.8549 19.1369L18.4129 17.587L16.8629 17.145C16.6142 17.0737 16.3954 16.9235 16.2397 16.7169C16.0839 16.5103 15.9997 16.2587 15.9997 16C15.9997 15.7412 16.0839 15.4896 16.2397 15.283C16.3954 15.0764 16.6142 14.9262 16.8629 14.855L18.4129 14.413L18.8549 12.863C18.9261 12.6142 19.0763 12.3955 19.2829 12.2397C19.4895 12.084 19.7412 11.9998 19.9999 11.9998C20.2586 11.9998 20.5103 12.084 20.7168 12.2397C20.9234 12.3955 21.0737 12.6142 21.1449 12.863L21.5869 14.413L23.1369 14.855C23.3856 14.9262 23.6044 15.0764 23.7601 15.283C23.9158 15.4896 24.0001 15.7412 24.0001 16C24.0001 16.2587 23.9158 16.5103 23.7601 16.7169C23.6044 16.9235 23.3856 17.0737 23.1369 17.145ZM17.7549 2.49995L19.1109 2.11295L19.4999 0.754951C19.5632 0.538768 19.6949 0.348923 19.8751 0.213864C20.0554 0.0788049 20.2746 0.00580595 20.4999 0.00580595C20.7252 0.00580595 20.9443 0.0788049 21.1246 0.213864C21.3049 0.348923 21.4366 0.538768 21.4999 0.754951L21.8869 2.11095L23.2429 2.49795C23.4591 2.56126 23.6489 2.69292 23.784 2.87321C23.919 3.05349 23.992 3.27269 23.992 3.49795C23.992 3.72321 23.919 3.94241 23.784 4.12269C23.6489 4.30298 23.4591 4.43464 23.2429 4.49795L21.8869 4.88495L21.4999 6.24395C21.4366 6.46013 21.3049 6.64998 21.1246 6.78504C20.9443 6.9201 20.7252 6.9931 20.4999 6.9931C20.2746 6.9931 20.0554 6.9201 19.8751 6.78504C19.6949 6.64998 19.5632 6.46013 19.4999 6.24395L19.1129 4.88895L17.7549 4.49995C17.5387 4.43664 17.3489 4.30498 17.2138 4.12469C17.0787 3.94441 17.0057 3.72521 17.0057 3.49995C17.0057 3.27469 17.0787 3.05549 17.2138 2.87521C17.3489 2.69492 17.5387 2.56326 17.7549 2.49995Z" fill="#374957"/>
</g>
<defs>
<clipPath id="clip0">
<rect width="24" height="24" fill="white"/>
</clipPath>
</defs>
</svg>
