<svg width="24" height="24" viewBox="0 0 24 24" fill="none" xmlns="http://www.w3.org/2000/svg">
<g clip-path="url(#clip0)">
<path d="M22.5631 1.43692C20.1891 -0.937077 16.6441 -0.358077 12.0001 3.13692C7.35711 -0.358077 3.81311 -0.938077 1.43711 1.43692C-0.93889 3.81192 -0.35789 7.35592 3.13711 11.9999C-0.35789 16.6429 -0.937891 20.1879 1.43711 22.5629C1.8824 23.0247 2.4175 23.3903 3.00946 23.6375C3.60141 23.8846 4.23769 24.008 4.87911 23.9999C6.85011 23.9999 9.23011 22.9479 12.0001 20.8639C14.7691 22.9479 17.1491 23.9999 19.1211 23.9999C19.7625 24.008 20.3988 23.8846 20.9908 23.6375C21.5827 23.3903 22.1178 23.0247 22.5631 22.5629C24.9381 20.1879 24.3631 16.6439 20.8631 11.9999C24.3581 7.35592 24.9381 3.81192 22.5631 1.43692ZM19.0851 2.02792C19.4673 2.01642 19.8477 2.08313 20.2032 2.22397C20.5586 2.3648 20.8815 2.57679 21.1521 2.84692C22.8981 4.59392 21.6081 7.55992 19.5641 10.3859C18.7261 9.39792 17.7821 8.37092 16.7061 7.29392C15.6301 6.21692 14.6001 5.27292 13.6121 4.43392C15.5101 3.06092 17.4721 2.02792 19.0851 2.02792ZM18.3111 11.9999C17.3001 13.2199 16.2291 14.3609 15.2951 15.2999C14.3611 16.2389 13.2201 17.2999 12.0001 18.3109C10.7801 17.2999 9.63911 16.2289 8.70511 15.2999C7.77111 14.3709 6.70011 13.2199 5.68911 11.9999C6.70011 10.7799 7.77111 9.63792 8.70511 8.70492C9.63911 7.77192 10.7801 6.69992 12.0001 5.68792C13.2201 6.69792 14.3611 7.77092 15.3001 8.70492C16.2391 9.63892 17.3001 10.7799 18.3111 11.9999ZM2.84811 2.84792C3.11838 2.57732 3.44122 2.36496 3.79672 2.22393C4.15222 2.0829 4.53284 2.01619 4.91511 2.02792C6.52811 2.02792 8.49011 3.06092 10.3881 4.43392C9.40011 5.27292 8.37211 6.21692 7.29411 7.29392C6.21611 8.37092 5.27411 9.39392 4.43511 10.3859C2.39211 7.55992 1.10011 4.59392 2.84811 2.84792ZM2.84811 21.1479C1.10211 19.4019 2.39211 16.4349 4.43511 13.6099C5.27411 14.5979 6.21811 15.6249 7.29411 16.7019C8.37011 17.7789 9.39411 18.7249 10.3831 19.5629C7.55811 21.6089 4.59211 22.8999 2.84811 21.1519V21.1479ZM21.1481 21.1479C19.4031 22.8919 16.4381 21.6049 13.6131 19.5629C14.5991 18.7249 15.6271 17.7759 16.7021 16.7019C17.7771 15.6279 18.7221 14.6019 19.5601 13.6099C21.6081 16.4399 22.9001 19.4059 21.1521 21.1519L21.1481 21.1479Z" fill="#374957"/>
<path d="M12 14C13.1046 14 14 13.1046 14 12C14 10.8954 13.1046 10 12 10C10.8954 10 10 10.8954 10 12C10 13.1046 10.8954 14 12 14Z" fill="#374957"/>
</g>
<defs>
<clipPath id="clip0">
<rect width="24" height="24" fill="white"/>
</clipPath>
</defs>
</svg>
