<svg width="24" height="24" viewBox="0 0 24 24" fill="none" xmlns="http://www.w3.org/2000/svg">
<g clip-path="url(#clip0)">
<path d="M9.99977 8.00007C10.3953 8.00007 10.782 8.11737 11.1109 8.33713C11.4398 8.5569 11.6962 8.86925 11.8475 9.2347C11.9989 9.60016 12.0385 10.0023 11.9613 10.3903C11.8842 10.7782 11.6937 11.1346 11.414 11.4143C11.1343 11.694 10.7779 11.8845 10.39 11.9616C10.002 12.0388 9.59986 11.9992 9.2344 11.8478C8.86895 11.6965 8.55659 11.4401 8.33683 11.1112C8.11707 10.7823 7.99977 10.3956 7.99977 10.0001C7.99977 9.46964 8.21049 8.96093 8.58556 8.58586C8.96063 8.21079 9.46934 8.00007 9.99977 8.00007ZM23.9998 10.0001C23.9898 13.2937 22.8407 16.4825 20.7476 19.0254C18.6544 21.5684 15.746 23.3091 12.5158 23.9521C12.088 24.0302 11.6482 24.0128 11.228 23.9012C10.8077 23.7895 10.4173 23.5863 10.0848 23.3061C9.74512 23.0232 9.47185 22.6692 9.28434 22.2689C9.09683 21.8687 8.99968 21.4321 8.99977 20.9901V19.9491C7.31696 19.7811 5.70424 19.189 4.31243 18.2283C2.92063 17.2676 1.79521 15.9696 1.04142 14.4557C0.287634 12.9418 -0.0698929 11.2614 0.00227432 9.57181C0.0744415 7.88217 0.573946 6.23843 1.45407 4.79432C2.3342 3.3502 3.5662 2.15289 5.03485 1.31435C6.50351 0.475806 8.16083 0.0234335 9.85185 -0.000466033C11.5429 -0.0243656 13.2123 0.380989 14.7041 1.17769C16.1958 1.97439 17.4612 3.13641 18.3818 4.55507C18.4534 4.66551 18.5026 4.78898 18.5265 4.91843C18.5504 5.04788 18.5486 5.18077 18.5212 5.30952C18.4937 5.43827 18.4412 5.56035 18.3666 5.6688C18.292 5.77725 18.1967 5.86994 18.0863 5.94157C17.9758 6.01321 17.8524 6.06239 17.7229 6.08631C17.5935 6.11023 17.4606 6.10841 17.3318 6.08098C17.2031 6.05354 17.081 6.00101 16.9725 5.92638C16.8641 5.85176 16.7714 5.75651 16.6998 5.64607C15.7606 4.19847 14.3786 3.09331 12.7599 2.4955C11.1412 1.8977 9.37265 1.83929 7.71804 2.32899C6.06343 2.81869 4.61151 3.83025 3.57891 5.21273C2.54631 6.59522 1.98839 8.27452 1.98839 10.0001C1.98839 11.7256 2.54631 13.4049 3.57891 14.7874C4.61151 16.1699 6.06343 17.1815 7.71804 17.6712C9.37265 18.1609 11.1412 18.1024 12.7599 17.5046C14.3786 16.9068 15.7606 15.8017 16.6998 14.3541C16.7714 14.244 16.864 14.149 16.9724 14.0747C17.0807 14.0004 17.2026 13.9481 17.3311 13.9209C17.4596 13.8937 17.5922 13.8921 17.7214 13.9161C17.8505 13.9402 17.9737 13.9894 18.0838 14.0611C18.1939 14.1327 18.2888 14.2253 18.3631 14.3337C18.4374 14.442 18.4897 14.5639 18.5169 14.6924C18.5441 14.8209 18.5457 14.9535 18.5217 15.0827C18.4977 15.2118 18.4484 15.335 18.3768 15.4451C17.5632 16.6996 16.4776 17.7548 15.2006 18.5324C13.9235 19.31 12.4877 19.7901 10.9998 19.9371V20.9901C10.9999 21.1392 11.0328 21.2865 11.0962 21.4215C11.1597 21.5564 11.252 21.6758 11.3668 21.7711C11.4743 21.8635 11.6012 21.9306 11.7381 21.9674C11.875 22.0043 12.0184 22.01 12.1578 21.9841C14.4342 21.5328 16.5346 20.4413 18.2121 18.8376C19.8896 17.234 21.0746 15.1849 21.6278 12.9311C21.4215 12.9764 21.211 12.9996 20.9998 13.0001C20.4064 13.0001 19.8264 12.8241 19.3331 12.4945C18.8397 12.1648 18.4552 11.6963 18.2281 11.1481C18.0011 10.5999 17.9417 9.99674 18.0574 9.4148C18.1732 8.83286 18.4589 8.29831 18.8785 7.87875C19.298 7.45919 19.8326 7.17347 20.4145 7.05772C20.9964 6.94196 21.5996 7.00137 22.1478 7.22843C22.696 7.4555 23.1645 7.84001 23.4942 8.33336C23.8238 8.82671 23.9998 9.40673 23.9998 10.0001ZM21.9998 10.0001C21.9998 9.80229 21.9411 9.60895 21.8312 9.4445C21.7214 9.28005 21.5652 9.15188 21.3825 9.07619C21.1997 9.0005 20.9987 8.9807 20.8047 9.01929C20.6107 9.05787 20.4325 9.15311 20.2927 9.29296C20.1528 9.43282 20.0576 9.611 20.019 9.80498C19.9804 9.99896 20.0002 10.2 20.0759 10.3828C20.1516 10.5655 20.2798 10.7217 20.4442 10.8315C20.6087 10.9414 20.802 11.0001 20.9998 11.0001C21.265 11.0001 21.5193 10.8947 21.7069 10.7072C21.8944 10.5196 21.9998 10.2653 21.9998 10.0001Z" fill="#374957"/>
</g>
<defs>
<clipPath id="clip0">
<rect width="24" height="24" fill="white"/>
</clipPath>
</defs>
</svg>
