<svg width="24" height="24" viewBox="0 0 24 24" fill="none" xmlns="http://www.w3.org/2000/svg">
<g clip-path="url(#clip0)">
<path d="M18 6.9999C18 7.19768 17.9414 7.39102 17.8315 7.55547C17.7216 7.71992 17.5654 7.84809 17.3827 7.92378C17.2 7.99946 16.9989 8.01927 16.8049 7.98068C16.6109 7.9421 16.4327 7.84686 16.2929 7.707C16.153 7.56715 16.0578 7.38897 16.0192 7.19499C15.9806 7.00101 16.0004 6.79994 16.0761 6.61721C16.1518 6.43449 16.28 6.27831 16.4444 6.16843C16.6089 6.05855 16.8022 5.9999 17 5.9999C17.2652 5.9999 17.5196 6.10525 17.7071 6.29279C17.8946 6.48033 18 6.73468 18 6.9999ZM14 8.9999C13.8022 8.9999 13.6089 9.05855 13.4444 9.16843C13.28 9.27831 13.1518 9.43449 13.0761 9.61721C13.0004 9.79994 12.9806 10.001 13.0192 10.195C13.0578 10.389 13.153 10.5672 13.2929 10.707C13.4327 10.8469 13.6109 10.9421 13.8049 10.9807C13.9989 11.0193 14.2 10.9995 14.3827 10.9238C14.5654 10.8481 14.7216 10.7199 14.8315 10.5555C14.9414 10.391 15 10.1977 15 9.9999C15 9.73468 14.8946 9.48033 14.7071 9.29279C14.5196 9.10525 14.2652 8.9999 14 8.9999ZM11 11.9999C10.8022 11.9999 10.6089 12.0585 10.4444 12.1684C10.28 12.2783 10.1518 12.4345 10.0761 12.6172C10.0004 12.7999 9.98063 13.001 10.0192 13.195C10.0578 13.389 10.153 13.5672 10.2929 13.707C10.4327 13.8469 10.6109 13.9421 10.8049 13.9807C10.9989 14.0193 11.2 13.9995 11.3827 13.9238C11.5654 13.8481 11.7216 13.7199 11.8315 13.5555C11.9414 13.391 12 13.1977 12 12.9999C12 12.7347 11.8946 12.4803 11.7071 12.2928C11.5196 12.1053 11.2652 11.9999 11 11.9999ZM23.866 2.9579L23.791 3.1689C22.289 7.3369 20.848 11.2999 18 14.8199V14.9999C17.9982 16.5316 17.6772 18.0461 17.0574 19.4468C16.4375 20.8475 15.5325 22.1036 14.4 23.1349C13.8005 23.688 13.0157 23.9966 12.2 23.9999C11.3511 23.9973 10.5378 23.6584 9.93806 23.0576C9.33834 22.4568 9.00105 21.6428 9 20.7939V19.6429C8.26209 19.4049 7.59039 18.997 7.039 18.4519L7 18.4139L4.707 20.7069C4.5184 20.8891 4.2658 20.9899 4.0036 20.9876C3.7414 20.9853 3.49059 20.8801 3.30518 20.6947C3.11977 20.5093 3.0146 20.2585 3.01233 19.9963C3.01005 19.7341 3.11084 19.4815 3.293 19.2929L5.586 16.9999L5.547 16.9619C5.00157 16.4099 4.59269 15.738 4.353 14.9999H3.363C2.47149 14.9991 1.61671 14.6447 0.98623 14.0144C0.355746 13.3841 0.00105907 12.5294 0 11.6379C0.00176888 10.7672 0.337503 9.93038 0.938 9.2999C1.9835 8.22616 3.23879 7.37907 4.62576 6.81135C6.01272 6.24362 7.50169 5.96741 9 5.9999H9.18C12.7 3.1529 16.66 1.7119 20.826 0.210897L21.042 0.133897C21.4362 -0.0110218 21.8636 -0.0400777 22.2738 0.0501624C22.684 0.140403 23.0598 0.346167 23.3568 0.643145C23.6537 0.940122 23.8595 1.3159 23.9497 1.72608C24.04 2.13626 24.0109 2.5637 23.866 2.9579ZM3.363 12.9999H4.1C4.17512 12.1188 4.48258 11.2734 4.991 10.5499C5.54904 9.747 6.15305 8.97705 6.8 8.2439C5.12253 8.59111 3.58896 9.43667 2.4 10.6699C2.14706 10.9291 2.00379 11.2758 2 11.6379C2.00053 11.9991 2.14433 12.3454 2.39986 12.6007C2.65539 12.8561 3.00176 12.9996 3.363 12.9999ZM15.7 17.2519C14.9827 17.8798 14.2309 18.467 13.448 19.0109C12.7239 19.5144 11.8791 19.8167 11 19.8869V20.7939C11.0005 21.1138 11.1279 21.4204 11.3542 21.6464C11.5804 21.8725 11.8871 21.9996 12.207 21.9999C12.5241 21.9952 12.828 21.8722 13.059 21.6549C14.3482 20.4748 15.2659 18.9449 15.7 17.2519ZM21.937 2.0629C21.9104 2.03326 21.8751 2.01269 21.8362 2.00409C21.7973 1.99548 21.7567 1.99926 21.72 2.0149L21.505 2.0929C16.661 3.8379 12.478 5.3459 8.876 8.9469C8.04974 9.79896 7.29768 10.72 6.628 11.6999C6.22066 12.2781 6.03069 12.9816 6.09162 13.6862C6.15255 14.3908 6.46046 15.0512 6.961 15.5509L8.453 17.0409C8.95242 17.5411 9.6124 17.8489 10.3166 17.91C11.0208 17.9711 11.7239 17.7816 12.302 17.3749C13.2814 16.7053 14.2017 15.9533 15.053 15.1269C18.653 11.5269 20.163 7.3399 21.909 2.4939L21.985 2.2829C22.0012 2.24584 22.0053 2.20463 21.9966 2.16512C21.988 2.12562 21.9671 2.08984 21.937 2.0629Z" fill="#374957"/>
</g>
<defs>
<clipPath id="clip0">
<rect width="24" height="24" fill="white"/>
</clipPath>
</defs>
</svg>
