<svg width="24" height="24" viewBox="0 0 24 24" fill="none" xmlns="http://www.w3.org/2000/svg">
<g clip-path="url(#clip0)">
<path d="M11.9999 17.169C11.3433 17.1702 10.6929 17.0416 10.0861 16.7907C9.47925 16.5398 8.92798 16.1715 8.46392 15.707L0.292919 7.53496C0.110761 7.34636 0.00996641 7.09376 0.0122448 6.83156C0.0145233 6.56936 0.119692 6.31855 0.3051 6.13314C0.490508 5.94774 0.741321 5.84257 1.00352 5.84029C1.26571 5.83801 1.51832 5.9388 1.70692 6.12096L9.87792 14.293C10.4412 14.8548 11.2043 15.1703 11.9999 15.1703C12.7955 15.1703 13.5586 14.8548 14.1219 14.293L22.2929 6.12096C22.3852 6.02545 22.4955 5.94927 22.6175 5.89686C22.7395 5.84445 22.8707 5.81687 23.0035 5.81571C23.1363 5.81456 23.268 5.83986 23.3909 5.89014C23.5138 5.94042 23.6254 6.01467 23.7193 6.10857C23.8132 6.20246 23.8875 6.31411 23.9377 6.43701C23.988 6.5599 24.0133 6.69158 24.0122 6.82436C24.011 6.95714 23.9834 7.08836 23.931 7.21037C23.8786 7.33237 23.8024 7.44271 23.7069 7.53496L15.5359 15.707C15.0719 16.1715 14.5206 16.5398 13.9138 16.7907C13.307 17.0416 12.6566 17.1702 11.9999 17.169Z" fill="#374957"/>
</g>
<defs>
<clipPath id="clip0">
<rect width="24" height="24" fill="white"/>
</clipPath>
</defs>
</svg>
