<svg width="24" height="24" viewBox="0 0 24 24" fill="none" xmlns="http://www.w3.org/2000/svg">
<g clip-path="url(#clip0)">
<path d="M23.7066 5.29292L18.7066 0.292919C18.518 0.110761 18.2654 0.00996641 18.0032 0.0122448C17.741 0.0145233 17.4902 0.119692 17.3048 0.3051C17.1194 0.490508 17.0142 0.741321 17.0119 1.00352C17.0096 1.26571 17.1104 1.51832 17.2926 1.70692L19.0856 3.49992L17.5996 4.98292C16.6392 4.27773 15.4585 3.9387 14.2703 4.02688C13.0821 4.11507 11.9644 4.62468 11.1186 5.46392L5.04959 11.5359C4.39767 12.1843 3.88082 12.9556 3.52894 13.8051C3.17706 14.6546 2.99714 15.5654 2.99959 16.4849V19.5849L0.292593 22.2929C0.197083 22.3852 0.1209 22.4955 0.0684915 22.6175C0.0160825 22.7395 -0.0115037 22.8707 -0.0126576 23.0035C-0.0138114 23.1363 0.0114903 23.268 0.0617712 23.3909C0.112052 23.5138 0.186305 23.6254 0.280198 23.7193C0.374091 23.8132 0.485743 23.8875 0.608639 23.9377C0.731535 23.988 0.863215 24.0133 0.995994 24.0122C1.12877 24.011 1.25999 23.9834 1.382 23.931C1.504 23.8786 1.61435 23.8024 1.70659 23.7069L4.41359 20.9999H7.51359C8.43307 21.0024 9.34392 20.8225 10.1934 20.4706C11.0429 20.1187 11.8142 19.6018 12.4626 18.9499L18.5346 12.8779C19.3745 12.0332 19.8847 10.916 19.9731 9.72802C20.0615 8.54007 19.7222 7.35967 19.0166 6.39992L20.4996 4.91392L22.2926 6.70692C22.4812 6.88908 22.7338 6.98987 22.996 6.98759C23.2582 6.98531 23.509 6.88015 23.6944 6.69474C23.8798 6.50933 23.985 6.25852 23.9873 5.99632C23.9895 5.73412 23.8888 5.48152 23.7066 5.29292ZM17.1216 11.4639L11.0496 17.5359C10.5864 18.0015 10.0355 18.3707 9.42872 18.622C8.82194 18.8733 8.17135 19.0017 7.51459 18.9999H4.99959V16.4849C4.9999 16.1573 5.03171 15.8305 5.09459 15.5089L6.29459 16.7089C6.38684 16.8044 6.49718 16.8806 6.61919 16.933C6.74119 16.9854 6.87241 17.013 7.00519 17.0142C7.13797 17.0153 7.26965 16.99 7.39255 16.9397C7.51544 16.8895 7.6271 16.8152 7.72099 16.7213C7.81488 16.6274 7.88913 16.5158 7.93941 16.3929C7.9897 16.27 8.015 16.1383 8.01384 16.0055C8.01269 15.8727 7.9851 15.7415 7.93269 15.6195C7.88028 15.4975 7.8041 15.3872 7.70859 15.2949L5.96759 13.5539C6.11832 13.3412 6.2855 13.1405 6.46759 12.9539L7.49959 11.9139L9.29259 13.7069C9.4812 13.8891 9.7338 13.9899 9.99599 13.9876C10.2582 13.9853 10.509 13.8801 10.6944 13.6947C10.8798 13.5093 10.985 13.2585 10.9873 12.9963C10.9895 12.7341 10.8888 12.4815 10.7066 12.2929L8.91359 10.4999L10.4996 8.91392L12.2926 10.7069C12.4812 10.8891 12.7338 10.9899 12.996 10.9876C13.2582 10.9853 13.509 10.8801 13.6944 10.6947C13.8798 10.5093 13.985 10.2585 13.9873 9.99632C13.9895 9.73412 13.8888 9.48152 13.7066 9.29292L11.9136 7.49992L12.5356 6.87792C13.1072 6.33274 13.8667 6.02858 14.6566 6.02858C15.4465 6.02858 16.206 6.33274 16.7776 6.87792L17.1216 7.22192C17.684 7.7845 18 8.54743 18 9.34292C18 10.1384 17.684 10.9013 17.1216 11.4639Z" fill="#374957"/>
</g>
<defs>
<clipPath id="clip0">
<rect width="24" height="24" fill="white"/>
</clipPath>
</defs>
</svg>
