<svg width="24" height="24" viewBox="0 0 24 24" fill="none" xmlns="http://www.w3.org/2000/svg">
<path d="M23.1118 5.1651C23.3928 4.88418 23.6158 4.55064 23.7679 4.18354C23.92 3.81644 23.9983 3.42296 23.9983 3.0256C23.9983 2.62823 23.92 2.23475 23.7679 1.86765C23.6158 1.50055 23.3928 1.16701 23.1118 0.886096C22.5361 0.335718 21.7703 0.0285645 20.9738 0.0285645C20.1773 0.0285645 19.4115 0.335718 18.8358 0.886096L16.3998 3.3241C15.3878 4.3371 13.2768 4.1131 11.8208 3.3111C11.2694 3.01261 10.6288 2.92341 10.0168 3.05994C9.40489 3.19647 8.8629 3.54953 8.4907 4.05408C8.1185 4.55863 7.94116 5.18068 7.99134 5.80565C8.04152 6.43062 8.31585 7.0164 8.76379 7.4551L10.1798 8.8711L2.02479 17.0251C1.4895 17.5547 1.14189 18.2447 1.03484 18.99C0.927799 19.7353 1.06718 20.4953 1.43179 21.1541L0.292786 22.2931C0.105315 22.4806 0 22.7349 0 23.0001C0 23.2653 0.105315 23.5196 0.292786 23.7071C0.480314 23.8946 0.734622 23.9999 0.999786 23.9999C1.26495 23.9999 1.51926 23.8946 1.70679 23.7071L2.84579 22.5681C3.50462 22.9327 4.26453 23.0721 5.00988 22.965C5.75522 22.858 6.44519 22.5104 6.97479 21.9751L15.1288 13.8201L16.5448 15.2361C16.9835 15.684 17.5693 15.9584 18.1942 16.0085C18.8192 16.0587 19.4413 15.8814 19.9458 15.5092C20.4504 15.137 20.8034 14.595 20.9399 13.9831C21.0765 13.3711 20.9873 12.7305 20.6888 12.1791C19.8888 10.7231 19.6638 8.6111 20.6758 7.5991L23.1118 5.1651ZM5.55979 20.5611C5.27406 20.8338 4.89426 20.986 4.49929 20.986C4.10431 20.986 3.72451 20.8338 3.43879 20.5611C3.15758 20.2798 2.99961 19.8983 2.99961 19.5006C2.99961 19.1028 3.15758 18.7214 3.43879 18.4401L11.5938 10.2861L13.7148 12.4071L5.55979 20.5611ZM19.2598 6.1851C17.5008 7.9441 17.7598 11.0171 18.9348 13.1431C18.9905 13.254 19.009 13.38 18.9876 13.5023C18.9662 13.6246 18.9059 13.7367 18.8158 13.8221C18.7002 13.9328 18.5463 13.9946 18.3863 13.9946C18.2262 13.9946 18.0724 13.9328 17.9568 13.8221L10.1778 6.0411C10.0937 5.95561 10.0367 5.84732 10.0136 5.72967C9.99057 5.61202 10.0026 5.4902 10.0482 5.37932C10.0938 5.26844 10.1709 5.1734 10.27 5.10598C10.3692 5.03856 10.4859 5.00174 10.6058 5.0001C10.6934 4.99969 10.7797 5.02136 10.8568 5.0631C12.9828 6.2331 16.0568 6.4971 17.8148 4.7381L20.2538 2.3001C20.4483 2.11368 20.7073 2.00961 20.9768 2.00961C21.2462 2.00961 21.5052 2.11368 21.6998 2.3001C21.795 2.3952 21.8705 2.50814 21.9221 2.63245C21.9736 2.75677 22.0001 2.89002 22.0001 3.0246C22.0001 3.15917 21.9736 3.29242 21.9221 3.41674C21.8705 3.54106 21.795 3.65399 21.6998 3.7491L19.2598 6.1851Z" fill="#374957"/>
</svg>
