<svg width="24" height="24" viewBox="0 0 24 24" fill="none" xmlns="http://www.w3.org/2000/svg">
<g clip-path="url(#clip0)">
<path d="M22.773 7.72089C22.3041 7.1805 21.7245 6.74717 21.0736 6.45024C20.4226 6.15332 19.7155 5.99974 19 5.99989H15.011L15.347 3.95889C15.4659 3.24015 15.3225 2.50262 14.9429 1.88083C14.5633 1.25903 13.9728 0.794402 13.2792 0.571681C12.5856 0.34896 11.835 0.38299 11.1644 0.667564C10.4938 0.952139 9.94777 1.46829 9.626 2.12189L7.712 5.99989H5C3.67441 6.00148 2.40356 6.52877 1.46622 7.46611C0.528882 8.40345 0.00158786 9.67429 0 10.9999L0 15.9999C0.00158786 17.3255 0.528882 18.5963 1.46622 19.5337C2.40356 20.471 3.67441 20.9983 5 20.9999H18.3C19.5035 20.995 20.6652 20.5582 21.5738 19.769C22.4824 18.9799 23.0776 17.8908 23.251 16.6999L23.956 11.6999C24.0553 10.9906 24.001 10.2683 23.7969 9.58182C23.5928 8.89533 23.2437 8.26071 22.773 7.72089ZM2 15.9999V10.9999C2 10.2042 2.31607 9.44118 2.87868 8.87857C3.44129 8.31596 4.20435 7.99989 5 7.99989H7V18.9999H5C4.20435 18.9999 3.44129 18.6838 2.87868 18.1212C2.31607 17.5586 2 16.7955 2 15.9999ZM21.971 11.4189L21.265 16.4189C21.1618 17.1329 20.8057 17.7861 20.2616 18.2598C19.7175 18.7334 19.0214 18.9961 18.3 18.9999H9V7.73389C9.09424 7.65178 9.17226 7.55274 9.23 7.44189L11.419 3.00689C11.5011 2.85882 11.6171 2.73234 11.7576 2.63785C11.8981 2.54336 12.059 2.48355 12.2271 2.46335C12.3952 2.44314 12.5657 2.46311 12.7246 2.52162C12.8834 2.58012 13.0262 2.67549 13.141 2.79989C13.2392 2.91414 13.3111 3.04866 13.3513 3.19386C13.3916 3.33906 13.3994 3.49136 13.374 3.63989L12.846 6.83989C12.8228 6.98287 12.831 7.12918 12.8699 7.26869C12.9089 7.40821 12.9776 7.5376 13.0715 7.64792C13.1654 7.75824 13.2821 7.84685 13.4136 7.90762C13.545 7.96839 13.6882 7.99987 13.833 7.99989H19C19.4294 7.99983 19.8538 8.09196 20.2445 8.27003C20.6353 8.44811 20.9832 8.708 21.2649 9.03212C21.5465 9.35625 21.7553 9.73706 21.8772 10.1488C21.999 10.5606 22.031 10.9937 21.971 11.4189Z" fill="#374957"/>
</g>
<defs>
<clipPath id="clip0">
<rect width="24" height="24" fill="white"/>
</clipPath>
</defs>
</svg>
