<svg width="24" height="24" viewBox="0 0 24 24" fill="none" xmlns="http://www.w3.org/2000/svg">
<g clip-path="url(#clip0)">
<path d="M23 20H14.816C14.6666 19.5817 14.4262 19.2019 14.1122 18.8878C13.7981 18.5738 13.4182 18.3334 13 18.184V14.022C14.344 14.022 15.52 14.01 16.095 13.999C16.4539 13.9922 16.8111 13.9483 17.161 13.868C18.0618 13.6584 18.8858 13.2006 19.5397 12.5467C20.1937 11.8928 20.6514 11.0687 20.861 10.168C21.1631 8.90149 20.9606 7.56717 20.2964 6.44735C19.6321 5.32753 18.5583 4.51007 17.302 4.16797L17.13 4.12997C16.83 4.06297 16.679 4.02996 16.542 3.70096C16.0582 2.5339 15.2183 1.54934 14.142 0.887617C13.0658 0.225896 11.8082 -0.0792177 10.5484 0.0157641C9.28854 0.110746 8.09086 0.600976 7.12601 1.41658C6.16116 2.23219 5.47839 3.33155 5.175 4.55797C4.95847 5.45377 4.93902 6.38591 5.118 7.28997C4.4523 7.5764 3.89193 8.06242 3.51424 8.68093C3.13655 9.29944 2.96017 10.0199 3.00945 10.743C3.05873 11.466 3.33123 12.1559 3.78934 12.7175C4.24746 13.279 4.86859 13.6845 5.567 13.878C5.83911 13.9503 6.11859 13.9912 6.4 14C7.055 14.018 8.934 14.026 10.894 14.026H11V18.185C10.5819 18.3343 10.2021 18.5745 9.88802 18.8884C9.57398 19.2022 9.33353 19.5819 9.184 20H1C0.734784 20 0.48043 20.1053 0.292893 20.2929C0.105357 20.4804 0 20.7347 0 21C0 21.2652 0.105357 21.5195 0.292893 21.7071C0.48043 21.8946 0.734784 22 1 22H9.184C9.38765 22.5845 9.76816 23.0912 10.2727 23.4497C10.7773 23.8083 11.381 24.0009 12 24.0009C12.619 24.0009 13.2227 23.8083 13.7273 23.4497C14.2318 23.0912 14.6124 22.5845 14.816 22H23C23.2652 22 23.5196 21.8946 23.7071 21.7071C23.8946 21.5195 24 21.2652 24 21C24 20.7347 23.8946 20.4804 23.7071 20.2929C23.5196 20.1053 23.2652 20 23 20ZM6.456 12C6.32759 11.9954 6.20011 11.9763 6.076 11.943C5.83291 11.8748 5.61142 11.7452 5.4328 11.5668C5.25419 11.3884 5.12443 11.167 5.056 10.924C4.95317 10.5718 4.98298 10.1941 5.13979 9.86241C5.29661 9.53072 5.56956 9.268 5.907 9.12396C6.34215 8.93979 6.69873 8.60854 6.91443 8.18812C7.13012 7.7677 7.1912 7.28485 7.087 6.82397C6.97476 6.29177 6.97223 5.74227 7.07957 5.20907C7.18692 4.67586 7.40188 4.17015 7.71131 3.72284C8.02075 3.27554 8.41816 2.89604 8.87924 2.60755C9.34033 2.31905 9.85541 2.12762 10.393 2.04497C10.588 2.01613 10.7849 2.00109 10.982 1.99996C11.7765 1.99721 12.554 2.23038 13.2159 2.66992C13.8778 3.10946 14.3943 3.73559 14.7 4.46897C14.8735 4.89995 15.1574 5.27763 15.5233 5.56396C15.8891 5.85029 16.324 6.03516 16.784 6.09997C17.5398 6.30925 18.1846 6.80403 18.5824 7.47985C18.9802 8.15566 19.0998 8.95961 18.916 9.72196C18.7869 10.2546 18.5131 10.7411 18.1248 11.1279C17.7366 11.5148 17.2491 11.7868 16.716 11.914C16.5002 11.9645 16.2796 11.992 16.058 11.996C15.365 12.009 13.8 12.018 12.119 12.021C12.0798 12.0115 12.0401 12.0045 12 12C11.9592 12.0054 11.9188 12.0134 11.879 12.024C9.618 12.028 7.211 12.02 6.456 12ZM12 22C11.8022 22 11.6089 21.9413 11.4444 21.8314C11.28 21.7216 11.1518 21.5654 11.0761 21.3826C11.0004 21.1999 10.9806 20.9989 11.0192 20.8049C11.0578 20.6109 11.153 20.4327 11.2929 20.2929C11.4327 20.153 11.6109 20.0578 11.8049 20.0192C11.9989 19.9806 12.2 20.0004 12.3827 20.0761C12.5654 20.1518 12.7216 20.2799 12.8315 20.4444C12.9414 20.6088 13 20.8022 13 21C13 21.2652 12.8946 21.5195 12.7071 21.7071C12.5196 21.8946 12.2652 22 12 22Z" fill="#374957"/>
</g>
<defs>
<clipPath id="clip0">
<rect width="24" height="24" fill="white"/>
</clipPath>
</defs>
</svg>
