<svg width="24" height="24" viewBox="0 0 24 24" fill="none" xmlns="http://www.w3.org/2000/svg">
<g clip-path="url(#clip0)">
<path d="M23 13H1C0.734784 13 0.48043 12.8946 0.292893 12.7071C0.105357 12.5196 0 12.2652 0 12C0 11.7348 0.105357 11.4804 0.292893 11.2929C0.48043 11.1054 0.734784 11 1 11H23C23.2652 11 23.5196 11.1054 23.7071 11.2929C23.8946 11.4804 24 11.7348 24 12C24 12.2652 23.8946 12.5196 23.7071 12.7071C23.5196 12.8946 23.2652 13 23 13ZM18.934 7.126C19.0597 6.59268 19.0012 6.03253 18.7681 5.53667C18.5349 5.04082 18.1409 4.63844 17.65 4.395L9.668 0.428001C9.16973 0.145032 8.60635 -0.00331425 8.03334 -0.00243754C7.46032 -0.00156083 6.89741 0.148509 6.4 0.433001C5.96664 0.684165 5.60832 1.04664 5.36216 1.48286C5.116 1.91909 4.99096 2.4132 5 2.914V6C5 6.79565 5.31607 7.55871 5.87868 8.12132C6.44129 8.68393 7.20435 9 8 9H16.318C16.9035 9.03813 17.484 8.87226 17.961 8.5306C18.4379 8.18893 18.7817 7.69259 18.934 7.126ZM8.737 2.2L16.749 6.18C16.838 6.2195 16.9105 6.28861 16.9543 6.37558C16.9981 6.46255 17.0103 6.562 16.989 6.657C16.915 6.965 16.495 6.998 16.318 6.998H8C7.73513 6.998 7.48108 6.89292 7.2936 6.70582C7.10612 6.51871 7.00053 6.26487 7 6V2.914C6.99262 2.76133 7.02779 2.60962 7.1016 2.47578C7.17541 2.34193 7.28495 2.23123 7.418 2.156C7.59825 2.05212 7.80297 1.99826 8.011 2C8.26607 2.00385 8.51594 2.07269 8.737 2.2ZM9.628 23.594L17.661 19.6C18.1491 19.3553 18.5403 18.953 18.7713 18.4583C19.0024 17.9636 19.0597 17.4053 18.934 16.874C18.7817 16.3074 18.4379 15.8111 17.961 15.4694C17.484 15.1277 16.9035 14.9619 16.318 15H8C7.20435 15 6.44129 15.3161 5.87868 15.8787C5.31607 16.4413 5 17.2044 5 18V21.085C4.99086 21.5858 5.11585 22.08 5.36202 22.5162C5.60819 22.9525 5.96657 23.3149 6.4 23.566C6.89555 23.8536 7.45903 24.0035 8.032 24C8.59001 24.0017 9.13926 23.8613 9.628 23.592V23.594ZM16.318 17C16.495 17 16.918 17.033 16.989 17.341C17.0106 17.434 16.9997 17.5316 16.958 17.6175C16.9163 17.7034 16.8464 17.7724 16.76 17.813L8.7 21.822C8.5062 21.9341 8.28696 21.9948 8.0631 21.9983C7.83924 22.0018 7.61821 21.948 7.421 21.842C7.28731 21.7673 7.1771 21.6567 7.10274 21.5229C7.02837 21.389 6.99279 21.237 7 21.084V18C7 17.7348 7.10536 17.4804 7.29289 17.2929C7.48043 17.1054 7.73478 17 8 17H16.318Z" fill="#374957"/>
</g>
<defs>
<clipPath id="clip0">
<rect width="24" height="24" fill="white"/>
</clipPath>
</defs>
</svg>
