<svg width="24" height="24" viewBox="0 0 24 24" fill="none" xmlns="http://www.w3.org/2000/svg">
<g clip-path="url(#clip0)">
<path d="M16.6296 2.90012C15.8426 2.23312 15.0176 1.53212 14.1776 0.768117C13.8592 0.478595 13.4815 0.262168 13.0707 0.133996C12.6599 0.00582367 12.2261 -0.0309955 11.7996 0.0261174C11.3863 0.0807109 10.9901 0.225449 10.639 0.450093C10.2878 0.674737 9.99036 0.973797 9.76758 1.32612C8.57554 3.3181 7.73274 5.49917 7.27558 7.77512C7.09617 7.51611 6.93703 7.24363 6.79958 6.96012C6.65804 6.6619 6.44488 6.40336 6.17913 6.20755C5.91338 6.01174 5.60329 5.88475 5.27653 5.83791C4.94977 5.79108 4.61649 5.82585 4.30644 5.93913C3.99638 6.05241 3.71919 6.24067 3.49958 6.48712C1.82224 8.20117 0.892379 10.51 0.913578 12.9081C0.890397 15.3578 1.68712 17.7449 3.17699 19.6896C4.66686 21.6343 6.76429 23.0249 9.13558 23.6401C10.0434 23.8685 10.9755 23.9867 11.9116 23.9921C11.9416 23.9921 11.9706 24.0001 12.0006 24.0001C12.1316 24.0001 12.2606 23.9891 12.3896 23.9801C15.2612 23.8871 17.9839 22.68 19.9811 20.6145C21.9783 18.549 23.0932 15.7873 23.0896 12.9141C23.0856 8.38412 20.0936 5.84412 16.6296 2.90012ZM12.2296 21.9741C12.1156 21.9741 12.0016 21.9861 11.8866 21.9851C11.1423 21.9285 10.4328 21.6475 9.85158 21.1791C9.42198 20.8891 9.05883 20.5112 8.78612 20.0704C8.51341 19.6296 8.33735 19.136 8.26958 18.6221C8.09958 17.0001 9.09958 14.8791 11.1426 12.4831C11.2484 12.3595 11.3799 12.2604 11.5279 12.1927C11.6759 12.125 11.8368 12.0903 11.9996 12.0911C12.1602 12.0899 12.319 12.1243 12.4647 12.1917C12.6105 12.2592 12.7395 12.358 12.8426 12.4811C14.7146 14.7031 15.7426 16.7531 15.7426 18.2541C15.7398 19.2043 15.3755 20.1178 14.7235 20.8091C14.0716 21.5004 13.181 21.9177 12.2326 21.9761L12.2296 21.9741ZM17.5756 20.0831C17.5166 20.1291 17.4516 20.1661 17.3916 20.2101C17.6223 19.583 17.7411 18.9203 17.7426 18.2521C17.7426 15.7251 15.9076 13.0171 14.3696 11.1901C14.0789 10.8458 13.7166 10.569 13.3079 10.3791C12.8993 10.1891 12.4542 10.0905 12.0036 10.0901H11.9996C11.548 10.0893 11.1016 10.1866 10.6914 10.3754C10.2811 10.5641 9.9168 10.8397 9.62358 11.1831C7.17858 14.0471 6.05558 16.6201 6.28558 18.8311C6.34019 19.3444 6.47131 19.8466 6.67458 20.3211C5.50416 19.4731 4.55274 18.3582 3.89919 17.069C3.24564 15.7799 2.9088 14.3535 2.91658 12.9081C2.90703 11.9652 3.08642 11.0299 3.44418 10.1574C3.80193 9.28491 4.3308 8.49291 4.99958 7.82812C5.23025 8.30764 5.50723 8.76348 5.82658 9.18912C6.04116 9.47923 6.33603 9.70012 6.67476 9.82453C7.01348 9.94893 7.38123 9.97138 7.73258 9.88912C8.09097 9.80984 8.41873 9.62844 8.67623 9.36686C8.93373 9.10528 9.10994 8.77471 9.18358 8.41512C9.58534 6.2915 10.3531 4.25385 11.4526 2.39312C11.5194 2.28807 11.6087 2.19914 11.714 2.13274C11.8193 2.06634 11.938 2.02412 12.0616 2.00912C12.1997 1.99052 12.3403 2.00247 12.4733 2.04411C12.6064 2.08575 12.7287 2.15607 12.8316 2.25012C13.6896 3.03012 14.5316 3.75012 15.3316 4.42712C18.6696 7.26212 21.0826 9.31012 21.0826 12.9141C21.0868 14.298 20.7731 15.6643 20.1655 16.9076C19.558 18.151 18.6729 19.2381 17.5786 20.0851L17.5756 20.0831Z" fill="#374957"/>
</g>
<defs>
<clipPath id="clip0">
<rect width="24" height="24" fill="white"/>
</clipPath>
</defs>
</svg>
