<svg width="24" height="24" viewBox="0 0 24 24" fill="none" xmlns="http://www.w3.org/2000/svg">
<path d="M14.9996 17.0001C14.9996 17.2653 14.8942 17.5197 14.7067 17.7072C14.5192 17.8947 14.2648 18.0001 13.9996 18.0001H9.99959C9.73438 18.0001 9.48002 17.8947 9.29249 17.7072C9.10495 17.5197 8.99959 17.2653 8.99959 17.0001C8.99959 16.7349 9.10495 16.4805 9.29249 16.293C9.48002 16.1054 9.73438 16.0001 9.99959 16.0001H13.9996C14.2648 16.0001 14.5192 16.1054 14.7067 16.293C14.8942 16.4805 14.9996 16.7349 14.9996 17.0001ZM14.7066 7.29308C14.5191 7.10561 14.2648 7.00029 13.9996 7.00029C13.7344 7.00029 13.4801 7.10561 13.2926 7.29308L11.9996 8.58608L10.7066 7.29308C10.6143 7.19757 10.504 7.12139 10.382 7.06898C10.26 7.01657 10.1288 6.98898 9.99599 6.98783C9.86321 6.98668 9.73153 7.01198 9.60864 7.06226C9.48574 7.11254 9.37409 7.18679 9.2802 7.28069C9.18631 7.37458 9.11205 7.48623 9.06177 7.60913C9.01149 7.73202 8.98619 7.8637 8.98734 7.99648C8.9885 8.12926 9.01608 8.26048 9.06849 8.38249C9.1209 8.50449 9.19708 8.61483 9.29259 8.70708L10.5856 10.0001L9.29259 11.2931C9.19708 11.3853 9.1209 11.4957 9.06849 11.6177C9.01608 11.7397 8.9885 11.8709 8.98734 12.0037C8.98619 12.1365 9.01149 12.2681 9.06177 12.391C9.11205 12.5139 9.18631 12.6256 9.2802 12.7195C9.37409 12.8134 9.48574 12.8876 9.60864 12.9379C9.73153 12.9882 9.86321 13.0135 9.99599 13.0123C10.1288 13.0112 10.26 12.9836 10.382 12.9312C10.504 12.8788 10.6143 12.8026 10.7066 12.7071L11.9996 11.4141L13.2926 12.7071C13.4812 12.8892 13.7338 12.99 13.996 12.9878C14.2582 12.9855 14.509 12.8803 14.6944 12.6949C14.8798 12.5095 14.985 12.2587 14.9873 11.9965C14.9895 11.7343 14.8888 11.4817 14.7066 11.2931L13.4136 10.0001L14.7066 8.70708C14.8941 8.51955 14.9994 8.26525 14.9994 8.00008C14.9994 7.73492 14.8941 7.48061 14.7066 7.29308ZM21.9996 16.0001H17.9996C17.7344 16.0001 17.48 16.1054 17.2925 16.293C17.1049 16.4805 16.9996 16.7349 16.9996 17.0001C16.9996 17.2653 17.1049 17.5197 17.2925 17.7072C17.48 17.8947 17.7344 18.0001 17.9996 18.0001H21.9996C22.2648 18.0001 22.5192 17.8947 22.7067 17.7072C22.8942 17.5197 22.9996 17.2653 22.9996 17.0001C22.9996 16.7349 22.8942 16.4805 22.7067 16.293C22.5192 16.1054 22.2648 16.0001 21.9996 16.0001ZM21.4136 10.0001L22.7066 8.70708C22.8021 8.61483 22.8783 8.50449 22.9307 8.38249C22.9831 8.26048 23.0107 8.12926 23.0118 7.99648C23.013 7.8637 22.9877 7.73202 22.9374 7.60913C22.8871 7.48623 22.8129 7.37458 22.719 7.28069C22.6251 7.18679 22.5134 7.11254 22.3905 7.06226C22.2677 7.01198 22.136 6.98668 22.0032 6.98783C21.8704 6.98898 21.7392 7.01657 21.6172 7.06898C21.4952 7.12139 21.3848 7.19757 21.2926 7.29308L19.9996 8.58608L18.7066 7.29308C18.6143 7.19757 18.504 7.12139 18.382 7.06898C18.26 7.01657 18.1288 6.98898 17.996 6.98783C17.8632 6.98668 17.7315 7.01198 17.6086 7.06226C17.4857 7.11254 17.3741 7.18679 17.2802 7.28069C17.1863 7.37458 17.1121 7.48623 17.0618 7.60913C17.0115 7.73202 16.9862 7.8637 16.9873 7.99648C16.9885 8.12926 17.0161 8.26048 17.0685 8.38249C17.1209 8.50449 17.1971 8.61483 17.2926 8.70708L18.5856 10.0001L17.2926 11.2931C17.1971 11.3853 17.1209 11.4957 17.0685 11.6177C17.0161 11.7397 16.9885 11.8709 16.9873 12.0037C16.9862 12.1365 17.0115 12.2681 17.0618 12.391C17.1121 12.5139 17.1863 12.6256 17.2802 12.7195C17.3741 12.8134 17.4857 12.8876 17.6086 12.9379C17.7315 12.9882 17.8632 13.0135 17.996 13.0123C18.1288 13.0112 18.26 12.9836 18.382 12.9312C18.504 12.8788 18.6143 12.8026 18.7066 12.7071L19.9996 11.4141L21.2926 12.7071C21.4812 12.8892 21.7338 12.99 21.996 12.9878C22.2582 12.9855 22.509 12.8803 22.6944 12.6949C22.8798 12.5095 22.985 12.2587 22.9873 11.9965C22.9895 11.7343 22.8888 11.4817 22.7066 11.2931L21.4136 10.0001ZM5.99959 16.0001H1.99959C1.73438 16.0001 1.48002 16.1054 1.29249 16.293C1.10495 16.4805 0.999593 16.7349 0.999593 17.0001C0.999593 17.2653 1.10495 17.5197 1.29249 17.7072C1.48002 17.8947 1.73438 18.0001 1.99959 18.0001H5.99959C6.26481 18.0001 6.51916 17.8947 6.7067 17.7072C6.89424 17.5197 6.99959 17.2653 6.99959 17.0001C6.99959 16.7349 6.89424 16.4805 6.7067 16.293C6.51916 16.1054 6.26481 16.0001 5.99959 16.0001ZM6.70659 7.29308C6.51906 7.10561 6.26476 7.00029 5.99959 7.00029C5.73443 7.00029 5.48012 7.10561 5.29259 7.29308L3.99959 8.58608L2.70659 7.29308C2.61435 7.19757 2.504 7.12139 2.382 7.06898C2.25999 7.01657 2.12877 6.98898 1.99599 6.98783C1.86321 6.98668 1.73154 7.01198 1.60864 7.06226C1.48574 7.11254 1.37409 7.18679 1.2802 7.28069C1.18631 7.37458 1.11205 7.48623 1.06177 7.60913C1.01149 7.73202 0.986189 7.8637 0.987342 7.99648C0.988496 8.12926 1.01608 8.26048 1.06849 8.38249C1.1209 8.50449 1.19708 8.61483 1.29259 8.70708L2.58559 10.0001L1.29259 11.2931C1.19708 11.3853 1.1209 11.4957 1.06849 11.6177C1.01608 11.7397 0.988496 11.8709 0.987342 12.0037C0.986189 12.1365 1.01149 12.2681 1.06177 12.391C1.11205 12.5139 1.18631 12.6256 1.2802 12.7195C1.37409 12.8134 1.48574 12.8876 1.60864 12.9379C1.73154 12.9882 1.86321 13.0135 1.99599 13.0123C2.12877 13.0112 2.25999 12.9836 2.382 12.9312C2.504 12.8788 2.61435 12.8026 2.70659 12.7071L3.99959 11.4141L5.29259 12.7071C5.38484 12.8026 5.49518 12.8788 5.61719 12.9312C5.73919 12.9836 5.87041 13.0112 6.00319 13.0123C6.13597 13.0135 6.26765 12.9882 6.39055 12.9379C6.51344 12.8876 6.6251 12.8134 6.71899 12.7195C6.81288 12.6256 6.88713 12.5139 6.93741 12.391C6.9877 12.2681 7.013 12.1365 7.01184 12.0037C7.01069 11.8709 6.9831 11.7397 6.93069 11.6177C6.87828 11.4957 6.8021 11.3853 6.70659 11.2931L5.41359 10.0001L6.70659 8.70708C6.89406 8.51955 6.99938 8.26525 6.99938 8.00008C6.99938 7.73492 6.89406 7.48061 6.70659 7.29308Z" fill="#374957"/>
</svg>
