<svg width="24" height="24" viewBox="0 0 24 24" fill="none" xmlns="http://www.w3.org/2000/svg">
<g clip-path="url(#clip0)">
<path d="M21.715 18.3631C20.5696 19.7519 19.0705 20.8057 17.376 21.4133C15.6814 22.021 13.8543 22.16 12.0873 21.8156C10.3204 21.4712 8.67918 20.6562 7.33689 19.4566C5.99461 18.257 5.00103 16.7174 4.461 15.0001H15C15.2652 15.0001 15.5196 14.8947 15.7071 14.7072C15.8946 14.5197 16 14.2653 16 14.0001C16 13.7349 15.8946 13.4805 15.7071 13.293C15.5196 13.1055 15.2652 13.0001 15 13.0001H4.051C3.983 12.3352 3.983 11.665 4.051 11.0001H15C15.2652 11.0001 15.5196 10.8947 15.7071 10.7072C15.8946 10.5197 16 10.2653 16 10.0001C16 9.73488 15.8946 9.48053 15.7071 9.29299C15.5196 9.10546 15.2652 9.0001 15 9.0001H4.461C5.00103 7.28282 5.99461 5.74315 7.33689 4.54359C8.67918 3.34402 10.3204 2.52904 12.0873 2.18464C13.8543 1.84024 15.6814 1.9792 17.376 2.58686C19.0705 3.19452 20.5696 4.24833 21.715 5.6371C21.7987 5.73835 21.9014 5.82213 22.0175 5.88366C22.1335 5.94519 22.2605 5.98326 22.3912 5.99571C22.522 6.00815 22.6539 5.99472 22.7795 5.95618C22.905 5.91764 23.0217 5.85475 23.123 5.7711C23.2242 5.68745 23.308 5.58467 23.3696 5.46864C23.4311 5.35261 23.4692 5.2256 23.4816 5.09485C23.494 4.96411 23.4806 4.83219 23.4421 4.70664C23.4035 4.58108 23.3407 4.46435 23.257 4.3631C21.8496 2.65739 19.998 1.37415 17.9067 0.655295C15.8155 -0.063561 13.5661 -0.190022 11.4075 0.289896C9.24883 0.769815 7.26497 1.83741 5.67529 3.37462C4.08561 4.91184 2.95206 6.85877 2.4 9.0001H1C0.734784 9.0001 0.48043 9.10546 0.292893 9.29299C0.105357 9.48053 0 9.73488 0 10.0001C0 10.2653 0.105357 10.5197 0.292893 10.7072C0.48043 10.8947 0.734784 11.0001 1 11.0001H2.051C2.023 11.3311 2 11.6621 2 12.0001C2 12.3381 2.023 12.6691 2.051 13.0001H1C0.734784 13.0001 0.48043 13.1055 0.292893 13.293C0.105357 13.4805 0 13.7349 0 14.0001C0 14.2653 0.105357 14.5197 0.292893 14.7072C0.48043 14.8947 0.734784 15.0001 1 15.0001H2.4C2.95144 17.1425 4.08492 19.0906 5.67498 20.6287C7.26505 22.1669 9.24969 23.235 11.4093 23.7151C13.5688 24.1951 15.8191 24.0682 17.911 23.3485C20.0029 22.6287 21.8549 21.3442 23.262 19.6371C23.4309 19.4326 23.5117 19.1694 23.4866 18.9053C23.4615 18.6413 23.3325 18.398 23.128 18.2291C22.9235 18.0602 22.6603 17.9794 22.3962 18.0045C22.1322 18.0296 21.8889 18.1586 21.72 18.3631H21.715Z" fill="#374957"/>
</g>
<defs>
<clipPath id="clip0">
<rect width="24" height="24" fill="white"/>
</clipPath>
</defs>
</svg>
