<svg width="24" height="24" viewBox="0 0 24 24" fill="none" xmlns="http://www.w3.org/2000/svg">
<path d="M21.9997 15.184V8C21.9981 6.67441 21.4708 5.40356 20.5334 4.46622C19.5961 3.52888 18.3253 3.00159 16.9997 3H6.99965C5.67406 3.00159 4.40321 3.52888 3.46587 4.46622C2.52854 5.40356 2.00124 6.67441 1.99965 8V15.184C1.33297 15.4188 0.770909 15.882 0.413015 16.4915C0.055121 17.1011 -0.0755073 17.8176 0.0442667 18.5142C0.164041 19.2108 0.526487 19.8425 1.06741 20.2975C1.60834 20.7525 2.29283 21.0013 2.99965 21H20.9997C21.7065 21.0013 22.391 20.7525 22.9319 20.2975C23.4728 19.8425 23.8353 19.2108 23.955 18.5142C24.0748 17.8176 23.9442 17.1011 23.5863 16.4915C23.2284 15.882 22.6663 15.4188 21.9997 15.184ZM6.99965 5H16.9997C17.7953 5 18.5584 5.31607 19.121 5.87868C19.6836 6.44129 19.9997 7.20435 19.9997 8V15H15.8487C15.5578 14.9998 15.2704 15.0631 15.0065 15.1853C14.7426 15.3076 14.5085 15.486 14.3207 15.708L14.0737 16H9.92465L9.67865 15.708C9.49076 15.486 9.25671 15.3076 8.99281 15.1853C8.7289 15.0631 8.44151 14.9998 8.15065 15H3.99965V8C3.99965 7.20435 4.31572 6.44129 4.87833 5.87868C5.44094 5.31607 6.204 5 6.99965 5ZM20.9997 19H2.99965C2.73444 19 2.48008 18.8946 2.29255 18.7071C2.10501 18.5196 1.99965 18.2652 1.99965 18C1.99965 17.7348 2.10501 17.4804 2.29255 17.2929C2.48008 17.1054 2.73444 17 2.99965 17H8.15165L8.39765 17.292C8.58544 17.5139 8.81933 17.6922 9.08305 17.8145C9.34677 17.9367 9.63397 18 9.92465 18H14.0737C14.3645 18.0002 14.6519 17.9369 14.9158 17.8147C15.1797 17.6924 15.4138 17.514 15.6017 17.292L15.8487 17H20.9997C21.2649 17 21.5192 17.1054 21.7068 17.2929C21.8943 17.4804 21.9997 17.7348 21.9997 18C21.9997 18.2652 21.8943 18.5196 21.7068 18.7071C21.5192 18.8946 21.2649 19 20.9997 19Z" fill="#374957"/>
</svg>
