<svg width="24" height="24" viewBox="0 0 24 24" fill="none" xmlns="http://www.w3.org/2000/svg">
<g clip-path="url(#clip0)">
<path d="M23.052 11.6539L21.233 7.56288C20.7616 6.50231 19.9927 5.60123 19.0195 4.96882C18.0463 4.33642 16.9106 3.99984 15.75 3.99988H14.4L13.74 1.35788C13.6427 0.970136 13.4186 0.626014 13.1033 0.38014C12.7881 0.134267 12.3998 0.000732422 12 0.000732422C11.6002 0.000732422 11.2119 0.134267 10.8967 0.38014C10.5814 0.626014 10.3573 0.970136 10.26 1.35788L9.6 3.99988H5C3.67441 4.00147 2.40356 4.52877 1.46622 5.4661C0.528882 6.40344 0.00158786 7.67429 0 8.99988L0 16.9999C0.0021456 17.6308 0.203551 18.2449 0.575468 18.7546C0.947384 19.2642 1.4708 19.6434 2.071 19.8379C2.02573 20.0557 2.00195 20.2774 2 20.4999C2 21.4281 2.36875 22.3184 3.02513 22.9748C3.6815 23.6311 4.57174 23.9999 5.5 23.9999C6.42826 23.9999 7.3185 23.6311 7.97487 22.9748C8.63125 22.3184 9 21.4281 9 20.4999C8.99843 20.3324 8.98473 20.1653 8.959 19.9999H15.041C15.0153 20.1653 15.0016 20.3324 15 20.4999C15 21.4281 15.3687 22.3184 16.0251 22.9748C16.6815 23.6311 17.5717 23.9999 18.5 23.9999C19.4283 23.9999 20.3185 23.6311 20.9749 22.9748C21.6313 22.3184 22 21.4281 22 20.4999C21.998 20.2774 21.9743 20.0557 21.929 19.8379C22.5292 19.6434 23.0526 19.2642 23.4245 18.7546C23.7964 18.2449 23.9979 17.6308 24 16.9999V16.1219C24.0022 14.5824 23.6791 13.0598 23.052 11.6539ZM19.406 8.37589L20.573 10.9999H17C16.7348 10.9999 16.4804 10.8945 16.2929 10.707C16.1054 10.5195 16 10.2651 16 9.99988V6.01788C16.7289 6.06258 17.4316 6.30595 18.032 6.72162C18.6324 7.13728 19.1076 7.70938 19.406 8.37589ZM7 20.4999C7 20.8977 6.84196 21.2792 6.56066 21.5605C6.27936 21.8419 5.89782 21.9999 5.5 21.9999C5.10218 21.9999 4.72064 21.8419 4.43934 21.5605C4.15804 21.2792 4 20.8977 4 20.4999C4.00061 20.329 4.03212 20.1596 4.093 19.9999H6.907C6.96788 20.1596 6.99939 20.329 7 20.4999ZM18.5 21.9999C18.1022 21.9999 17.7206 21.8419 17.4393 21.5605C17.158 21.2792 17 20.8977 17 20.4999C17.0006 20.329 17.0321 20.1596 17.093 19.9999H19.907C19.9679 20.1596 19.9994 20.329 20 20.4999C20 20.8977 19.842 21.2792 19.5607 21.5605C19.2794 21.8419 18.8978 21.9999 18.5 21.9999ZM22 16.9999C22 17.2651 21.8946 17.5195 21.7071 17.707C21.5196 17.8945 21.2652 17.9999 21 17.9999H3C2.73478 17.9999 2.48043 17.8945 2.29289 17.707C2.10536 17.5195 2 17.2651 2 16.9999V8.99988C2 8.20424 2.31607 7.44117 2.87868 6.87856C3.44129 6.31596 4.20435 5.99988 5 5.99988H14V9.99988C14 10.7955 14.3161 11.5586 14.8787 12.1212C15.4413 12.6838 16.2044 12.9999 17 12.9999H21.429C21.8045 13.998 21.9979 15.0554 22 16.1219V16.9999ZM11 11.9999C11 12.2651 10.8946 12.5195 10.7071 12.707C10.5196 12.8945 10.2652 12.9999 10 12.9999H9V13.9999C9 14.2651 8.89464 14.5195 8.70711 14.707C8.51957 14.8945 8.26522 14.9999 8 14.9999C7.73478 14.9999 7.48043 14.8945 7.29289 14.707C7.10536 14.5195 7 14.2651 7 13.9999V12.9999H6C5.73478 12.9999 5.48043 12.8945 5.29289 12.707C5.10536 12.5195 5 12.2651 5 11.9999C5 11.7347 5.10536 11.4803 5.29289 11.2928C5.48043 11.1052 5.73478 10.9999 6 10.9999H7V9.99988C7 9.73467 7.10536 9.48031 7.29289 9.29278C7.48043 9.10524 7.73478 8.99988 8 8.99988C8.26522 8.99988 8.51957 9.10524 8.70711 9.29278C8.89464 9.48031 9 9.73467 9 9.99988V10.9999H10C10.2652 10.9999 10.5196 11.1052 10.7071 11.2928C10.8946 11.4803 11 11.7347 11 11.9999Z" fill="#374957"/>
</g>
<defs>
<clipPath id="clip0">
<rect width="24" height="24" fill="white"/>
</clipPath>
</defs>
</svg>
