<svg width="24" height="24" viewBox="0 0 24 24" fill="none" xmlns="http://www.w3.org/2000/svg">
<path d="M18.7069 8.20709C18.5194 8.01962 18.2651 7.91431 17.9999 7.91431C17.7348 7.91431 17.4804 8.01962 17.2929 8.20709L12.7069 12.7931C12.5168 12.9756 12.2635 13.0775 11.9999 13.0775C11.7364 13.0775 11.4831 12.9756 11.2929 12.7931L6.70692 8.20709C6.51832 8.02493 6.26571 7.92414 6.00352 7.92642C5.74132 7.9287 5.49051 8.03387 5.3051 8.21927C5.11969 8.40468 5.01452 8.65549 5.01224 8.91769C5.00997 9.17989 5.11076 9.43249 5.29292 9.62109L9.87792 14.2071C10.1565 14.4857 10.4872 14.7067 10.8513 14.8575C11.2153 15.0083 11.6054 15.086 11.9994 15.086C12.3934 15.086 12.7836 15.0083 13.1476 14.8575C13.5116 14.7067 13.8423 14.4857 14.1209 14.2071L18.7069 9.62109C18.8944 9.43357 18.9997 9.17926 18.9997 8.91409C18.9997 8.64893 18.8944 8.39462 18.7069 8.20709Z" fill="#374957"/>
</svg>
