<svg width="24" height="24" viewBox="0 0 24 24" fill="none" xmlns="http://www.w3.org/2000/svg">
<g clip-path="url(#clip0)">
<path d="M0 22.9999V15.9999C0.00264685 13.6137 0.951708 11.3261 2.63896 9.63884C4.32622 7.95159 6.61386 7.00253 9 6.99988H13.83V5.41388C13.8301 5.01838 13.9474 4.63178 14.1672 4.30296C14.387 3.97414 14.6993 3.71786 15.0647 3.56652C15.4301 3.41518 15.8322 3.37558 16.2201 3.45271C16.608 3.52985 16.9643 3.72026 17.244 3.99988L23.124 9.87888C23.6864 10.4415 24.0024 11.2044 24.0024 11.9999C24.0024 12.7954 23.6864 13.5583 23.124 14.1209L17.244 19.9999C16.9643 20.2795 16.608 20.4699 16.2201 20.547C15.8322 20.6242 15.4301 20.5846 15.0647 20.4332C14.6993 20.2819 14.387 20.0256 14.1672 19.6968C13.9474 19.368 13.8301 18.9814 13.83 18.5859V16.9999H8C6.40919 17.0015 4.88399 17.6341 3.75911 18.759C2.63424 19.8839 2.00159 21.4091 2 22.9999C2 23.2651 1.89464 23.5195 1.70711 23.707C1.51957 23.8945 1.26522 23.9999 1 23.9999C0.734784 23.9999 0.48043 23.8945 0.292893 23.707C0.105357 23.5195 0 23.2651 0 22.9999ZM15.83 7.99988C15.83 8.2651 15.7246 8.51945 15.5371 8.70699C15.3496 8.89452 15.0952 8.99988 14.83 8.99988H9C7.14413 9.002 5.36489 9.74018 4.05259 11.0525C2.7403 12.3648 2.00212 14.144 2 15.9999V17.7139C2.74957 16.8608 3.67249 16.1775 4.70715 15.7095C5.74181 15.2415 6.86441 14.9995 8 14.9999H14.83C15.0952 14.9999 15.3496 15.1052 15.5371 15.2928C15.7246 15.4803 15.83 15.7347 15.83 15.9999V18.5859L21.709 12.7069C21.8965 12.5194 22.0018 12.265 22.0018 11.9999C22.0018 11.7347 21.8965 11.4804 21.709 11.2929L15.83 5.41388V7.99988Z" fill="#374957"/>
</g>
<defs>
<clipPath id="clip0">
<rect width="24" height="24" fill="white"/>
</clipPath>
</defs>
</svg>
