<svg width="24" height="24" viewBox="0 0 24 24" fill="none" xmlns="http://www.w3.org/2000/svg">
<path d="M20.494 7.96811L10.954 0.968109C10.2089 0.422494 9.32722 0.0939037 8.40676 0.0187727C7.48631 -0.0563584 6.56302 0.124906 5.7393 0.542467C4.91557 0.960027 4.22358 1.59757 3.74006 2.38439C3.25654 3.17122 3.00039 4.07659 3 5.00011V19.0001C3.00016 19.924 3.25633 20.8299 3.74007 21.617C4.22382 22.4042 4.91621 23.042 5.74042 23.4595C6.56463 23.8771 7.48841 24.0581 8.40925 23.9824C9.33008 23.9068 10.212 23.5775 10.957 23.0311L20.497 16.0311C21.1303 15.5667 21.6452 14.9597 22.0002 14.2592C22.3552 13.5587 22.5401 12.7844 22.5401 11.9991C22.5401 11.2138 22.3552 10.4395 22.0002 9.73905C21.6452 9.03855 21.1303 8.43151 20.497 7.96711L20.494 7.96811ZM19.31 14.4181L9.77 21.4181C9.32302 21.7447 8.79437 21.9413 8.24257 21.9861C7.69078 22.0308 7.13736 21.922 6.64357 21.6717C6.14978 21.4214 5.73488 21.0394 5.4448 20.5678C5.15472 20.0963 5.00078 19.5537 5 19.0001V5.00011C4.99445 4.44546 5.14549 3.90049 5.43578 3.42783C5.72606 2.95517 6.1438 2.574 6.641 2.32811C7.06389 2.113 7.53154 2.00063 8.006 2.00011C8.64189 2.00254 9.26022 2.209 9.77 2.58911L19.31 9.58911C19.6895 9.86781 19.9981 10.2319 20.2107 10.652C20.4234 11.072 20.5343 11.5363 20.5343 12.0071C20.5343 12.4779 20.4234 12.9422 20.2107 13.3622C19.9981 13.7823 19.6895 14.1464 19.31 14.4251V14.4181Z" fill="#374957"/>
</svg>
