<svg width="24" height="24" viewBox="0 0 24 24" fill="none" xmlns="http://www.w3.org/2000/svg">
<g clip-path="url(#clip0)">
<path d="M15.9088 24C15.1375 23.9992 14.398 23.6925 13.8527 23.1471C13.3073 22.6017 13.0006 21.8623 12.9998 21.091V15C12.9998 14.7348 12.8944 14.4804 12.7069 14.2929C12.5193 14.1054 12.265 14 11.9998 14C11.7345 14 11.4802 14.1054 11.2927 14.2929C11.1051 14.4804 10.9998 14.7348 10.9998 15V21.091C10.9998 21.7295 10.7898 22.3504 10.4022 22.8578C10.0145 23.3652 9.47073 23.731 8.85464 23.8989C8.23855 24.0667 7.58436 24.0272 6.99291 23.7866C6.40146 23.5459 5.9056 23.1173 5.58176 22.567C3.18576 18.463 -0.00024172 12.279 -0.00024172 6C-0.0304194 5.20397 0.104132 4.41029 0.394981 3.66868C0.685831 2.92707 1.12671 2.25352 1.68999 1.69024C2.25328 1.12695 2.92682 0.686075 3.66843 0.395225C4.41004 0.104376 5.20373 -0.0301752 5.99976 2.42097e-06C7.32877 0.000513596 8.6496 0.208 9.91476 0.615002C10.5863 0.847902 11.2893 0.977708 11.9998 1C12.7102 0.977708 13.4132 0.847902 14.0848 0.615002C15.3499 0.207873 16.6707 0.00038336 17.9998 2.42097e-06C18.7958 -0.0301752 19.5895 0.104376 20.3311 0.395225C21.0727 0.686075 21.7462 1.12695 22.3095 1.69024C22.8728 2.25352 23.3137 2.92707 23.6045 3.66868C23.8954 4.41029 24.0299 5.20397 23.9998 6C23.9998 12.278 20.8138 18.462 18.4178 22.567C18.1605 23.0036 17.7936 23.3654 17.3536 23.6168C16.9136 23.8681 16.4155 24.0002 15.9088 24ZM11.9998 12C12.7954 12 13.5585 12.3161 14.1211 12.8787C14.6837 13.4413 14.9998 14.2044 14.9998 15V21.091C15.0001 21.2899 15.0656 21.4832 15.1861 21.6414C15.3066 21.7996 15.4756 21.914 15.6673 21.9672C15.8589 22.0204 16.0627 22.0093 16.2475 21.9358C16.4323 21.8623 16.588 21.7303 16.6908 21.56C18.9698 17.654 21.9998 11.793 21.9998 6C22.0209 5.46906 21.9319 4.93949 21.7383 4.44463C21.5448 3.94977 21.2509 3.50033 20.8752 3.1246C20.4994 2.74887 20.05 2.45498 19.5551 2.26144C19.0603 2.06789 18.5307 1.97888 17.9998 2C16.8591 1.99941 15.7256 2.18034 14.6418 2.536C13.7894 2.82238 12.8987 2.9788 11.9998 3C11.1008 2.97889 10.2101 2.82247 9.35776 2.536C8.27392 2.18044 7.14043 1.99951 5.99976 2C2.04476 2 1.99976 5.837 1.99976 6C1.99976 11.794 5.02976 17.655 7.30976 21.56C7.41225 21.7306 7.56782 21.8628 7.75265 21.9365C7.93747 22.0102 8.14136 22.0214 8.3331 21.9681C8.52484 21.9149 8.69385 21.8003 8.81425 21.6419C8.93466 21.4835 8.99982 21.29 8.99976 21.091V15C8.99976 14.2044 9.31583 13.4413 9.87844 12.8787C10.441 12.3161 11.2041 12 11.9998 12Z" fill="#374957"/>
</g>
<defs>
<clipPath id="clip0">
<rect width="24" height="24" fill="white"/>
</clipPath>
</defs>
</svg>
