<svg width="24" height="24" viewBox="0 0 24 24" fill="none" xmlns="http://www.w3.org/2000/svg">
<g clip-path="url(#clip0)">
<path d="M12.0001 16.0001C12.4657 16.001 12.9252 15.8935 13.3421 15.6861L15.3421 14.6861C15.8417 14.4379 16.2619 14.0548 16.555 13.58C16.848 13.1053 17.0022 12.558 17.0001 12.0001V9.03305C17.0018 8.47564 16.8474 7.92888 16.5543 7.4547C16.2613 6.98051 15.8414 6.59785 15.3421 6.35005L13.3421 5.35005C12.9252 5.14287 12.466 5.03505 12.0006 5.03505C11.5351 5.03505 11.0759 5.14287 10.6591 5.35005L8.65906 6.35005C8.15956 6.59771 7.73941 6.98031 7.4462 7.45451C7.15298 7.9287 6.99843 8.47553 7.00006 9.03305V12.0001C6.99827 12.5576 7.15263 13.1045 7.44566 13.5789C7.73868 14.0532 8.15867 14.4361 8.65806 14.6841L10.6581 15.6841C11.0748 15.8921 11.5343 16.0003 12.0001 16.0001ZM9.00006 12.0001V9.03305C9.00165 8.93104 9.01885 8.82987 9.05105 8.73305L11.2311 9.82305C11.4698 9.9424 11.7331 10.0045 12.0001 10.0045C12.267 10.0045 12.5303 9.9424 12.7691 9.82305L14.9491 8.73305C14.9813 8.82987 14.9985 8.93104 15.0001 9.03305V12.0001C15.0008 12.186 14.9494 12.3685 14.8517 12.5267C14.7539 12.6849 14.6137 12.8125 14.4471 12.8951L12.4471 13.8951C12.3079 13.9639 12.1548 13.9997 11.9996 13.9997C11.8443 13.9997 11.6912 13.9639 11.5521 13.8951L9.55206 12.8951C9.38557 12.8124 9.24559 12.6847 9.14802 12.5265C9.05044 12.3683 8.99918 12.1859 9.00006 12.0001ZM19.0001 22.0001H16.2911L19.7781 18.7781C21.3177 17.2385 22.3658 15.2767 22.7896 13.141C23.2134 11.0054 22.9939 8.79197 22.1589 6.78116C21.3239 4.77034 19.9109 3.05256 18.0989 1.84536C16.287 0.638158 14.1575 -0.00415234 11.9802 -0.000226249C9.80287 0.00369984 7.67572 0.653685 5.8681 1.86741C4.06047 3.08114 2.6537 4.80401 1.82595 6.81782C0.998192 8.83164 0.786686 11.0458 1.21822 13.1799C1.64975 15.314 2.70491 17.2721 4.25006 18.8061L7.70906 22.0001H5.00006C4.73484 22.0001 4.48049 22.1054 4.29295 22.2929C4.10541 22.4805 4.00006 22.7348 4.00006 23.0001C4.00006 23.2653 4.10541 23.5196 4.29295 23.7072C4.48049 23.8947 4.73484 24.0001 5.00006 24.0001H19.0001C19.2653 24.0001 19.5196 23.8947 19.7072 23.7072C19.8947 23.5196 20.0001 23.2653 20.0001 23.0001C20.0001 22.7348 19.8947 22.4805 19.7072 22.2929C19.5196 22.1054 19.2653 22.0001 19.0001 22.0001ZM5.63606 4.63605C7.32018 2.94437 9.60735 1.99099 11.9944 1.98565C14.3815 1.9803 16.6729 2.92343 18.3646 4.60755C20.0562 6.29168 21.0096 8.57884 21.015 10.9659C21.0203 13.353 20.0772 15.6444 18.3931 17.3361L14.4081 21.0171C13.7531 21.6344 12.8862 21.9768 11.9862 21.9736C11.0861 21.9705 10.2217 21.622 9.57106 21.0001L5.63606 17.3641C3.95065 15.6749 3.00411 13.3862 3.00411 11.0001C3.00411 8.6139 3.95065 6.32518 5.63606 4.63605Z" fill="#374957"/>
</g>
<defs>
<clipPath id="clip0">
<rect width="24" height="24" fill="white"/>
</clipPath>
</defs>
</svg>
