<svg width="24" height="24" viewBox="0 0 24 24" fill="none" xmlns="http://www.w3.org/2000/svg">
<g clip-path="url(#clip0)">
<path d="M10.2072 0.0680416H10.2002C9.97614 0.017431 9.74153 0.0454714 9.53575 0.147451C9.32997 0.24943 9.16557 0.419133 9.07016 0.628042L0.375161 19.759C0.16754 20.216 0.0778811 20.7177 0.114396 21.2183C0.150911 21.7189 0.312432 22.2023 0.584167 22.6243C0.855903 23.0462 1.22917 23.3933 1.66978 23.6337C2.11039 23.874 2.60426 24 3.10616 24H10.0002C10.2654 24 10.5197 23.8947 10.7073 23.7071C10.8948 23.5196 11.0002 23.2653 11.0002 23V1.04604C10.9983 0.817318 10.9188 0.596015 10.7747 0.418349C10.6307 0.240683 10.4306 0.117177 10.2072 0.0680416ZM9.00016 22H3.10616C2.93876 22.0002 2.77401 21.9583 2.62701 21.8782C2.48001 21.7981 2.35546 21.6824 2.2648 21.5416C2.17414 21.4009 2.12025 21.2397 2.10808 21.0727C2.09592 20.9058 2.12586 20.7384 2.19516 20.586L9.00016 5.61604V22Z" fill="#374957"/>
<path d="M23.625 19.7589L14.93 0.627929C14.8301 0.417823 14.6614 0.248106 14.452 0.146829C14.2425 0.0455515 14.0047 0.0187765 13.778 0.0709293C13.557 0.12124 13.3597 0.245117 13.2183 0.422259C13.077 0.599401 13 0.819303 13 1.04593V22.9999C13 23.2651 13.1054 23.5195 13.2929 23.707C13.4804 23.8946 13.7348 23.9999 14 23.9999H20.894C21.3959 23.9999 21.8898 23.8739 22.3304 23.6336C22.771 23.3932 23.1443 23.0461 23.416 22.6242C23.6877 22.2022 23.8492 21.7188 23.8858 21.2182C23.9223 20.7176 23.8326 20.2159 23.625 19.7589Z" fill="#374957"/>
</g>
<defs>
<clipPath id="clip0">
<rect width="24" height="24" fill="white"/>
</clipPath>
</defs>
</svg>
