<svg width="24" height="24" viewBox="0 0 24 24" fill="none" xmlns="http://www.w3.org/2000/svg">
<path d="M17.9999 15.5C17.7347 15.4999 17.4804 15.3945 17.2929 15.207L12.7069 10.621C12.5168 10.4385 12.2635 10.3366 11.9999 10.3366C11.7364 10.3366 11.4831 10.4385 11.2929 10.621L6.70692 15.207C6.51832 15.3891 6.26571 15.4899 6.00352 15.4877C5.74132 15.4854 5.49051 15.3802 5.3051 15.1948C5.11969 15.0094 5.01452 14.7586 5.01224 14.4964C5.00997 14.2342 5.11076 13.9816 5.29292 13.793L9.87892 9.20699C10.4505 8.66152 11.2103 8.35718 12.0004 8.35718C12.7905 8.35718 13.5503 8.66152 14.1219 9.20699L18.7069 13.793C18.8467 13.9328 18.9419 14.111 18.9805 14.305C19.0191 14.4989 18.9993 14.6999 18.9236 14.8826C18.8479 15.0653 18.7198 15.2215 18.5554 15.3314C18.391 15.4413 18.1977 15.4999 17.9999 15.5Z" fill="#374957"/>
</svg>
