<svg width="24" height="24" viewBox="0 0 24 24" fill="none" xmlns="http://www.w3.org/2000/svg">
<path d="M22.1001 1.9001C18.6641 -1.5309 9.37211 -0.0669036 4.65211 4.6521C-0.0678849 9.3711 -1.53089 18.6641 1.90011 22.1001C3.5067 23.4495 5.57392 24.1234 7.66711 23.9801C12.0012 23.9418 16.1656 22.2904 19.3481 19.3481C24.0661 14.6291 25.5311 5.3361 22.1001 1.9001ZM16.3331 2.0001C17.8971 1.87475 19.4509 2.34398 20.6841 3.3141C21.7001 4.3311 22.1111 6.3001 21.9591 8.5451L15.4591 2.0451C15.7541 2.0261 16.0501 2.0001 16.3331 2.0001ZM3.31611 20.6841C2.30011 19.6691 1.88911 17.7001 2.04111 15.4551L8.54111 21.9551C6.30011 22.1101 4.33111 21.7001 3.31611 20.6841ZM17.9341 17.9341C15.9983 19.7581 13.6033 21.0221 11.0051 21.5911L2.40511 12.9911C2.97541 10.3937 4.24084 8.00005 6.06611 6.0661C8.00514 4.24268 10.4044 2.98218 13.0061 2.4201L21.5921 11.0061C21.0232 13.6043 19.7588 15.999 17.9341 17.9341ZM17.7071 11.7071C17.5196 11.8946 17.2653 11.9999 17.0001 11.9999C16.735 11.9999 16.4806 11.8946 16.2931 11.7071L15.0001 10.4141L13.4141 12.0001L14.7071 13.2931C14.8026 13.3853 14.8788 13.4957 14.9312 13.6177C14.9836 13.7397 15.0112 13.8709 15.0124 14.0037C15.0135 14.1365 14.9882 14.2682 14.9379 14.3911C14.8877 14.5139 14.8134 14.6256 14.7195 14.7195C14.6256 14.8134 14.514 14.8876 14.3911 14.9379C14.2682 14.9882 14.1365 15.0135 14.0037 15.0123C13.8709 15.0112 13.7397 14.9836 13.6177 14.9312C13.4957 14.8788 13.3854 14.8026 13.2931 14.7071L12.0001 13.4141L10.4141 15.0001L11.7071 16.2931C11.8026 16.3853 11.8788 16.4957 11.9312 16.6177C11.9836 16.7397 12.0112 16.8709 12.0124 17.0037C12.0135 17.1365 11.9882 17.2682 11.9379 17.391C11.8877 17.5139 11.8134 17.6256 11.7195 17.7195C11.6256 17.8134 11.514 17.8876 11.3911 17.9379C11.2682 17.9882 11.1365 18.0135 11.0037 18.0123C10.8709 18.0112 10.7397 17.9836 10.6177 17.9312C10.4957 17.8788 10.3854 17.8026 10.2931 17.7071L6.29312 13.7071C6.11096 13.5185 6.01016 13.2659 6.01244 13.0037C6.01472 12.7415 6.11989 12.4907 6.3053 12.3053C6.4907 12.1199 6.74152 12.0147 7.00371 12.0124C7.26591 12.0101 7.51851 12.1109 7.70711 12.2931L9.00011 13.5861L10.5861 12.0001L9.29311 10.7071C9.11096 10.5185 9.01016 10.2659 9.01244 10.0037C9.01472 9.7415 9.11989 9.49069 9.3053 9.30528C9.4907 9.11987 9.74152 9.0147 10.0037 9.01242C10.2659 9.01014 10.5185 9.11094 10.7071 9.2931L12.0001 10.5861L13.5861 9.0001L12.2931 7.7071C12.111 7.51849 12.0102 7.26589 12.0124 7.0037C12.0147 6.7415 12.1199 6.49069 12.3053 6.30528C12.4907 6.11987 12.7415 6.0147 13.0037 6.01242C13.2659 6.01014 13.5185 6.11094 13.7071 6.2931L17.7071 10.2931C17.8946 10.4806 17.9999 10.7349 17.9999 11.0001C17.9999 11.2653 17.8946 11.5196 17.7071 11.7071Z" fill="#374957"/>
</svg>
