<svg width="24" height="24" viewBox="0 0 24 24" fill="none" xmlns="http://www.w3.org/2000/svg">
<g clip-path="url(#clip0)">
<path d="M17 7.9999H7V6.9999C6.99969 5.8913 7.36782 4.81403 8.04652 3.93747C8.72521 3.0609 9.67597 2.43475 10.7493 2.15745C11.8227 1.88016 12.9578 1.96744 13.9761 2.40558C14.9944 2.84372 15.8383 3.60787 16.375 4.5779C16.4388 4.69274 16.5245 4.79389 16.6274 4.8756C16.7302 4.9573 16.8481 5.01794 16.9744 5.05406C17.1007 5.09018 17.2329 5.10108 17.3634 5.08612C17.4939 5.07117 17.6202 5.03065 17.735 4.9669C17.8498 4.90314 17.951 4.81739 18.0327 4.71454C18.1144 4.61168 18.175 4.49375 18.2112 4.36746C18.2473 4.24117 18.2582 4.10901 18.2432 3.97851C18.2283 3.84801 18.1878 3.72174 18.124 3.6069C17.3723 2.24921 16.1907 1.17981 14.765 0.566809C13.3393 -0.0461966 11.7504 -0.168054 10.2479 0.220391C8.74538 0.608837 7.41457 1.48556 6.46463 2.71275C5.51469 3.93993 4.99948 5.448 5 6.9999V8.42389C4.10936 8.8126 3.35129 9.45242 2.8185 10.2651C2.28571 11.0778 2.00128 12.0281 2 12.9999V18.9999C2.00159 20.3255 2.52888 21.5963 3.46622 22.5337C4.40356 23.471 5.67441 23.9983 7 23.9999H17C18.3256 23.9983 19.5964 23.471 20.5338 22.5337C21.4711 21.5963 21.9984 20.3255 22 18.9999V12.9999C21.9984 11.6743 21.4711 10.4035 20.5338 9.46611C19.5964 8.52878 18.3256 8.00148 17 7.9999ZM20 18.9999C20 19.7955 19.6839 20.5586 19.1213 21.1212C18.5587 21.6838 17.7956 21.9999 17 21.9999H7C6.20435 21.9999 5.44129 21.6838 4.87868 21.1212C4.31607 20.5586 4 19.7955 4 18.9999V12.9999C4 12.2042 4.31607 11.4412 4.87868 10.8786C5.44129 10.316 6.20435 9.9999 7 9.9999H17C17.7956 9.9999 18.5587 10.316 19.1213 10.8786C19.6839 11.4412 20 12.2042 20 12.9999V18.9999Z" fill="#374957"/>
<path d="M12 14C11.7348 14 11.4804 14.1054 11.2929 14.2929C11.1054 14.4804 11 14.7348 11 15V17C11 17.2652 11.1054 17.5196 11.2929 17.7071C11.4804 17.8946 11.7348 18 12 18C12.2652 18 12.5196 17.8946 12.7071 17.7071C12.8946 17.5196 13 17.2652 13 17V15C13 14.7348 12.8946 14.4804 12.7071 14.2929C12.5196 14.1054 12.2652 14 12 14Z" fill="#374957"/>
</g>
<defs>
<clipPath id="clip0">
<rect width="24" height="24" fill="white"/>
</clipPath>
</defs>
</svg>
