<svg width="24" height="24" viewBox="0 0 24 24" fill="none" xmlns="http://www.w3.org/2000/svg">
<path d="M6.29279 10.8791C6.48031 11.0666 6.73462 11.1719 6.99979 11.1719C7.26495 11.1719 7.51926 11.0666 7.70679 10.8791L10.9998 7.5871L11.0068 18.0001C11.0068 18.2653 11.1121 18.5197 11.2997 18.7072C11.4872 18.8947 11.7416 19.0001 12.0068 19.0001C12.272 19.0001 12.5264 18.8947 12.7139 18.7072C12.9014 18.5197 13.0068 18.2653 13.0068 18.0001L12.9998 7.5861L16.2928 10.8791C16.385 10.9746 16.4954 11.0508 16.6174 11.1032C16.7394 11.1556 16.8706 11.1832 17.0034 11.1844C17.1362 11.1855 17.2678 11.1602 17.3907 11.1099C17.5136 11.0596 17.6253 10.9854 17.7192 10.8915C17.8131 10.7976 17.8873 10.686 17.9376 10.5631C17.9879 10.4402 18.0132 10.3085 18.012 10.1757C18.0109 10.0429 17.9833 9.9117 17.9309 9.7897C17.8785 9.6677 17.8023 9.55735 17.7068 9.4651L14.1218 5.8791C13.8432 5.60047 13.5125 5.37945 13.1485 5.22865C12.7844 5.07786 12.3943 5.00024 12.0003 5.00024C11.6063 5.00024 11.2161 5.07786 10.8521 5.22865C10.4881 5.37945 10.1574 5.60047 9.87879 5.8791L6.29279 9.4651C6.10532 9.65263 6 9.90694 6 10.1721C6 10.4373 6.10532 10.6916 6.29279 10.8791Z" fill="#374957"/>
</svg>
