<svg width="24" height="24" viewBox="0 0 24 24" fill="none" xmlns="http://www.w3.org/2000/svg">
<g clip-path="url(#clip0)">
<path d="M18.581 2.14L12.316 0.0509967C12.1109 -0.0173244 11.8891 -0.0173244 11.684 0.0509967L5.418 2.14C4.42209 2.47105 3.55582 3.1075 2.94224 3.95894C2.32866 4.81038 1.99897 5.83351 2 6.883V12C2 19.563 11.2 23.74 11.594 23.914C11.7218 23.9708 11.8601 24.0001 12 24.0001C12.1399 24.0001 12.2782 23.9708 12.406 23.914C12.8 23.74 22 19.563 22 12V6.883C22.001 5.83338 21.6711 4.81016 21.0574 3.95871C20.4436 3.10725 19.5771 2.47088 18.581 2.14ZM20 12C20 17.455 13.681 21.033 12 21.889C10.317 21.036 4 17.469 4 12V6.883C3.99999 6.2534 4.19806 5.63975 4.56616 5.12897C4.93426 4.61819 5.45373 4.23616 6.051 4.037L12 2.054L17.948 4.037C18.5455 4.23599 19.0651 4.61794 19.4334 5.12874C19.8017 5.63954 19.9999 6.25327 20 6.883V12Z" fill="#374957"/>
</g>
<defs>
<clipPath id="clip0">
<rect width="24" height="24" fill="white"/>
</clipPath>
</defs>
</svg>
