<svg width="24" height="24" viewBox="0 0 24 24" fill="none" xmlns="http://www.w3.org/2000/svg">
<g clip-path="url(#clip0)">
<path d="M20.8594 15.331L17.0874 21.486C16.6732 22.166 16.1093 22.7425 15.4387 23.1717C14.7681 23.601 14.0084 23.8716 13.2174 23.963C13.009 23.9877 12.7993 24 12.5894 24C11.5149 23.9985 10.4671 23.6649 9.58943 23.045C8.68248 23.7244 7.56216 24.0566 6.43143 23.9812C5.30071 23.9058 4.23439 23.4279 3.42567 22.634C2.61696 21.8402 2.11934 20.7829 2.02298 19.6538C1.92663 18.5247 2.23791 17.3984 2.90043 16.479L1.58543 15.166C1.02392 14.6044 0.596741 13.9231 0.335877 13.1731C0.0750129 12.423 -0.0127744 11.6237 0.0790896 10.8349C0.170954 10.0461 0.440088 9.28836 0.866337 8.61834C1.29259 7.94833 1.8649 7.38343 2.54043 6.96596L8.30743 3.39996C9.86964 2.39874 11.7068 1.91331 13.5597 2.01217C15.4126 2.11103 17.1876 2.78919 18.6344 3.95096L20.2934 2.29196C20.3857 2.19645 20.496 2.12027 20.618 2.06786C20.74 2.01545 20.8712 1.98786 21.004 1.98671C21.1368 1.98556 21.2685 2.01086 21.3914 2.06114C21.5143 2.11142 21.6259 2.18567 21.7198 2.27956C21.8137 2.37346 21.888 2.48511 21.9382 2.60801C21.9885 2.7309 22.0138 2.86258 22.0127 2.99536C22.0115 3.12814 21.9839 3.25936 21.9315 3.38136C21.8791 3.50337 21.8029 3.61371 21.7074 3.70596L20.0504 5.36396C21.1618 6.7562 21.8324 8.44838 21.9765 10.224C22.1207 11.9995 21.7317 13.7777 20.8594 15.331ZM8.06542 21.647L4.34643 17.927C4.0558 18.4467 3.94371 19.0475 4.02734 19.6371C4.11098 20.2267 4.38572 20.7725 4.80943 21.191C5.23685 21.597 5.7805 21.8592 6.36432 21.941C6.94814 22.0227 7.54291 21.9199 8.06542 21.647ZM17.9864 6.04696C16.876 4.9258 15.4142 4.21998 13.8456 4.0476C12.2771 3.87522 10.6969 4.24672 9.36943 5.09996L3.59243 8.66596C3.17347 8.92493 2.81852 9.27532 2.55418 9.69091C2.28984 10.1065 2.12295 10.5765 2.066 11.0657C2.00905 11.555 2.06353 12.0507 2.22535 12.5159C2.38718 12.9811 2.65215 13.4037 3.00043 13.752L10.2904 21.043C10.6393 21.3922 11.0627 21.6578 11.529 21.8198C11.9953 21.9817 12.4922 22.0359 12.9824 21.9781C13.4727 21.9204 13.9434 21.7522 14.3593 21.4863C14.7751 21.2204 15.1253 20.8637 15.3834 20.443L19.1384 14.318C19.8718 13.0007 20.1561 11.4803 19.9483 9.98705C19.7404 8.49377 19.0517 7.10886 17.9864 6.04196V6.04696ZM19.2654 24C19.0542 24.0003 18.8484 23.9339 18.6773 23.81C18.5062 23.6862 18.3787 23.5114 18.3131 23.3107C18.2475 23.1099 18.2471 22.8936 18.312 22.6926C18.3769 22.4916 18.5038 22.3164 18.6744 22.192C20.4254 20.8755 21.6105 18.9426 21.9894 16.785C22.016 16.6551 22.0681 16.5318 22.1428 16.4222C22.2175 16.3127 22.3132 16.219 22.4243 16.1468C22.5355 16.0746 22.6599 16.0252 22.7904 16.0015C22.9208 15.9778 23.0547 15.9803 23.1842 16.0088C23.3136 16.0373 23.4362 16.0913 23.5446 16.1675C23.653 16.2438 23.7452 16.3409 23.8157 16.4532C23.8863 16.5654 23.9338 16.6906 23.9556 16.8213C23.9773 16.9521 23.9729 17.0859 23.9424 17.215C23.4524 19.8466 21.9938 22.199 19.8544 23.808C19.6834 23.9327 19.4771 23.9999 19.2654 24ZM1.00043 5.73896C0.815728 5.73814 0.634867 5.68618 0.477897 5.58884C0.320926 5.49151 0.193978 5.3526 0.11113 5.18753C0.0282815 5.02245 -0.00723057 4.83766 0.00853113 4.65363C0.0242928 4.46961 0.0907125 4.29354 0.200426 4.14496C1.83141 1.96555 4.23224 0.490282 6.91343 0.0199598C7.17334 -0.0330835 7.44368 0.0192954 7.66497 0.165574C7.88626 0.311852 8.04038 0.540048 8.09343 0.79996C8.14647 1.05987 8.09409 1.33021 7.94781 1.5515C7.80153 1.7728 7.57334 1.92692 7.31343 1.97996C5.1114 2.34358 3.13566 3.54559 1.80043 5.33396C1.7078 5.45908 1.58725 5.56084 1.44836 5.63115C1.30948 5.70146 1.15609 5.73838 1.00043 5.73896Z" fill="#374957"/>
</g>
<defs>
<clipPath id="clip0">
<rect width="24" height="24" fill="white"/>
</clipPath>
</defs>
</svg>
