<svg width="24" height="24" viewBox="0 0 24 24" fill="none" xmlns="http://www.w3.org/2000/svg">
<path d="M10.4819 18.9999C10.2167 18.9999 9.9624 18.8945 9.77491 18.7069L5.18891 14.1209C4.62649 13.5583 4.31055 12.7954 4.31055 11.9999C4.31055 11.2044 4.62649 10.4415 5.18891 9.87892L9.77491 5.29292C9.96351 5.11076 10.2161 5.00997 10.4783 5.01224C10.7405 5.01452 10.9913 5.11969 11.1767 5.3051C11.3621 5.49051 11.4673 5.74132 11.4696 6.00352C11.4719 6.26571 11.3711 6.51832 11.1889 6.70692L6.59991 11.2929C6.41243 11.4804 6.30712 11.7348 6.30712 11.9999C6.30712 12.2651 6.41243 12.5194 6.59991 12.7069L11.1849 17.2929C11.3245 17.4325 11.4196 17.6103 11.4583 17.8039C11.497 17.9975 11.4775 18.1982 11.4024 18.3807C11.3272 18.5633 11.1997 18.7195 11.0359 18.8297C10.8721 18.9398 10.6793 18.9991 10.4819 18.9999Z" fill="#374957"/>
<path d="M17.4822 19.0001C17.217 19 16.9627 18.8946 16.7752 18.7071L10.7752 12.7071C10.5877 12.5196 10.4824 12.2652 10.4824 12.0001C10.4824 11.7349 10.5877 11.4806 10.7752 11.2931L16.7752 5.29308C16.8675 5.19757 16.9778 5.12139 17.0998 5.06898C17.2218 5.01657 17.353 4.98898 17.4858 4.98783C17.6186 4.98668 17.7503 5.01198 17.8732 5.06226C17.9961 5.11254 18.1077 5.18679 18.2016 5.28069C18.2955 5.37458 18.3697 5.48623 18.42 5.60913C18.4703 5.73202 18.4956 5.8637 18.4945 5.99648C18.4933 6.12926 18.4657 6.26048 18.4133 6.38249C18.3609 6.50449 18.2847 6.61483 18.1892 6.70708L12.9002 12.0001L18.1932 17.2931C18.3333 17.4332 18.4286 17.6117 18.467 17.806C18.5054 18.0004 18.4853 18.2017 18.4091 18.3846C18.333 18.5675 18.2042 18.7236 18.0392 18.8332C17.8742 18.9427 17.6803 19.0008 17.4822 19.0001Z" fill="#374957"/>
</svg>
