<svg width="24" height="24" viewBox="0 0 24 24" fill="none" xmlns="http://www.w3.org/2000/svg">
<g clip-path="url(#clip0)">
<path d="M14.9568 10.3551C14.9573 10.5205 15.0234 10.6789 15.1406 10.7957C15.2577 10.9125 15.4164 10.9781 15.5818 10.9781C15.5818 10.9781 16.6538 10.9781 17.0678 10.9661C18.5998 10.9401 19.6998 9.60807 19.6998 7.80007C19.6998 5.90007 18.6198 4.62207 17.0138 4.62207H15.5708C15.4049 4.6226 15.2459 4.68889 15.1287 4.80642C15.0116 4.92395 14.9458 5.08313 14.9458 5.24907V10.2701C14.9485 10.2876 14.9522 10.305 14.9568 10.3221V10.3551ZM17.0178 5.87207C18.0768 5.87207 18.4538 6.87207 18.4538 7.80007C18.4538 8.72807 18.0198 9.70007 17.0488 9.71607C16.8488 9.71607 16.5108 9.72307 16.2048 9.72507L16.1998 5.87207H17.0178Z" fill="#374957"/>
<path d="M12.1219 7.25504C11.8489 7.16204 11.5659 7.11104 11.2869 7.03804C11.0655 6.99336 10.8603 6.88971 10.6929 6.73804C10.611 6.66041 10.5532 6.56089 10.5262 6.45134C10.4993 6.34178 10.5044 6.22679 10.5409 6.12004C10.5875 6.02767 10.6572 5.94893 10.7432 5.89146C10.8293 5.83399 10.9287 5.79974 11.0319 5.79204C11.2382 5.77919 11.4449 5.8095 11.6389 5.88104C11.918 5.96813 12.1917 6.0713 12.4589 6.19004C12.7529 6.31904 13.0999 6.39604 13.3369 6.11604C13.4223 6.01369 13.4716 5.88611 13.4774 5.75295C13.4832 5.61978 13.4451 5.48841 13.3689 5.37904C13.2654 5.22821 13.1254 5.10607 12.9619 5.02404C12.5995 4.81124 12.1984 4.67242 11.782 4.61561C11.3656 4.55879 10.9421 4.58511 10.5359 4.69304C10.1025 4.83018 9.73639 5.12495 9.50989 5.51904C9.40365 5.70599 9.33344 5.9112 9.30289 6.12404C9.24712 6.50688 9.33012 6.89705 9.53689 7.22404C9.77021 7.56566 10.1071 7.82331 10.4979 7.95904C10.9069 8.12704 11.3159 8.29004 11.7309 8.44204C11.9094 8.4987 12.0737 8.5928 12.2129 8.71804C12.2893 8.79102 12.3437 8.88394 12.3701 8.98626C12.3964 9.08859 12.3936 9.19624 12.3619 9.29704C12.3202 9.39436 12.2577 9.48134 12.1787 9.55184C12.0998 9.62234 12.0063 9.67464 11.9049 9.70504C11.5927 9.82242 11.2507 9.83471 10.9309 9.74004C10.6197 9.62742 10.3321 9.45786 10.0829 9.24004C10.0569 9.21904 9.97189 9.15504 9.95589 9.14004C9.84289 9.05925 9.70535 9.02017 9.56675 9.02947C9.42816 9.03877 9.29708 9.09588 9.19589 9.19104C9.13507 9.24619 9.08572 9.31278 9.05064 9.387C9.01556 9.46123 8.99546 9.54164 8.99146 9.62363C8.98747 9.70563 8.99967 9.78761 9.02737 9.8649C9.05506 9.94218 9.09772 10.0132 9.15289 10.074C9.44802 10.3874 9.80457 10.6366 10.2003 10.8061C10.596 10.9756 11.0224 11.0617 11.4529 11.059C11.9527 11.081 12.4443 10.927 12.8423 10.6239C13.2402 10.3208 13.5193 9.88769 13.6309 9.40004C13.6786 9.10061 13.6485 8.79394 13.5434 8.50952C13.4383 8.2251 13.2618 7.97251 13.0309 7.77604C12.7654 7.54392 12.4564 7.36682 12.1219 7.25504Z" fill="#374957"/>
<path d="M6.20509 4.54395H4.74009C4.6573 4.54408 4.57537 4.56073 4.49909 4.59295C4.42434 4.62462 4.35642 4.67046 4.29909 4.72795V4.73495C4.24424 4.79089 4.20047 4.85672 4.17009 4.92895C4.15008 4.98568 4.13797 5.04491 4.13409 5.10495C4.13409 5.12795 4.12109 5.14695 4.12109 5.16895V10.4309C4.12109 10.5967 4.18694 10.7557 4.30415 10.8729C4.42136 10.9901 4.58033 11.0559 4.74609 11.0559C4.91185 11.0559 5.07083 10.9901 5.18804 10.8729C5.30525 10.7557 5.37109 10.5967 5.37109 10.4309V8.76794H6.21109C6.7707 8.76794 7.30739 8.54564 7.70309 8.14994C8.09879 7.75424 8.32109 7.21755 8.32109 6.65795C8.32109 6.09834 8.09879 5.56165 7.70309 5.16595C7.30739 4.77025 6.7707 4.54795 6.21109 4.54795L6.20509 4.54395ZM6.20509 7.51395H5.37309L5.36709 5.79395H6.20509C6.43318 5.79395 6.65192 5.88455 6.81321 6.04583C6.97449 6.20711 7.06509 6.42586 7.06509 6.65394C7.06509 6.88203 6.97449 7.10078 6.81321 7.26206C6.65192 7.42334 6.43318 7.51395 6.20509 7.51395Z" fill="#374957"/>
<path d="M19 0H5C3.67441 0.00158786 2.40356 0.528882 1.46622 1.46622C0.528882 2.40356 0.00158786 3.67441 0 5L0 19C0.00158786 20.3256 0.528882 21.5964 1.46622 22.5338C2.40356 23.4711 3.67441 23.9984 5 24H16.343C16.9999 24.0019 17.6507 23.8735 18.2576 23.6222C18.8646 23.3709 19.4157 23.0017 19.879 22.536L22.535 19.878C23.0007 19.4149 23.37 18.864 23.6215 18.2572C23.873 17.6504 24.0016 16.9998 24 16.343V5C23.9984 3.67441 23.4711 2.40356 22.5338 1.46622C21.5964 0.528882 20.3256 0.00158786 19 0V0ZM2 19V5C2 4.20435 2.31607 3.44129 2.87868 2.87868C3.44129 2.31607 4.20435 2 5 2H19C19.7956 2 20.5587 2.31607 21.1213 2.87868C21.6839 3.44129 22 4.20435 22 5V15H18C17.2044 15 16.4413 15.3161 15.8787 15.8787C15.3161 16.4413 15 17.2044 15 18V22H5C4.20435 22 3.44129 21.6839 2.87868 21.1213C2.31607 20.5587 2 19.7956 2 19ZM18.465 21.122C18.063 21.523 17.5547 21.8006 17 21.922V18C17 17.7348 17.1054 17.4804 17.2929 17.2929C17.4804 17.1054 17.7348 17 18 17H21.925C21.8013 17.5535 21.524 18.0609 21.125 18.464L18.465 21.122Z" fill="#374957"/>
</g>
<defs>
<clipPath id="clip0">
<rect width="24" height="24" fill="white"/>
</clipPath>
</defs>
</svg>
