<svg width="24" height="24" viewBox="0 0 24 24" fill="none" xmlns="http://www.w3.org/2000/svg">
<g clip-path="url(#clip0)">
<path d="M22.9999 23.9999C22.7347 23.9999 22.4803 23.8945 22.2928 23.707C22.1053 23.5195 21.9999 23.2651 21.9999 22.9999C21.9983 21.4091 21.3657 19.8839 20.2408 18.759C19.1159 17.6341 17.5907 17.0015 15.9999 16.9999H10.1699V18.5859C10.1698 18.9814 10.0525 19.368 9.8327 19.6968C9.61293 20.0256 9.3006 20.2819 8.9352 20.4332C8.5698 20.5846 8.16774 20.6242 7.77983 20.547C7.39193 20.4699 7.0356 20.2795 6.75589 19.9999L0.876894 14.1209C0.314481 13.5583 -0.00146484 12.7954 -0.00146484 11.9999C-0.00146484 11.2044 0.314481 10.4415 0.876894 9.87888L6.75589 3.99988C7.0356 3.72026 7.39193 3.52985 7.77983 3.45271C8.16774 3.37558 8.5698 3.41518 8.9352 3.56652C9.3006 3.71786 9.61293 3.97414 9.8327 4.30296C10.0525 4.63178 10.1698 5.01838 10.1699 5.41388V6.99988H14.9999C17.386 7.00253 19.6737 7.95159 21.3609 9.63884C23.0482 11.3261 23.9972 13.6137 23.9999 15.9999V22.9999C23.9999 23.2651 23.8945 23.5195 23.707 23.707C23.5195 23.8945 23.2651 23.9999 22.9999 23.9999ZM8.16989 5.41388L2.29089 11.2929C2.10342 11.4804 1.99811 11.7347 1.99811 11.9999C1.99811 12.265 2.10342 12.5194 2.29089 12.7069L8.16989 18.5859V15.9999C8.16989 15.7347 8.27525 15.4803 8.46279 15.2928C8.65032 15.1052 8.90468 14.9999 9.16989 14.9999H15.9999C17.1355 14.9995 18.2581 15.2415 19.2927 15.7095C20.3274 16.1775 21.2503 16.8608 21.9999 17.7139V15.9999C21.9978 14.144 21.2596 12.3648 19.9473 11.0525C18.635 9.74018 16.8558 9.002 14.9999 8.99988H9.16989C8.90468 8.99988 8.65032 8.89452 8.46279 8.70699C8.27525 8.51945 8.16989 8.2651 8.16989 7.99988V5.41388Z" fill="#374957"/>
</g>
<defs>
<clipPath id="clip0">
<rect width="24" height="24" fill="white"/>
</clipPath>
</defs>
</svg>
