<svg width="24" height="24" viewBox="0 0 24 24" fill="none" xmlns="http://www.w3.org/2000/svg">
<g clip-path="url(#clip0)">
<path d="M3.787 20.656C2.78296 20.6554 1.82018 20.2564 1.11013 19.5465C0.400068 18.8367 0.000794959 17.874 1.34638e-07 16.87V7.12996C-0.000186396 6.43069 0.193447 5.74505 0.559399 5.14918C0.92535 4.55331 1.4493 4.07053 2.07306 3.75446C2.69682 3.43838 3.39598 3.30138 4.0929 3.35866C4.78982 3.41595 5.45722 3.66527 6.021 4.07896L9.8 6.85296C9.8494 6.17918 10.0783 5.53092 10.463 4.97554C10.8477 4.42016 11.3741 3.97794 11.9875 3.69481C12.6009 3.41169 13.2789 3.29799 13.9511 3.36555C14.6233 3.4331 15.2652 3.67944 15.81 4.07896L22.451 8.94896C22.9297 9.30048 23.3189 9.75975 23.5872 10.2896C23.8555 10.8195 23.9953 11.405 23.9953 11.999C23.9953 12.5929 23.8555 13.1784 23.5872 13.7083C23.3189 14.2382 22.9297 14.6974 22.451 15.049L15.81 19.919C15.2653 20.3184 14.6237 20.5648 13.9516 20.6324C13.2796 20.7001 12.6017 20.5865 11.9883 20.3036C11.375 20.0207 10.8485 19.5788 10.4637 19.0237C10.0789 18.4686 9.84973 17.8206 9.8 17.147L6.021 19.921C5.37359 20.3976 4.59093 20.6551 3.787 20.656ZM10.793 14.181C11.0582 14.181 11.3126 14.2863 11.5001 14.4739C11.6876 14.6614 11.793 14.9157 11.793 15.181V16.87C11.7933 17.1994 11.8847 17.5224 12.0573 17.803C12.2299 18.0837 12.4768 18.3111 12.7707 18.46C13.0645 18.6089 13.3939 18.6735 13.7223 18.6467C14.0507 18.6198 14.3652 18.5026 14.631 18.308L21.271 13.438C21.4969 13.2724 21.6806 13.0559 21.8072 12.806C21.9339 12.5562 21.9998 12.2801 21.9998 12C21.9998 11.7199 21.9339 11.4437 21.8072 11.1939C21.6806 10.944 21.4969 10.7276 21.271 10.562L14.631 5.69196C14.3652 5.49731 14.0507 5.38007 13.7223 5.35324C13.3939 5.32641 13.0645 5.39103 12.7707 5.53994C12.4768 5.68885 12.2299 5.91623 12.0573 6.19689C11.8847 6.47754 11.7933 6.8005 11.793 7.12996V8.81896C11.7929 9.00366 11.7416 9.18472 11.6449 9.34206C11.5481 9.4994 11.4097 9.62688 11.2449 9.71035C11.0802 9.79382 10.8955 9.83002 10.7114 9.81495C10.5273 9.79988 10.351 9.73412 10.202 9.62496L4.838 5.69196C4.57219 5.49731 4.25766 5.38007 3.9293 5.35324C3.60093 5.32641 3.27155 5.39103 2.97766 5.53994C2.68377 5.68885 2.43686 5.91623 2.26429 6.19689C2.09173 6.47754 2.00025 6.8005 2 7.12996V16.87C2.00025 17.1994 2.09173 17.5224 2.26429 17.803C2.43686 18.0837 2.68377 18.3111 2.97766 18.46C3.27155 18.6089 3.60093 18.6735 3.9293 18.6467C4.25766 18.6198 4.57219 18.5026 4.838 18.308L10.2 14.375C10.3719 14.2487 10.5797 14.1807 10.793 14.181Z" fill="#374957"/>
</g>
<defs>
<clipPath id="clip0">
<rect width="24" height="24" fill="white"/>
</clipPath>
</defs>
</svg>
