<svg width="24" height="24" viewBox="0 0 24 24" fill="none" xmlns="http://www.w3.org/2000/svg">
<g clip-path="url(#clip0)">
<path d="M10.9999 23.0001C10.9999 22.8023 11.0585 22.6089 11.1684 22.4445C11.2783 22.28 11.4345 22.1519 11.6172 22.0762C11.7999 22.0005 12.001 21.9807 12.195 22.0193C12.389 22.0579 12.5671 22.1531 12.707 22.293C12.8468 22.4328 12.9421 22.611 12.9807 22.805C13.0193 22.999 12.9995 23.2 12.9238 23.3827C12.8481 23.5655 12.7199 23.7216 12.5555 23.8315C12.391 23.9414 12.1977 24.0001 11.9999 24.0001C11.7347 24.0001 11.4803 23.8947 11.2928 23.7072C11.1052 23.5196 10.9999 23.2653 10.9999 23.0001ZM15.5349 20.8781C15.7224 20.6905 15.8277 20.4362 15.8277 20.1711C15.8277 19.9059 15.7224 19.6516 15.5349 19.4641C14.5973 18.5267 13.3257 18.0001 11.9999 18.0001C10.6741 18.0001 9.40253 18.5267 8.46489 19.4641C8.28273 19.6527 8.18194 19.9053 8.18422 20.1675C8.18649 20.4297 8.29166 20.6805 8.47707 20.8659C8.66248 21.0513 8.91329 21.1565 9.17549 21.1587C9.43769 21.161 9.69029 21.0602 9.87889 20.8781C10.4506 20.3331 11.2101 20.0291 11.9999 20.0291C12.7897 20.0291 13.5492 20.3331 14.1209 20.8781C14.3084 21.0655 14.5627 21.1708 14.8279 21.1708C15.0931 21.1708 15.3474 21.0655 15.5349 20.8781ZM18.3639 18.0501C18.5514 17.8625 18.6567 17.6082 18.6567 17.3431C18.6567 17.0779 18.5514 16.8236 18.3639 16.6361C16.6748 14.9507 14.386 14.0041 11.9999 14.0041C9.61373 14.0041 7.32502 14.9507 5.63589 16.6361C5.45373 16.8247 5.35294 17.0773 5.35522 17.3395C5.35749 17.6017 5.46266 17.8525 5.64807 18.0379C5.83348 18.2233 6.08429 18.3285 6.34649 18.3307C6.60868 18.333 6.86129 18.2322 7.04989 18.0501C8.36409 16.7398 10.1441 16.0041 11.9999 16.0041C13.8556 16.0041 15.6357 16.7398 16.9499 18.0501C17.1374 18.2375 17.3917 18.3428 17.6569 18.3428C17.9221 18.3428 18.1764 18.2375 18.3639 18.0501ZM5.98689 22.1611C6.00804 22.0314 6.00345 21.8989 5.97338 21.7711C5.94332 21.6432 5.88837 21.5226 5.81166 21.416C5.73496 21.3094 5.63801 21.2189 5.52635 21.1498C5.41469 21.0807 5.29051 21.0342 5.16089 21.0131C4.40525 20.8936 3.7031 20.5493 3.14589 20.0251C2.58868 19.5009 2.20224 18.821 2.03689 18.0741C1.92929 17.3598 2.04706 16.6298 2.3738 15.9856C2.70055 15.3414 3.22002 14.8152 3.85989 14.4801C4.32051 14.2273 4.66318 13.8034 4.81381 13.3001C4.96444 12.7967 4.91095 12.2543 4.66489 11.7901C4.27605 11.0495 4.04634 10.2359 3.9905 9.40133C3.93465 8.56678 4.05391 7.72978 4.34062 6.94404C4.62733 6.1583 5.07515 5.44118 5.65534 4.83872C6.23554 4.23626 6.93529 3.76176 7.70967 3.44567C8.48406 3.12959 9.31598 2.9789 10.152 3.00329C10.9881 3.02767 11.8098 3.22659 12.5645 3.58727C13.3191 3.94796 13.99 4.46244 14.5341 5.09769C15.0782 5.73295 15.4835 6.47495 15.7239 7.27606C15.8719 7.75877 16.1355 8.19802 16.4919 8.55564C16.8483 8.91326 17.2867 9.17842 17.7689 9.32806C19.0753 9.72575 20.2059 10.5591 20.9723 11.6893C21.7388 12.8195 22.0947 14.1782 21.9809 15.5391C21.8915 16.561 21.5273 17.5397 20.927 18.3715C20.3267 19.2033 19.5126 19.8572 18.5709 20.2641C18.3377 20.3816 18.1597 20.5858 18.0751 20.8328C17.9904 21.0799 18.0058 21.3502 18.1178 21.5861C18.2299 21.822 18.4298 22.0047 18.6748 22.0951C18.9198 22.1856 19.1904 22.1766 19.4289 22.0701C20.6917 21.5166 21.7812 20.6317 22.5817 19.5092C23.3823 18.3866 23.864 17.0683 23.9759 15.6941C24.1269 13.8797 23.6514 12.0685 22.6288 10.5623C21.6061 9.05609 20.098 7.94598 18.3559 7.41706C18.1843 7.36376 18.0286 7.26884 17.9027 7.14077C17.7767 7.01271 17.6844 6.85547 17.6339 6.68306C17.1045 4.98314 16.0232 3.5084 14.5611 2.49235C13.099 1.4763 11.3398 0.977009 9.56198 1.07354C7.78415 1.17007 6.08933 1.8569 4.74588 3.02528C3.40242 4.19366 2.48712 5.77682 2.14489 7.52406C1.7953 9.29195 2.07029 11.1264 2.92289 12.7141C1.9179 13.2395 1.10175 14.0653 0.588062 15.0764C0.0743713 16.0874 -0.111302 17.2335 0.0568892 18.3551C0.285373 19.5232 0.866154 20.5933 1.72109 21.4214C2.57602 22.2495 3.66409 22.7959 4.83889 22.9871C4.9685 23.0082 5.10102 23.0036 5.22886 22.9736C5.3567 22.9435 5.47737 22.8885 5.58397 22.8118C5.69057 22.7351 5.78102 22.6382 5.85016 22.5265C5.91929 22.4149 5.96575 22.2907 5.98689 22.1611Z" fill="#374957"/>
</g>
<defs>
<clipPath id="clip0">
<rect width="24" height="24" fill="white"/>
</clipPath>
</defs>
</svg>
