<svg width="24" height="24" viewBox="0 0 24 24" fill="none" xmlns="http://www.w3.org/2000/svg">
<g clip-path="url(#clip0)">
<path d="M12 15C11.7348 15 11.4804 14.8946 11.2929 14.7071C11.1054 14.5196 11 14.2652 11 14C11.0371 13.3466 11.2359 12.7126 11.5785 12.1549C11.9212 11.5973 12.3969 11.1334 12.963 10.805C13.3329 10.6023 13.629 10.2874 13.8087 9.90576C13.9884 9.5241 14.0424 9.09529 13.963 8.68099C13.886 8.28528 13.6925 7.92159 13.4075 7.63652C13.1224 7.35146 12.7587 7.15802 12.363 7.08099C12.0741 7.02768 11.7771 7.03865 11.4929 7.11313C11.2088 7.1876 10.9445 7.32376 10.7189 7.51192C10.4933 7.70008 10.312 7.93561 10.1877 8.20179C10.0635 8.46797 9.99938 8.75824 10 9.05199C10 9.31721 9.89465 9.57156 9.70711 9.7591C9.51957 9.94664 9.26522 10.052 9 10.052C8.73479 10.052 8.48043 9.94664 8.2929 9.7591C8.10536 9.57156 8 9.31721 8 9.05199C7.9999 8.46775 8.12779 7.89057 8.37467 7.36105C8.62155 6.83153 8.98143 6.36252 9.429 5.98699C9.85676 5.6294 10.3545 5.36517 10.8904 5.21128C11.4263 5.05738 11.9884 5.01721 12.5407 5.09334C13.0931 5.16947 13.6234 5.36022 14.0976 5.65335C14.5719 5.94649 14.9796 6.33553 15.2947 6.79551C15.6097 7.2555 15.8251 7.77627 15.9271 8.3244C16.029 8.87254 16.0153 9.43593 15.8867 9.97844C15.7581 10.5209 15.5175 11.0306 15.1804 11.4746C14.8432 11.9187 14.417 12.2874 13.929 12.557C13.6762 12.7128 13.4614 12.9233 13.3007 13.173C13.1399 13.4227 13.0372 13.7053 13 14C13 14.2652 12.8946 14.5196 12.7071 14.7071C12.5196 14.8946 12.2652 15 12 15ZM12.793 23.76C14.953 22.892 22 19.479 22 12.043V6.87199C22.0011 5.82101 21.6705 4.79647 21.0554 3.94431C20.4403 3.09215 19.5719 2.45583 18.574 2.12599L12.315 0.0509938C12.1107 -0.0179745 11.8893 -0.0179745 11.685 0.0509938L5.426 2.12599C4.42811 2.45583 3.55975 3.09215 2.9446 3.94431C2.32946 4.79647 1.99889 5.82101 2 6.87199V12.043C2 18.605 9.005 22.619 11.153 23.693C11.4127 23.8494 11.7004 23.9537 12 24C12.277 23.97 12.5459 23.8886 12.793 23.76ZM17.944 4.02399C18.5425 4.22241 19.0633 4.60437 19.4324 5.11563C19.8015 5.62688 20.0001 6.24144 20 6.87199V12.043C20 18.226 13.913 21.154 12.047 21.904C10.159 20.96 4 17.459 4 12.043V6.87199C3.99992 6.24144 4.19852 5.62688 4.56761 5.11563C4.93669 4.60437 5.45748 4.22241 6.056 4.02399L12 2.05399L17.944 4.02399ZM12 17C11.8022 17 11.6089 17.0586 11.4444 17.1685C11.28 17.2784 11.1518 17.4346 11.0761 17.6173C11.0004 17.8 10.9806 18.0011 11.0192 18.1951C11.0578 18.3891 11.153 18.5672 11.2929 18.7071C11.4327 18.847 11.6109 18.9422 11.8049 18.9808C11.9989 19.0194 12.2 18.9996 12.3827 18.9239C12.5654 18.8482 12.7216 18.72 12.8315 18.5556C12.9414 18.3911 13 18.1978 13 18C13 17.7348 12.8946 17.4804 12.7071 17.2929C12.5196 17.1054 12.2652 17 12 17Z" fill="#374957"/>
</g>
<defs>
<clipPath id="clip0">
<rect width="24" height="24" fill="white"/>
</clipPath>
</defs>
</svg>
