<svg width="24" height="24" viewBox="0 0 24 24" fill="none" xmlns="http://www.w3.org/2000/svg">
<path d="M10.4198 20.656C9.61614 20.6553 8.83376 20.3977 8.18679 19.921L1.54579 15.051C1.06708 14.6995 0.677838 14.2402 0.40955 13.7103C0.141263 13.1805 0.00146484 12.5949 0.00146484 12.001C0.00146484 11.4071 0.141263 10.8215 0.40955 10.2917C0.677838 9.76179 1.06708 9.30252 1.54579 8.951L8.18679 4.081C8.73146 3.68075 9.37343 3.43374 10.0459 3.36567C10.7184 3.2976 11.3968 3.41095 12.0107 3.69392C12.6245 3.9769 13.1513 4.41918 13.5363 4.97475C13.9213 5.53031 14.1504 6.17888 14.1998 6.853L17.9818 4.079C18.5457 3.66655 19.2127 3.41825 19.909 3.36161C20.6053 3.30498 21.3037 3.44221 21.9269 3.75812C22.55 4.07403 23.0735 4.55627 23.4393 5.15141C23.8052 5.74656 23.9992 6.43138 23.9998 7.13V16.87C23.9996 17.5691 23.8058 18.2545 23.4397 18.8502C23.0737 19.4458 22.5498 19.9284 21.9262 20.2444C21.3026 20.5604 20.6036 20.6975 19.9068 20.6404C19.21 20.5833 18.5427 20.3343 17.9788 19.921L14.1998 17.147C14.1289 18.1005 13.7003 18.9919 12.9998 19.6426C12.2994 20.2934 11.3789 20.6553 10.4228 20.656H10.4198ZM13.2068 14.181C13.4197 14.181 13.6271 14.2489 13.7988 14.375L19.1618 18.308C19.4276 18.5026 19.7421 18.6199 20.0705 18.6467C20.3989 18.6735 20.7282 18.6089 21.0221 18.46C21.316 18.3111 21.5629 18.0837 21.7355 17.8031C21.9081 17.5224 21.9995 17.1995 21.9998 16.87V7.13C21.9993 6.80052 21.9076 6.4776 21.735 6.19701C21.5623 5.91641 21.3153 5.68909 21.0214 5.54021C20.7274 5.39133 20.398 5.32671 20.0696 5.3535C19.7413 5.38029 19.4267 5.49745 19.1608 5.692L13.7998 9.625C13.6508 9.73444 13.4744 9.80044 13.2901 9.81566C13.1059 9.83089 12.921 9.79474 12.7561 9.71123C12.5912 9.62773 12.4526 9.50014 12.3558 9.34263C12.259 9.18512 12.2078 9.00387 12.2078 8.819V7.13C12.2077 6.80037 12.1162 6.47722 11.9436 6.1964C11.771 5.91558 11.524 5.68808 11.2299 5.53913C10.9358 5.39019 10.6063 5.32562 10.2777 5.35261C9.94922 5.37959 9.6346 5.49707 9.36879 5.692L2.72879 10.562C2.50289 10.7276 2.31919 10.9441 2.19256 11.1939C2.06593 11.4438 1.99994 11.7199 1.99994 12C1.99994 12.2801 2.06593 12.5562 2.19256 12.8061C2.31919 13.0559 2.50289 13.2724 2.72879 13.438L9.36879 18.308C9.6346 18.5026 9.94912 18.6199 10.2775 18.6467C10.6059 18.6735 10.9352 18.6089 11.2291 18.46C11.523 18.3111 11.7699 18.0837 11.9425 17.8031C12.1151 17.5224 12.2065 17.1995 12.2068 16.87V15.181C12.2068 14.9158 12.3121 14.6614 12.4997 14.4739C12.6872 14.2864 12.9416 14.181 13.2068 14.181Z" fill="#374957"/>
</svg>
