<svg width="24" height="24" viewBox="0 0 24 24" fill="none" xmlns="http://www.w3.org/2000/svg">
<g clip-path="url(#clip0)">
<path d="M20.466 1.96705L14.78 0.221055C13.5249 -0.161185 12.17 -0.0359522 11.0063 0.569855C9.84251 1.17566 8.96277 2.21372 8.556 3.46105L8.368 4.00005H5C3.67441 4.00164 2.40356 4.52894 1.46622 5.46627C0.528882 6.40361 0.00158786 7.67446 0 9.00005L0 19.0001C0.00158786 20.3257 0.528882 21.5965 1.46622 22.5338C2.40356 23.4712 3.67441 23.9985 5 24.0001H11C11.7575 23.9974 12.5044 23.8218 13.1838 23.4866C13.8631 23.1515 14.457 22.6656 14.92 22.0661C15.1482 22.0992 15.3784 22.1165 15.609 22.1181C16.6828 22.1189 17.7281 21.7723 18.5887 21.1302C19.4493 20.488 20.0791 19.5847 20.384 18.5551L23.8 8.15605C24.1649 6.89335 24.0202 5.5379 23.3968 4.38074C22.7735 3.22358 21.7212 2.357 20.466 1.96705ZM11 22.0001H5C4.20435 22.0001 3.44129 21.684 2.87868 21.1214C2.31607 20.5588 2 19.7957 2 19.0001V9.00005C2 8.2044 2.31607 7.44134 2.87868 6.87873C3.44129 6.31612 4.20435 6.00005 5 6.00005H11C11.7956 6.00005 12.5587 6.31612 13.1213 6.87873C13.6839 7.44134 14 8.2044 14 9.00005V19.0001C14 19.7957 13.6839 20.5588 13.1213 21.1214C12.5587 21.684 11.7956 22.0001 11 22.0001ZM21.887 7.56305L18.475 17.9631C18.3054 18.5384 17.9669 19.0495 17.5033 19.43C17.0396 19.8105 16.4723 20.0429 15.875 20.0971C15.9571 19.7371 15.999 19.3692 16 19.0001V9.00005C15.9984 7.67446 15.4711 6.40361 14.5338 5.46627C13.5964 4.52894 12.3256 4.00164 11 4.00005H10.493C10.7511 3.27263 11.2797 2.67269 11.9688 2.32497C12.6579 1.97725 13.4545 1.90851 14.193 2.13305L19.879 3.87905C20.6279 4.11015 21.2569 4.62461 21.632 5.31278C22.0071 6.00095 22.0986 6.80841 21.887 7.56305ZM12 13.0001C12 14.4501 10.456 16.3911 9.286 17.3781C8.92652 17.6822 8.47088 17.8491 8 17.8491C7.52912 17.8491 7.07348 17.6822 6.714 17.3781C5.544 16.3911 4 14.4501 4 13.0001C4 12.4696 4.21071 11.9609 4.58579 11.5858C4.96086 11.2108 5.46957 11.0001 6 11.0001C6.53043 11.0001 7.03914 11.2108 7.41421 11.5858C7.78929 11.9609 8 12.4696 8 13.0001C8 12.4696 8.21071 11.9609 8.58579 11.5858C8.96086 11.2108 9.46957 11.0001 10 11.0001C10.5304 11.0001 11.0391 11.2108 11.4142 11.5858C11.7893 11.9609 12 12.4696 12 13.0001Z" fill="#374957"/>
</g>
<defs>
<clipPath id="clip0">
<rect width="24" height="24" fill="white"/>
</clipPath>
</defs>
</svg>
