<svg width="24" height="24" viewBox="0 0 24 24" fill="none" xmlns="http://www.w3.org/2000/svg">
<g clip-path="url(#clip0)">
<path d="M20.9999 18C20.2242 18.0009 19.4793 18.3036 18.9229 18.844L15.9629 17.363C15.9828 17.2429 15.9952 17.1217 15.9999 17C15.9952 16.8784 15.9828 16.7571 15.9629 16.637L18.9229 15.156C19.4213 15.6334 20.0694 15.924 20.7574 15.9785C21.4454 16.033 22.1311 15.8482 22.6985 15.4552C23.2659 15.0622 23.6801 14.4853 23.871 13.8221C24.062 13.1588 24.0179 12.45 23.7463 11.8155C23.4746 11.1811 22.9921 10.6599 22.3804 10.3403C21.7687 10.0206 21.0654 9.92216 20.3894 10.0615C19.7135 10.2008 19.1064 10.5694 18.671 11.1049C18.2355 11.6404 17.9985 12.3099 17.9999 13C18.0046 13.1217 18.0169 13.2429 18.0369 13.363L15.0769 14.844C14.6535 14.4344 14.1189 14.1584 13.5397 14.0507C12.9605 13.9429 12.3624 14.008 11.82 14.2379C11.2776 14.4679 10.8148 14.8524 10.4896 15.3436C10.1643 15.8348 9.99082 16.4109 9.99082 17C9.99082 17.5892 10.1643 18.1653 10.4896 18.6564C10.8148 19.1476 11.2776 19.5322 11.82 19.7621C12.3624 19.992 12.9605 20.0572 13.5397 19.9494C14.1189 19.8416 14.6535 19.5657 15.0769 19.156L18.0369 20.637C18.0169 20.7571 18.0046 20.8784 17.9999 21C17.9999 21.5934 18.1758 22.1734 18.5055 22.6667C18.8351 23.1601 19.3037 23.5446 19.8518 23.7717C20.4 23.9987 21.0032 24.0581 21.5852 23.9424C22.1671 23.8266 22.7016 23.5409 23.1212 23.1214C23.5408 22.7018 23.8265 22.1672 23.9422 21.5853C24.058 21.0034 23.9986 20.4002 23.7715 19.852C23.5445 19.3038 23.1599 18.8353 22.6666 18.5056C22.1732 18.176 21.5932 18 20.9999 18ZM20.9999 12C21.1977 12 21.391 12.0587 21.5555 12.1686C21.7199 12.2784 21.8481 12.4346 21.9238 12.6173C21.9995 12.8001 22.0193 13.0011 21.9807 13.1951C21.9421 13.3891 21.8468 13.5673 21.707 13.7071C21.5671 13.847 21.389 13.9422 21.195 13.9808C21.001 14.0194 20.7999 13.9996 20.6172 13.9239C20.4345 13.8482 20.2783 13.72 20.1684 13.5556C20.0585 13.3912 19.9999 13.1978 19.9999 13C19.9999 12.7348 20.1052 12.4805 20.2928 12.2929C20.4803 12.1054 20.7347 12 20.9999 12ZM12.9999 18C12.8021 18 12.6088 17.9414 12.4443 17.8315C12.2799 17.7216 12.1517 17.5654 12.076 17.3827C12.0003 17.2 11.9805 16.9989 12.0191 16.8049C12.0577 16.611 12.1529 16.4328 12.2928 16.2929C12.4326 16.1531 12.6108 16.0578 12.8048 16.0192C12.9988 15.9807 13.1998 16.0005 13.3826 16.0761C13.5653 16.1518 13.7215 16.28 13.8314 16.4445C13.9412 16.6089 13.9999 16.8022 13.9999 17C13.9999 17.2652 13.8945 17.5196 13.707 17.7071C13.5195 17.8947 13.2651 18 12.9999 18ZM20.9999 22C20.8021 22 20.6088 21.9414 20.4443 21.8315C20.2799 21.7216 20.1517 21.5654 20.076 21.3827C20.0003 21.2 19.9805 20.9989 20.0191 20.8049C20.0577 20.611 20.1529 20.4328 20.2928 20.2929C20.4326 20.1531 20.6108 20.0578 20.8048 20.0192C20.9988 19.9807 21.1998 20.0005 21.3826 20.0762C21.5653 20.1518 21.7215 20.28 21.8314 20.4445C21.9412 20.6089 21.9999 20.8022 21.9999 21C21.9999 21.2652 21.8945 21.5196 21.707 21.7071C21.5195 21.8947 21.2651 22 20.9999 22ZM11.9999 22C11.9999 22.2652 11.8945 22.5196 11.707 22.7071C11.5195 22.8947 11.2651 23 10.9999 23H5.67888C4.34616 22.9757 3.06184 22.4962 2.03918 21.6413C1.01652 20.7864 0.317045 19.6073 0.056884 18.3C-0.113407 17.1747 0.0733301 16.0243 0.590832 15.0107C1.10833 13.997 1.93057 13.1711 2.94188 12.649C2.07373 11.0704 1.79044 9.23603 2.14188 7.46903C2.48361 5.72131 3.3987 4.13757 4.7422 2.96869C6.0857 1.79981 7.78081 1.11261 9.55899 1.01595C11.3372 0.91929 13.0968 1.4187 14.5591 2.43507C16.0214 3.45144 17.1027 4.92665 17.6319 6.62703C17.6823 6.79958 17.7746 6.95698 17.9006 7.08522C18.0265 7.21346 18.1823 7.30855 18.3539 7.36203C18.4823 7.39816 18.6021 7.45959 18.7064 7.54273C18.8106 7.62586 18.8972 7.72901 18.961 7.8461C19.0249 7.9632 19.0646 8.09188 19.078 8.22456C19.0913 8.35725 19.078 8.49126 19.0388 8.61872C18.9995 8.74618 18.9352 8.86451 18.8496 8.96674C18.764 9.06897 18.6588 9.15304 18.5402 9.21401C18.4215 9.27498 18.292 9.31161 18.159 9.32174C18.026 9.33188 17.8924 9.31532 17.7659 9.27303C17.2838 9.12315 16.8455 8.85778 16.4893 8.49999C16.1331 8.14219 15.8696 7.70281 15.7219 7.22003C15.4812 6.41924 15.0759 5.67758 14.5318 5.04265C13.9877 4.40771 13.3169 3.89351 12.5624 3.53303C11.8079 3.17254 10.9864 2.97374 10.1506 2.94937C9.31479 2.925 8.48311 3.0756 7.70891 3.39151C6.93471 3.70742 6.23509 4.18166 5.65493 4.78382C5.07476 5.38598 4.62687 6.10275 4.33997 6.88816C4.05307 7.67358 3.9335 8.51028 3.98894 9.34461C4.04438 10.1789 4.27359 10.9925 4.66188 11.733C4.90932 12.195 4.96494 12.7358 4.81673 13.2385C4.66851 13.7411 4.32837 14.1652 3.86988 14.419C3.22621 14.7521 2.70305 15.2785 2.37392 15.9242C2.04479 16.5699 1.92623 17.3025 2.03488 18.019C2.21999 18.8526 2.67994 19.5997 3.34083 20.1404C4.00172 20.681 4.82518 20.9838 5.67888 21H10.9999C11.2651 21 11.5195 21.1054 11.707 21.2929C11.8945 21.4805 11.9999 21.7348 11.9999 22Z" fill="#374957"/>
</g>
<defs>
<clipPath id="clip0">
<rect width="24" height="24" fill="white"/>
</clipPath>
</defs>
</svg>
