<svg width="24" height="24" viewBox="0 0 24 24" fill="none" xmlns="http://www.w3.org/2000/svg">
<g clip-path="url(#clip0)">
<path d="M21 7.99996H17C16.2044 7.99996 15.4413 8.31604 14.8787 8.87864C14.3161 9.44125 14 10.2043 14 11V16H12V12C11.9994 10.9265 11.7108 9.87286 11.1643 8.94891C10.6178 8.02497 9.83344 7.26455 8.893 6.74696C9.43391 6.18047 9.7966 5.46764 9.93607 4.6969C10.0755 3.92616 9.98567 3.13143 9.67759 2.41131C9.36952 1.69118 8.8568 1.07735 8.20304 0.645963C7.54928 0.214576 6.78326 -0.0153809 6 -0.0153809C5.21674 -0.0153809 4.45072 0.214576 3.79696 0.645963C3.1432 1.07735 2.63048 1.69118 2.32241 2.41131C2.01433 3.13143 1.92445 3.92616 2.06393 4.6969C2.2034 5.46764 2.56609 6.18047 3.107 6.74696C2.16656 7.26455 1.3822 8.02497 0.835712 8.94891C0.289224 9.87286 0.000622181 10.9265 0 12L0 23C0 23.2652 0.105357 23.5195 0.292893 23.7071C0.48043 23.8946 0.734784 24 1 24C1.26522 24 1.51957 23.8946 1.70711 23.7071C1.89464 23.5195 2 23.2652 2 23V18H22V23C22 23.2652 22.1054 23.5195 22.2929 23.7071C22.4804 23.8946 22.7348 24 23 24C23.2652 24 23.5196 23.8946 23.7071 23.7071C23.8946 23.5195 24 23.2652 24 23V11C24 10.2043 23.6839 9.44125 23.1213 8.87864C22.5587 8.31604 21.7956 7.99996 21 7.99996ZM4 3.99996C4 3.6044 4.1173 3.21772 4.33706 2.88882C4.55682 2.55993 4.86918 2.30358 5.23463 2.15221C5.60009 2.00083 6.00222 1.96122 6.39018 2.03839C6.77814 2.11556 7.13451 2.30605 7.41421 2.58575C7.69392 2.86546 7.8844 3.22182 7.96157 3.60978C8.03874 3.99775 7.99913 4.39988 7.84776 4.76533C7.69638 5.13078 7.44004 5.44314 7.11114 5.6629C6.78224 5.88267 6.39556 5.99996 6 5.99996C5.46957 5.99996 4.96086 5.78925 4.58579 5.41418C4.21071 5.0391 4 4.5304 4 3.99996ZM6 7.99996C7.06087 7.99996 8.07828 8.42139 8.82843 9.17154C9.57857 9.92168 10 10.9391 10 12V16H2V12C2 10.9391 2.42143 9.92168 3.17157 9.17154C3.92172 8.42139 4.93913 7.99996 6 7.99996ZM16 16V11C16 10.7347 16.1054 10.4804 16.2929 10.2929C16.4804 10.1053 16.7348 9.99996 17 9.99996H18V11C18 11.2652 18.1054 11.5195 18.2929 11.7071C18.4804 11.8946 18.7348 12 19 12C19.2652 12 19.5196 11.8946 19.7071 11.7071C19.8946 11.5195 20 11.2652 20 11V9.99996H21C21.2652 9.99996 21.5196 10.1053 21.7071 10.2929C21.8946 10.4804 22 10.7347 22 11V16H16Z" fill="#374957"/>
</g>
<defs>
<clipPath id="clip0">
<rect width="24" height="24" fill="white"/>
</clipPath>
</defs>
</svg>
