<svg width="24" height="24" viewBox="0 0 24 24" fill="none" xmlns="http://www.w3.org/2000/svg">
<g clip-path="url(#clip0)">
<path d="M20.8072 4.28988C20.7143 4.19697 20.604 4.12327 20.4826 4.07299C20.3612 4.02271 20.2311 3.99683 20.0997 3.99683C19.9683 3.99683 19.8382 4.02271 19.7168 4.07299C19.5954 4.12327 19.4851 4.19697 19.3922 4.28988C19.2993 4.38279 19.2256 4.49309 19.1753 4.61449C19.125 4.73588 19.0991 4.86599 19.0991 4.99738C19.0991 5.12878 19.125 5.25889 19.1753 5.38028C19.2256 5.50167 19.2993 5.61197 19.3922 5.70488C21.0591 7.37579 21.9953 9.63965 21.9953 11.9999C21.9953 14.3601 21.0591 16.624 19.3922 18.2949C19.2045 18.4825 19.0991 18.737 19.0991 19.0024C19.0991 19.2677 19.2045 19.5222 19.3922 19.7099C19.5798 19.8975 19.8343 20.0029 20.0997 20.0029C20.365 20.0029 20.6195 19.8975 20.8072 19.7099C22.849 17.6635 23.9956 14.8907 23.9956 11.9999C23.9956 9.10908 22.849 6.33631 20.8072 4.28988Z" fill="#374957"/>
<path d="M18.1 7.29092C18.0071 7.19768 17.8967 7.12366 17.7752 7.07307C17.6537 7.02248 17.5234 6.99633 17.3918 6.9961C17.2602 6.99586 17.1298 7.02156 17.0081 7.07172C16.8864 7.12187 16.7758 7.19551 16.6825 7.28842C16.5893 7.38133 16.5153 7.49169 16.4647 7.61321C16.4141 7.73473 16.3879 7.86502 16.3877 7.99665C16.3875 8.12828 16.4132 8.25866 16.4633 8.38036C16.5135 8.50206 16.5871 8.61268 16.68 8.70592C17.5528 9.58001 18.043 10.7647 18.043 11.9999C18.043 13.2351 17.5528 14.4198 16.68 15.2939C16.5871 15.3872 16.5135 15.4978 16.4633 15.6195C16.4132 15.7412 16.3875 15.8716 16.3877 16.0032C16.3879 16.1348 16.4141 16.2651 16.4647 16.3866C16.5153 16.5081 16.5893 16.6185 16.6825 16.7114C16.8708 16.8991 17.126 17.0042 17.3918 17.0037C17.5234 17.0035 17.6537 16.9774 17.7752 16.9268C17.8967 16.8762 18.0071 16.8022 18.1 16.7089C19.3473 15.4592 20.0479 13.7656 20.0479 11.9999C20.0479 10.2342 19.3473 8.54066 18.1 7.29092Z" fill="#374957"/>
<path d="M13.82 0.200111C10.7793 0.771379 8.07468 2.48996 6.266 5.00011H5C3.67457 5.00223 2.40403 5.52969 1.4668 6.46691C0.529579 7.40414 0.00211562 8.67468 0 10.0001L0 14.0001C0.00211562 15.3255 0.529579 16.5961 1.4668 17.5333C2.40403 18.4705 3.67457 18.998 5 19.0001H6.266C8.07504 21.5099 10.7795 23.2284 13.82 23.8001C13.8796 23.8118 13.9403 23.8175 14.001 23.8171C14.2662 23.8171 14.5206 23.7118 14.7081 23.5242C14.8956 23.3367 15.001 23.0823 15.001 22.8171V1.18611C15.0014 1.03925 14.9694 0.894101 14.9073 0.760993C14.8453 0.627886 14.7546 0.510084 14.6419 0.415959C14.5292 0.321834 14.3971 0.253698 14.255 0.216392C14.113 0.179087 13.9644 0.173528 13.82 0.200111ZM13 21.5351C10.7944 20.832 8.89788 19.3914 7.629 17.4551C7.53834 17.3156 7.41432 17.201 7.26816 17.1215C7.12201 17.0421 6.95835 17.0003 6.792 17.0001H5C4.20435 17.0001 3.44129 16.684 2.87868 16.1214C2.31607 15.5588 2 14.7958 2 14.0001V10.0001C2 9.20446 2.31607 8.4414 2.87868 7.87879C3.44129 7.31618 4.20435 7.00011 5 7.00011H6.8C6.96617 7.00009 7.12971 6.95866 7.27585 6.87957C7.42198 6.80048 7.54611 6.68621 7.637 6.54711C8.90329 4.61135 10.7969 3.17006 13 2.46511V21.5351Z" fill="#374957"/>
</g>
<defs>
<clipPath id="clip0">
<rect width="24" height="24" fill="white"/>
</clipPath>
</defs>
</svg>
