<svg width="24" height="24" viewBox="0 0 24 24" fill="none" xmlns="http://www.w3.org/2000/svg">
<path d="M6.99979 23.9999C6.80204 23.9999 6.60874 23.9412 6.44433 23.8313C6.27992 23.7214 6.15178 23.5653 6.07611 23.3826C6.00044 23.1999 5.98064 22.9988 6.0192 22.8049C6.05777 22.6109 6.15298 22.4328 6.29279 22.2929L14.4648 14.1209C15.0272 13.5583 15.3431 12.7954 15.3431 11.9999C15.3431 11.2044 15.0272 10.4415 14.4648 9.87892L6.29279 1.70692C6.11063 1.51832 6.00983 1.26571 6.01211 1.00352C6.01439 0.741321 6.11956 0.490508 6.30497 0.3051C6.49038 0.119692 6.74119 0.0145233 7.00339 0.0122448C7.26558 0.00996641 7.51818 0.110761 7.70679 0.292919L15.8788 8.46492C16.8149 9.40321 17.3407 10.6745 17.3407 11.9999C17.3407 13.3253 16.8149 14.5966 15.8788 15.5349L7.70679 23.7069C7.51929 23.8945 7.26498 23.9999 6.99979 23.9999Z" fill="#374957"/>
</svg>
