<svg width="24" height="24" viewBox="0 0 24 24" fill="none" xmlns="http://www.w3.org/2000/svg">
<g clip-path="url(#clip0)">
<path d="M11.8282 24.0001C11.6305 24 11.4372 23.9414 11.2727 23.8315C11.1083 23.7216 10.9802 23.5654 10.9045 23.3827C10.8289 23.2 10.8091 22.999 10.8476 22.805C10.8862 22.6111 10.9814 22.4329 11.1212 22.2931L19.2932 14.1211C19.8556 13.5585 20.1716 12.7956 20.1716 12.0001C20.1716 11.2046 19.8556 10.4417 19.2932 9.87908L11.1212 1.70708C11.0257 1.61483 10.9495 1.50449 10.8971 1.38249C10.8447 1.26048 10.8171 1.12926 10.816 0.996482C10.8148 0.863703 10.8401 0.732023 10.8904 0.609127C10.9407 0.486231 11.0149 0.374579 11.1088 0.280686C11.2027 0.186794 11.3144 0.11254 11.4373 0.0622595C11.5601 0.0119786 11.6918 -0.0133231 11.8246 -0.0121693C11.9574 -0.0110155 12.0886 0.0165708 12.2106 0.0689798C12.3326 0.121389 12.443 0.197571 12.5352 0.293081L20.7072 8.46508C21.6446 9.40272 22.1711 10.6743 22.1711 12.0001C22.1711 13.3259 21.6446 14.5974 20.7072 15.5351L12.5352 23.7071C12.3477 23.8946 12.0934 24 11.8282 24.0001Z" fill="#374957"/>
<path d="M1.82791 23.9999C1.63016 23.9999 1.43686 23.9412 1.27245 23.8313C1.10804 23.7214 0.979904 23.5653 0.904234 23.3826C0.828564 23.1999 0.808761 22.9988 0.847328 22.8049C0.885896 22.6109 0.981103 22.4328 1.12091 22.2929L10.7069 12.7069C10.8944 12.5194 10.9997 12.2651 10.9997 11.9999C10.9997 11.7348 10.8944 11.4804 10.7069 11.2929L1.12091 1.70692C0.938754 1.51832 0.837959 1.26571 0.840238 1.00352C0.842516 0.741321 0.947685 0.490508 1.13309 0.3051C1.3185 0.119692 1.56931 0.0145233 1.83151 0.0122448C2.09371 0.00996641 2.34631 0.110761 2.53491 0.292919L12.1209 9.87892C12.6833 10.4415 12.9993 11.2044 12.9993 11.9999C12.9993 12.7954 12.6833 13.5583 12.1209 14.1209L2.53491 23.7069C2.34742 23.8945 2.09311 23.9999 1.82791 23.9999Z" fill="#374957"/>
</g>
<defs>
<clipPath id="clip0">
<rect width="24" height="24" fill="white"/>
</clipPath>
</defs>
</svg>
