<svg width="24" height="24" viewBox="0 0 24 24" fill="none" xmlns="http://www.w3.org/2000/svg">
<path d="M17.7918 7.21196C17.3475 5.30124 16.2165 3.62041 14.614 2.48895C13.0114 1.35748 11.049 0.854279 9.09978 1.07498C7.15052 1.29568 5.3503 2.22489 4.0413 3.686C2.7323 5.14712 2.00578 7.03826 1.99984 8.99996C1.99898 10.2784 2.30778 11.5379 2.89984 12.671C1.82097 13.2491 0.966238 14.1712 0.471458 15.2908C-0.0233229 16.4103 -0.129776 17.6631 0.16901 18.8501C0.467797 20.0371 1.15469 21.0902 2.12054 21.8421C3.0864 22.594 4.27582 23.0015 5.49984 23H15.9998C17.9589 22.9909 19.8466 22.2632 21.3049 20.955C22.7632 19.6468 23.6907 17.8489 23.9117 15.9023C24.1326 13.9557 23.6316 11.9957 22.5036 10.3939C21.3756 8.79209 19.6991 7.65989 17.7918 7.21196ZM15.9998 21H5.49984C4.64826 21.0025 3.82512 20.6937 3.18536 20.1317C2.54559 19.5696 2.13332 18.7931 2.02615 17.9483C1.91899 17.1035 2.12431 16.2486 2.60347 15.5447C3.08264 14.8407 3.8026 14.3361 4.62784 14.126C4.78639 14.085 4.93246 14.0058 5.05323 13.8952C5.17399 13.7847 5.26576 13.6461 5.32046 13.4918C5.37516 13.3374 5.39113 13.172 5.36696 13.0101C5.34279 12.8481 5.27922 12.6946 5.18184 12.563C4.41311 11.5343 3.9984 10.2842 3.99984 8.99996C4.01125 7.48595 4.59462 6.03222 5.63298 4.93032C6.67133 3.82841 8.08789 3.15981 9.59856 3.05859C11.1092 2.95738 12.6023 3.43103 13.7784 4.38456C14.9545 5.33809 15.7266 6.701 15.9398 8.19996C15.9686 8.41762 16.0682 8.61975 16.2233 8.77518C16.3783 8.9306 16.5803 9.03068 16.7978 9.05996C18.2967 9.2732 19.6595 10.0451 20.613 11.221C21.5665 12.3969 22.0403 13.8897 21.9394 15.4003C21.8384 16.9108 21.1702 18.3273 20.0686 19.3658C18.9671 20.4044 17.5137 20.9881 15.9998 21Z" fill="#374957"/>
</svg>
