<svg width="24" height="24" viewBox="0 0 24 24" fill="none" xmlns="http://www.w3.org/2000/svg">
<g clip-path="url(#clip0)">
<path d="M15.563 14.2721L16.294 12.0191C16.4584 11.5171 16.4591 10.9759 16.2959 10.4735C16.1327 9.97111 15.814 9.53359 15.386 9.22408L13.469 7.83208C13.0425 7.52065 12.5281 7.35282 12 7.35282C11.4719 7.35282 10.9575 7.52065 10.531 7.83208L8.614 9.22408C8.18507 9.534 7.86588 9.97238 7.70264 10.4758C7.53941 10.9791 7.54058 11.5214 7.706 12.0241L8.438 14.2771C8.60107 14.7787 8.91902 15.2158 9.34612 15.5254C9.77322 15.835 10.2875 16.0012 10.815 16.0001H13.185C13.7131 16.0001 14.2276 15.8329 14.6548 15.5225C15.082 15.2121 15.3999 14.7743 15.563 14.2721ZM10.34 13.6541L9.608 11.4001C9.57518 11.2995 9.57512 11.1911 9.60782 11.0904C9.64053 10.9898 9.70431 10.9022 9.79 10.8401L11.706 9.45008C11.7914 9.38796 11.8944 9.35451 12 9.35451C12.1056 9.35451 12.2086 9.38796 12.294 9.45008L14.211 10.8421C14.2963 10.9042 14.3598 10.9918 14.3923 11.0922C14.4248 11.1926 14.4247 11.3007 14.392 11.4011L13.661 13.6541C13.6284 13.7547 13.5648 13.8424 13.4793 13.9045C13.3938 13.9667 13.2907 14.0001 13.185 14.0001H10.815C10.7094 13.9999 10.6066 13.9664 10.5213 13.9042C10.436 13.8421 10.3725 13.7545 10.34 13.6541ZM23.9 13.5051C24.1449 11.6868 23.9631 9.83653 23.3687 8.10079C22.7744 6.36505 21.784 4.79158 20.476 3.50508L20.455 3.50008C18.2099 1.26044 15.1682 0.00268555 11.997 0.00268555C8.82582 0.00268555 5.78409 1.26044 3.539 3.50008C2.41696 4.61294 1.52651 5.93707 0.919078 7.396C0.311648 8.85493 -0.000723978 10.4197 1.25995e-06 12.0001C0.0035608 12.5048 0.038629 13.0088 0.105001 13.5091C0.110001 13.5351 0.111001 13.5601 0.117001 13.5851C0.289347 14.8838 0.675216 16.1452 1.259 17.3181C1.27475 17.3592 1.29381 17.399 1.316 17.4371C2.15972 19.09 3.37465 20.5251 4.86562 21.6301C6.35659 22.735 8.08313 23.4798 9.91 23.8061C9.96679 23.82 10.0247 23.8291 10.083 23.8331C11.6662 24.102 13.2875 24.0478 14.8491 23.6736C16.4108 23.2994 17.8806 22.6129 19.17 21.6556C20.4593 20.6983 21.5416 19.49 22.3516 18.1033C23.1615 16.7166 23.6825 15.1804 23.883 13.5871C23.889 13.5601 23.891 13.5331 23.9 13.5051ZM19.452 8.83808L20.228 6.32908C21.2737 7.84476 21.8778 9.62113 21.973 11.4601L19.831 9.95108C19.6584 9.82936 19.5287 9.65611 19.4606 9.45616C19.3926 9.25622 19.3895 9.03985 19.452 8.83808ZM14.592 2.35308L12.592 3.80908C12.4211 3.9333 12.2153 4.00022 12.004 4.00022C11.7927 4.00022 11.5869 3.9333 11.416 3.80908L9.416 2.35308C11.112 1.88242 12.904 1.88242 14.6 2.35308H14.592ZM4.548 8.83808C4.61047 9.03985 4.60744 9.25622 4.53936 9.45616C4.47127 9.65611 4.34162 9.82936 4.169 9.95108L2.027 11.4601C2.1222 9.62144 2.72633 7.8454 3.772 6.33008L4.548 8.83808ZM4.007 17.9841L6.754 17.9931C6.96538 17.9935 7.17118 18.0609 7.34186 18.1856C7.51254 18.3103 7.63932 18.4858 7.704 18.6871L8.568 21.3801C6.75195 20.7117 5.16797 19.5323 4.007 17.9841ZM10.843 21.9271L9.608 18.0761C9.41532 17.4718 9.03563 16.9445 8.52373 16.5701C8.01183 16.1957 7.39421 15.9936 6.76 15.9931L2.831 15.9811C2.52861 15.2834 2.30749 14.5533 2.172 13.8051L5.321 11.5861C5.83979 11.222 6.22955 10.7025 6.43408 10.1026C6.6386 9.50265 6.64733 8.85328 6.459 8.24808L5.324 4.57608C5.89756 4.05487 6.52981 3.60216 7.208 3.22708L10.236 5.42708C10.7482 5.80078 11.3659 6.00215 12 6.00215C12.6341 6.00215 13.2518 5.80078 13.764 5.42708L16.792 3.22708C17.47 3.6024 18.1023 4.05509 18.676 4.57608L17.541 8.24808C17.3527 8.85328 17.3614 9.50265 17.5659 10.1026C17.7705 10.7025 18.1602 11.222 18.679 11.5861L21.828 13.8051C21.6926 14.553 21.4714 15.2828 21.169 15.9801L17.239 15.9931C16.6048 15.9939 15.9873 16.1962 15.4756 16.5708C14.9639 16.9453 14.5845 17.4728 14.392 18.0771L13.157 21.9271C12.3887 22.0244 11.6113 22.0244 10.843 21.9271ZM15.433 21.3801L16.296 18.6871C16.3606 18.486 16.4873 18.3106 16.6577 18.1859C16.8282 18.0612 17.0338 17.9937 17.245 17.9931L19.993 17.9841C18.8326 19.5325 17.2489 20.7119 15.433 21.3801Z" fill="#374957"/>
</g>
<defs>
<clipPath id="clip0">
<rect width="24" height="24" fill="white"/>
</clipPath>
</defs>
</svg>
