<svg width="24" height="24" viewBox="0 0 24 24" fill="none" xmlns="http://www.w3.org/2000/svg">
<g clip-path="url(#clip0)">
<path d="M6.96221 5.81812C7.12797 5.81812 7.28694 5.75227 7.40415 5.63506C7.52136 5.51785 7.58721 5.35888 7.58721 5.19312C7.58721 5.02735 7.52136 4.86838 7.40415 4.75117C7.28694 4.63396 7.12797 4.56812 6.96221 4.56812H4.76221C4.59645 4.56812 4.43748 4.63396 4.32027 4.75117C4.20306 4.86838 4.13721 5.02735 4.13721 5.19312V10.4071C4.13721 10.5729 4.20306 10.7318 4.32027 10.8491C4.43748 10.9663 4.59645 11.0321 4.76221 11.0321H6.96221C7.12797 11.0321 7.28694 10.9663 7.40415 10.8491C7.52136 10.7318 7.58721 10.5729 7.58721 10.4071C7.58721 10.2414 7.52136 10.0824 7.40415 9.96517C7.28694 9.84796 7.12797 9.78211 6.96221 9.78211H5.39121V8.42512H6.80021C6.96597 8.42512 7.12494 8.35927 7.24215 8.24206C7.35936 8.12485 7.42521 7.96588 7.42521 7.80012C7.42521 7.63436 7.35936 7.47538 7.24215 7.35817C7.12494 7.24096 6.96597 7.17512 6.80021 7.17512H5.39121V5.81812H6.96221Z" fill="#374957"/>
<path d="M10.9391 4.54395H9.47507C9.30922 4.54451 9.15033 4.61065 9.03307 4.72795C9.02507 4.73595 9.02207 4.74795 9.01407 4.75695C8.96623 4.80731 8.92733 4.86548 8.89907 4.92895C8.87849 4.98656 8.86636 5.04685 8.86307 5.10794C8.86307 5.12894 8.85107 5.14795 8.85107 5.16895V10.4309C8.85107 10.5967 8.91692 10.7557 9.03413 10.8729C9.15134 10.9901 9.31031 11.0559 9.47607 11.0559C9.64183 11.0559 9.80081 10.9901 9.91802 10.8729C10.0352 10.7557 10.1011 10.5967 10.1011 10.4309V8.76794H10.9401C11.4997 8.76794 12.0364 8.54564 12.4321 8.14994C12.8278 7.75424 13.0501 7.21755 13.0501 6.65795C13.0501 6.09834 12.8278 5.56165 12.4321 5.16595C12.0364 4.77025 11.4997 4.54795 10.9401 4.54795L10.9391 4.54395ZM10.9391 7.51395H10.1071V5.78995H10.9441C11.057 5.78995 11.1688 5.81219 11.2732 5.85541C11.3775 5.89863 11.4723 5.96197 11.5522 6.04183C11.632 6.12169 11.6954 6.2165 11.7386 6.32084C11.7818 6.42518 11.8041 6.53701 11.8041 6.64995C11.8041 6.76288 11.7818 6.87471 11.7386 6.97905C11.6954 7.08339 11.632 7.1782 11.5522 7.25806C11.4723 7.33792 11.3775 7.40126 11.2732 7.44448C11.1688 7.4877 11.057 7.50995 10.9441 7.50995L10.9391 7.51395Z" fill="#374957"/>
<path d="M19 0H5C3.67441 0.00158786 2.40356 0.528882 1.46622 1.46622C0.528882 2.40356 0.00158786 3.67441 0 5L0 19C0.00158786 20.3256 0.528882 21.5964 1.46622 22.5338C2.40356 23.4711 3.67441 23.9984 5 24H16.343C16.9999 24.0019 17.6507 23.8735 18.2576 23.6222C18.8646 23.3709 19.4157 23.0017 19.879 22.536L22.535 19.878C23.0007 19.4149 23.37 18.864 23.6215 18.2572C23.873 17.6504 24.0016 16.9998 24 16.343V5C23.9984 3.67441 23.4711 2.40356 22.5338 1.46622C21.5964 0.528882 20.3256 0.00158786 19 0V0ZM2 19V5C2 4.20435 2.31607 3.44129 2.87868 2.87868C3.44129 2.31607 4.20435 2 5 2H19C19.7956 2 20.5587 2.31607 21.1213 2.87868C21.6839 3.44129 22 4.20435 22 5V15H18C17.2044 15 16.4413 15.3161 15.8787 15.8787C15.3161 16.4413 15 17.2044 15 18V22H5C4.20435 22 3.44129 21.6839 2.87868 21.1213C2.31607 20.5587 2 19.7956 2 19ZM18.465 21.122C18.063 21.523 17.5547 21.8006 17 21.922V18C17 17.7348 17.1054 17.4804 17.2929 17.2929C17.4804 17.1054 17.7348 17 18 17H21.925C21.8013 17.5535 21.524 18.0609 21.125 18.464L18.465 21.122Z" fill="#374957"/>
<path d="M16.8572 7.25504C16.5842 7.16204 16.3012 7.11104 16.0222 7.03804C15.8008 6.99336 15.5956 6.88971 15.4282 6.73804C15.3464 6.66041 15.2885 6.56089 15.2616 6.45134C15.2346 6.34178 15.2397 6.22679 15.2762 6.12004C15.3229 6.02767 15.3926 5.94893 15.4786 5.89146C15.5646 5.83399 15.6641 5.79974 15.7672 5.79204C15.9736 5.77919 16.1803 5.8095 16.3742 5.88104C16.653 5.96796 16.9265 6.07114 17.1932 6.19004C17.4882 6.31904 17.8342 6.39604 18.0722 6.11604C18.1573 6.01354 18.2065 5.88601 18.2123 5.75293C18.218 5.61985 18.1801 5.48853 18.1042 5.37904C18.0005 5.22841 17.8606 5.10632 17.6972 5.02404C17.3348 4.81124 16.9338 4.67242 16.5174 4.61561C16.101 4.55879 15.6774 4.58511 15.2712 4.69304C14.8379 4.83018 14.4717 5.12495 14.2452 5.51904C14.139 5.70599 14.0688 5.9112 14.0382 6.12404C13.9825 6.50688 14.0655 6.89705 14.2722 7.22404C14.5056 7.56566 14.8424 7.82331 15.2332 7.95904C15.6422 8.12704 16.0502 8.29004 16.4652 8.44204C16.6439 8.49824 16.8083 8.59239 16.9472 8.71804C17.024 8.79078 17.0788 8.88364 17.1053 8.98602C17.1318 9.0884 17.129 9.19617 17.0972 9.29704C17.0556 9.39436 16.9931 9.48134 16.9141 9.55184C16.8351 9.62234 16.7416 9.67464 16.6402 9.70504C16.328 9.82242 15.9861 9.83471 15.6662 9.74004C15.355 9.62742 15.0674 9.45786 14.8182 9.24004C14.7922 9.21904 14.7072 9.15504 14.6912 9.14004C14.5782 9.05925 14.4407 9.02017 14.3021 9.02947C14.1635 9.03877 14.0324 9.09588 13.9312 9.19104C13.8704 9.24619 13.8211 9.31278 13.786 9.387C13.7509 9.46123 13.7308 9.54164 13.7268 9.62363C13.7228 9.70563 13.735 9.78761 13.7627 9.8649C13.7904 9.94218 13.8331 10.0132 13.8882 10.074C14.1834 10.3874 14.5399 10.6366 14.9356 10.8061C15.3314 10.9756 15.7578 11.0617 16.1882 11.059C16.688 11.081 17.1797 10.927 17.5776 10.6239C17.9756 10.3208 18.2546 9.88769 18.3662 9.40004C18.414 9.10061 18.3838 8.79394 18.2788 8.50952C18.1737 8.2251 17.9972 7.97251 17.7662 7.77604C17.5007 7.54392 17.1917 7.36682 16.8572 7.25504Z" fill="#374957"/>
</g>
<defs>
<clipPath id="clip0">
<rect width="24" height="24" fill="white"/>
</clipPath>
</defs>
</svg>
