<svg width="24" height="24" viewBox="0 0 24 24" fill="none" xmlns="http://www.w3.org/2000/svg">
<g clip-path="url(#clip0)">
<path d="M23.9672 10.4169C23.6655 8.1942 22.7488 6.09994 21.3206 4.37028C19.8924 2.64062 18.0094 1.34433 15.8838 0.627561C13.7583 -0.0892037 11.4748 -0.197941 9.29083 0.313608C7.10682 0.825157 5.10914 1.93665 3.52302 3.52277C1.93689 5.1089 0.825401 7.10658 0.313852 9.29058C-0.197697 11.4746 -0.0889595 13.7581 0.627806 15.8836C1.34457 18.0091 2.64086 19.8921 4.37052 21.3204C6.10019 22.7486 8.19444 23.6652 10.4172 23.9669C10.5793 23.9881 10.7427 23.9988 10.9062 23.9989C11.9609 23.9902 12.9692 23.5646 13.7112 22.8149L22.8112 13.7149C23.2432 13.2902 23.5721 12.772 23.7725 12.2003C23.9729 11.6285 24.0395 11.0185 23.9672 10.4169ZM2.06718 10.8909C2.33614 8.51766 3.44286 6.31816 5.18838 4.68785C6.9339 3.05754 9.20373 2.10335 11.5898 1.99682C13.9759 1.89029 16.3217 2.63841 18.2056 4.10668C20.0895 5.57495 21.3878 7.66707 21.8672 10.0069C18.7348 10.0448 15.7413 11.3054 13.5255 13.5197C11.3097 15.734 10.0471 18.7266 10.0072 21.8589C7.54737 21.3629 5.3644 19.9591 3.89245 17.9269C2.42051 15.8946 1.76745 13.3828 2.06318 10.8909H2.06718ZM12.3002 21.3999C12.214 21.4826 12.121 21.5579 12.0222 21.6249C12.1193 19.1082 13.1625 16.7208 14.9433 14.9398C16.7241 13.1587 19.1115 12.1153 21.6282 12.0179C21.5618 12.1173 21.4869 12.2107 21.4042 12.2969L12.3002 21.3999Z" fill="#374957"/>
</g>
<defs>
<clipPath id="clip0">
<rect width="24" height="24" fill="white"/>
</clipPath>
</defs>
</svg>
