<svg width="24" height="24" viewBox="0 0 24 24" fill="none" xmlns="http://www.w3.org/2000/svg">
<path d="M17 13.184V10C17 9.73479 16.8946 9.48044 16.7071 9.2929C16.5196 9.10537 16.2652 9.00001 16 9.00001V2.41401C16.0001 2.00272 15.8949 1.59825 15.6946 1.23903C15.4943 0.879807 15.2055 0.577775 14.8556 0.361631C14.5056 0.145487 14.1063 0.022412 13.6954 0.00410093C13.2845 -0.0142101 12.8758 0.0728512 12.508 0.257012L9.886 1.56701C9.3182 1.84939 8.84069 2.28493 8.50741 2.82443C8.17414 3.36392 7.99838 3.98588 8 4.62001V9.00001C7.73478 9.00001 7.48043 9.10537 7.29289 9.2929C7.10536 9.48044 7 9.73479 7 10V13.184C6.41709 13.3901 5.91209 13.7712 5.55409 14.2753C5.19608 14.7794 5.00256 15.3818 5 16V19C5.00159 20.3256 5.52888 21.5965 6.46622 22.5338C7.40356 23.4711 8.67441 23.9984 10 24H14C15.3256 23.9984 16.5964 23.4711 17.5338 22.5338C18.4711 21.5965 18.9984 20.3256 19 19V16C18.9974 15.3818 18.8039 14.7794 18.4459 14.2753C18.0879 13.7712 17.5829 13.3901 17 13.184ZM9 13V11H15V13H9ZM10 4.62001C9.99927 4.35743 10.072 4.09989 10.21 3.87651C10.3481 3.65314 10.5458 3.47284 10.781 3.35601L13.4 2.04601C13.4629 2.01345 13.5331 1.99768 13.6039 2.00024C13.6746 2.0028 13.7435 2.0236 13.8039 2.06062C13.8643 2.09764 13.914 2.14963 13.9484 2.21155C13.9827 2.27346 14.0005 2.3432 14 2.41401V9.00001H10V4.62001ZM17 19C17 19.7957 16.6839 20.5587 16.1213 21.1213C15.5587 21.6839 14.7956 22 14 22H10C9.20435 22 8.44129 21.6839 7.87868 21.1213C7.31607 20.5587 7 19.7957 7 19V16C7 15.7348 7.10536 15.4804 7.29289 15.2929C7.48043 15.1054 7.73478 15 8 15H16C16.2652 15 16.5196 15.1054 16.7071 15.2929C16.8946 15.4804 17 15.7348 17 16V19Z" fill="#374957"/>
</svg>
