<svg width="24" height="24" viewBox="0 0 24 24" fill="none" xmlns="http://www.w3.org/2000/svg">
<path d="M20.4852 3.51511C18.8074 1.83884 16.6703 0.697634 14.344 0.235751C12.0176 -0.226132 9.60663 0.0120436 7.41567 0.92017C5.2247 1.8283 3.35216 3.3656 2.03474 5.33776C0.717313 7.30992 0.0141602 9.6284 0.0141602 12.0001C0.0141602 14.3718 0.717313 16.6903 2.03474 18.6625C3.35216 20.6346 5.2247 22.1719 7.41567 23.08C9.60663 23.9882 12.0176 24.2264 14.344 23.7645C16.6703 23.3026 18.8074 22.1614 20.4852 20.4851C22.7323 18.233 23.9943 15.1815 23.9943 12.0001C23.9943 8.8187 22.7323 5.76721 20.4852 3.51511ZM21.9342 10.9321C20.7351 11.0776 19.5185 10.9484 18.3767 10.5542C17.2348 10.1601 16.1976 9.51136 15.3435 8.65715C14.4893 7.80294 13.8407 6.76563 13.4467 5.62373C13.0527 4.48183 12.9236 3.26527 13.0692 2.06611C15.339 2.30474 17.4579 3.31554 19.0716 4.92942C20.6853 6.54329 21.6959 8.66236 21.9342 10.9321ZM2.06624 13.0681C3.26541 12.9226 4.48196 13.0519 5.62382 13.446C6.76567 13.8401 7.80291 14.4889 8.65702 15.3431C9.51113 16.1973 10.1597 17.2346 10.5537 18.3765C10.9478 19.5184 11.0768 20.735 10.9312 21.9341C8.66151 21.6955 6.54256 20.6847 4.92886 19.0708C3.31517 17.4569 2.30461 15.3379 2.06624 13.0681ZM19.0712 19.0681C17.4283 20.7146 15.2604 21.7333 12.9442 21.9471C13.0877 20.4804 12.9043 19.0001 12.4072 17.6127C11.9101 16.2254 11.1116 14.9655 10.0692 13.9237C9.02687 12.8819 7.76653 12.0841 6.3789 11.5878C4.99128 11.0914 3.51088 10.9088 2.04424 11.0531C2.26175 8.7374 3.28133 6.5704 4.92681 4.92656C6.5723 3.28272 8.74031 2.2653 11.0562 2.05011C10.9218 3.43666 11.0789 4.83601 11.5175 6.15822C11.9561 7.48043 12.6665 8.69625 13.603 9.72752C14.5395 10.7588 15.6815 11.5827 16.9554 12.1463C18.2294 12.7099 19.6072 13.0008 21.0002 13.0001C21.3172 13.0001 21.6352 12.9841 21.9532 12.9541C21.736 15.267 20.7165 17.431 19.0712 19.0711V19.0681Z" fill="#374957"/>
</svg>
