<svg width="24" height="24" viewBox="0 0 24 24" fill="none" xmlns="http://www.w3.org/2000/svg">
<g clip-path="url(#clip0)">
<path d="M20.5058 20.454C22.7433 18.2094 23.9996 15.1694 23.9996 12C23.9996 8.83074 22.7433 5.79068 20.5058 3.54605C20.4968 3.53605 20.4948 3.52405 20.4848 3.51505C20.4748 3.50605 20.4638 3.50305 20.4538 3.49405C18.2092 1.25692 15.1694 0.000732422 12.0003 0.000732422C8.83125 0.000732422 5.79141 1.25692 3.54682 3.49405C3.53682 3.50305 3.52382 3.50605 3.51482 3.51605C3.50582 3.52605 3.50182 3.53805 3.49282 3.54805C1.25599 5.7926 0 8.83223 0 12.001C0 15.1699 1.25599 18.2095 3.49282 20.454C3.50182 20.464 3.50482 20.477 3.51482 20.486C3.52482 20.495 3.53682 20.499 3.54682 20.508C5.79141 22.7452 8.83125 24.0014 12.0003 24.0014C15.1694 24.0014 18.2092 22.7452 20.4538 20.508C20.4638 20.499 20.4758 20.497 20.4848 20.487C20.4938 20.477 20.4998 20.464 20.5058 20.454ZM2.05682 13.054C3.9928 13.2544 5.82717 14.0195 7.33182 15.254L4.26182 18.324C3.02826 16.8218 2.26171 14.9911 2.05682 13.058V13.054ZM4.25682 5.67205L10.5858 12L8.74882 13.837C6.85899 12.2355 4.51716 11.2624 2.04882 11.053C2.235 9.08044 3.00554 7.20824 4.26182 5.67605L4.25682 5.67205ZM21.9378 10.938C20.002 10.7372 18.1677 9.97223 16.6628 8.73805L19.7328 5.66805C20.9696 7.17197 21.738 9.00569 21.9428 10.942L21.9378 10.938ZM15.2488 7.32805C14.0142 5.82341 13.2492 3.98903 13.0488 2.05305C14.9813 2.2565 16.8119 3.02129 18.3148 4.25305L15.2488 7.32805ZM13.8358 8.75005L11.9998 10.586L5.67582 4.26205C7.20789 3.00541 9.0801 2.23452 11.0528 2.04805C11.2622 4.51679 12.2349 6.85913 13.8358 8.75005ZM8.74582 16.668C9.98041 18.1727 10.7455 20.0071 10.9458 21.943C9.0128 21.7382 7.18211 20.9716 5.67982 19.738L8.74582 16.668ZM10.1628 15.251L11.9998 13.414L18.3238 19.738C16.792 20.9951 14.9197 21.7661 12.9468 21.952C12.7377 19.4834 11.7646 17.1411 10.1628 15.251ZM13.4138 12L15.2498 10.164C17.1402 11.7646 19.4818 12.7372 21.9498 12.947C21.7633 14.9198 20.9925 16.792 19.7358 18.324L13.4138 12Z" fill="#374957"/>
</g>
<defs>
<clipPath id="clip0">
<rect width="24" height="24" fill="white"/>
</clipPath>
</defs>
</svg>
