<svg width="24" height="24" viewBox="0 0 24 24" fill="none" xmlns="http://www.w3.org/2000/svg">
<g clip-path="url(#clip0)">
<path d="M22.4855 10.975L12.0005 17.267L1.51549 10.975C1.28806 10.8386 1.01575 10.7981 0.75845 10.8624C0.50115 10.9267 0.279942 11.0906 0.143488 11.318C0.00703394 11.5455 -0.0334877 11.8178 0.0308373 12.0751C0.0951623 12.3324 0.259065 12.5536 0.486488 12.69L11.4865 19.29C11.642 19.3835 11.82 19.4328 12.0015 19.4328C12.1829 19.4328 12.361 19.3835 12.5165 19.29L23.5165 12.69C23.7439 12.5536 23.9078 12.3324 23.9721 12.0751C24.0365 11.8178 23.9959 11.5455 23.8595 11.318C23.723 11.0906 23.5018 10.9267 23.2445 10.8624C22.9872 10.7981 22.7149 10.8386 22.4875 10.975H22.4855Z" fill="#374957"/>
<path d="M22.4855 15.5429L12.0005 21.8339L1.51548 15.5429C1.40288 15.4753 1.27806 15.4306 1.14817 15.4113C1.01828 15.392 0.885849 15.3984 0.758447 15.4303C0.631045 15.4621 0.511164 15.5187 0.405649 15.5969C0.300133 15.6751 0.21105 15.7733 0.143485 15.8859C0.0759197 15.9985 0.0311961 16.1233 0.0118675 16.2532C-0.0074611 16.3831 -0.00101616 16.5155 0.0308343 16.6429C0.0951593 16.9002 0.259062 17.1214 0.486485 17.2579L11.4865 23.8579C11.642 23.9513 11.82 24.0007 12.0015 24.0007C12.1829 24.0007 12.361 23.9513 12.5165 23.8579L23.5165 17.2579C23.7439 17.1214 23.9078 16.9002 23.9721 16.6429C24.0365 16.3856 23.9959 16.1133 23.8595 15.8859C23.723 15.6585 23.5018 15.4946 23.2445 15.4303C22.9872 15.3659 22.7149 15.4064 22.4875 15.5429H22.4855Z" fill="#374957"/>
<path d="M11.9997 14.7731C11.4603 14.7728 10.9311 14.6259 10.4687 14.3481L0.484684 8.35706C0.336831 8.26815 0.214494 8.14251 0.129564 7.99234C0.0446343 7.84217 0 7.67258 0 7.50006C0 7.32753 0.0446343 7.15794 0.129564 7.00777C0.214494 6.8576 0.336831 6.73196 0.484684 6.64306L10.4687 0.652056C10.9311 0.374285 11.4603 0.227539 11.9997 0.227539C12.5391 0.227539 13.0683 0.374285 13.5307 0.652056L23.5147 6.64306C23.6625 6.73196 23.7849 6.8576 23.8698 7.00777C23.9547 7.15794 23.9994 7.32753 23.9994 7.50006C23.9994 7.67258 23.9547 7.84217 23.8698 7.99234C23.7849 8.14251 23.6625 8.26815 23.5147 8.35706L13.5307 14.3481C13.0683 14.6259 12.5391 14.7728 11.9997 14.7731ZM2.94368 7.50006L11.4997 12.6331C11.6508 12.7235 11.8236 12.7712 11.9997 12.7712C12.1758 12.7712 12.3486 12.7235 12.4997 12.6331L21.0557 7.50006L12.4997 2.36706C12.3486 2.27666 12.1758 2.22892 11.9997 2.22892C11.8236 2.22892 11.6508 2.27666 11.4997 2.36706L2.94368 7.50006Z" fill="#374957"/>
</g>
<defs>
<clipPath id="clip0">
<rect width="24" height="24" fill="white"/>
</clipPath>
</defs>
</svg>
