<svg width="24" height="24" viewBox="0 0 24 24" fill="none" xmlns="http://www.w3.org/2000/svg">
<g clip-path="url(#clip0)">
<path d="M12 15C11.7348 15 11.4804 14.8946 11.2929 14.7071C11.1054 14.5196 11 14.2652 11 14V5.99999C11 5.73478 11.1054 5.48042 11.2929 5.29289C11.4804 5.10535 11.7348 4.99999 12 4.99999C12.2652 4.99999 12.5196 5.10535 12.7071 5.29289C12.8946 5.48042 13 5.73478 13 5.99999V14C13 14.2652 12.8946 14.5196 12.7071 14.7071C12.5196 14.8946 12.2652 15 12 15ZM12.793 23.76C14.953 22.892 22 19.479 22 12.043V6.87199C22.0011 5.82101 21.6705 4.79647 21.0554 3.94431C20.4403 3.09215 19.5719 2.45583 18.574 2.12599L12.315 0.0509938C12.1107 -0.0179745 11.8893 -0.0179745 11.685 0.0509938L5.426 2.12599C4.42811 2.45583 3.55975 3.09215 2.9446 3.94431C2.32946 4.79647 1.99889 5.82101 2 6.87199V12.043C2 18.605 9.005 22.619 11.153 23.693C11.4247 23.8226 11.7084 23.9255 12 24C12.2712 23.9445 12.5366 23.8642 12.793 23.76ZM17.944 4.02399C18.5425 4.22241 19.0633 4.60437 19.4324 5.11563C19.8015 5.62688 20.0001 6.24144 20 6.87199V12.043C20 18.226 13.913 21.154 12.047 21.904C10.159 20.96 4 17.459 4 12.043V6.87199C3.99992 6.24144 4.19852 5.62688 4.56761 5.11563C4.93669 4.60437 5.45748 4.22241 6.056 4.02399L12 2.05399L17.944 4.02399ZM12 17C11.8022 17 11.6089 17.0586 11.4444 17.1685C11.28 17.2784 11.1518 17.4346 11.0761 17.6173C11.0004 17.8 10.9806 18.0011 11.0192 18.1951C11.0578 18.3891 11.153 18.5672 11.2929 18.7071C11.4327 18.847 11.6109 18.9422 11.8049 18.9808C11.9989 19.0194 12.2 18.9996 12.3827 18.9239C12.5654 18.8482 12.7216 18.72 12.8315 18.5556C12.9414 18.3911 13 18.1978 13 18C13 17.7348 12.8946 17.4804 12.7071 17.2929C12.5196 17.1054 12.2652 17 12 17Z" fill="#374957"/>
</g>
<defs>
<clipPath id="clip0">
<rect width="24" height="24" fill="white"/>
</clipPath>
</defs>
</svg>
