<svg width="24" height="24" viewBox="0 0 24 24" fill="none" xmlns="http://www.w3.org/2000/svg">
<g clip-path="url(#clip0)">
<path d="M23.7152 2.28491C23.5254 2.09573 23.2683 1.9895 23.0002 1.9895C22.7322 1.9895 22.4751 2.09573 22.2852 2.28491L17.5212 7.04891L17.2012 6.73591C16.3576 5.91186 15.2501 5.41199 14.0741 5.32437C12.898 5.23674 11.7287 5.56698 10.7722 6.25691C9.39178 7.2979 7.85732 8.11709 6.22424 8.68491L4.15024 9.29291C3.47629 9.49074 2.85118 9.82737 2.31506 10.2812C1.77894 10.735 1.34368 11.2959 1.03724 11.9279C0.73585 12.5514 0.567982 13.2309 0.544391 13.9229C0.520799 14.615 0.642005 15.3044 0.900244 15.9469C1.87902 18.3497 3.55696 20.403 5.71657 21.8409C7.87617 23.2787 10.4179 24.0347 13.0122 24.0109H13.9362C14.143 24.0108 14.3447 23.9472 14.5142 23.8289C16.2744 22.6799 17.7788 21.1803 18.9333 19.4238C20.0878 17.6672 20.8677 15.6915 21.2242 13.6199C21.3483 12.8278 21.2811 12.0175 21.0283 11.2567C20.7756 10.4958 20.3446 9.80637 19.7712 9.24591L18.9712 8.46191L23.7182 3.71491C23.907 3.52464 24.0127 3.26731 24.0121 2.99929C24.0116 2.73126 23.9048 2.47438 23.7152 2.28491ZM13.6082 21.9849H13.0082C11.5307 21.9869 10.0671 21.6992 8.70024 21.1379L8.71124 21.1319C10.4601 20.2544 11.9573 18.9468 13.0622 17.3319L13.5802 16.5709C13.7312 16.3494 13.7879 16.0771 13.738 15.8138C13.6881 15.5505 13.5357 15.3178 13.3142 15.1669C13.0928 15.016 12.8205 14.9592 12.5572 15.0091C12.2939 15.059 12.0612 15.2114 11.9102 15.4329L11.3922 16.1939C10.4794 17.5255 9.2435 18.6035 7.80024 19.3269L6.54924 19.9569C5.54836 19.2534 4.67483 18.3842 3.96624 17.3869C5.60522 16.8355 7.10054 15.9254 8.34324 14.7229C8.535 14.5354 8.64441 14.2794 8.64741 14.0112C8.65041 13.743 8.54675 13.4847 8.35924 13.2929C8.17174 13.1012 7.91573 12.9917 7.64756 12.9887C7.37938 12.9857 7.121 13.0894 6.92924 13.2769C5.81013 14.3613 4.44428 15.1574 2.94924 15.5969C2.88824 15.4619 2.82224 15.3299 2.76724 15.1909C2.61237 14.8106 2.53987 14.4017 2.55452 13.9913C2.56917 13.5809 2.67064 13.1782 2.85224 12.8099C3.0361 12.4317 3.29684 12.096 3.6178 11.8243C3.93876 11.5526 4.31288 11.3508 4.71624 11.2319L6.78924 10.6239C7.9922 10.2375 9.14289 9.7041 10.2152 9.03591L18.1302 16.7479C17.0786 18.8414 15.5251 20.6419 13.6082 21.9889V21.9849ZM19.2282 13.3019C19.1518 13.7698 19.0486 14.2328 18.9192 14.6889L11.9482 7.89991C12.4597 7.53234 13.0734 7.33439 13.7032 7.33391C14.4823 7.33292 15.2306 7.63778 15.7872 8.18291L18.3562 10.6919C18.6992 11.0267 18.9573 11.4386 19.1089 11.8933C19.2606 12.3479 19.3015 12.8322 19.2282 13.3059V13.3019Z" fill="#374957"/>
</g>
<defs>
<clipPath id="clip0">
<rect width="24" height="24" fill="white"/>
</clipPath>
</defs>
</svg>
