<svg width="24" height="24" viewBox="0 0 24 24" fill="none" xmlns="http://www.w3.org/2000/svg">
<g clip-path="url(#clip0)">
<path d="M12 0C9.62663 0 7.30655 0.703788 5.33316 2.02236C3.35977 3.34094 1.8217 5.21509 0.913451 7.4078C0.00519943 9.60051 -0.232441 12.0133 0.230582 14.3411C0.693605 16.6689 1.83649 18.8071 3.51472 20.4853C5.19295 22.1635 7.33115 23.3064 9.65892 23.7694C11.9867 24.2324 14.3995 23.9948 16.5922 23.0866C18.7849 22.1783 20.6591 20.6402 21.9776 18.6668C23.2962 16.6935 24 14.3734 24 12C23.9966 8.81846 22.7312 5.76821 20.4815 3.51852C18.2318 1.26883 15.1815 0.00344108 12 0V0ZM12 22C10.0222 22 8.08879 21.4135 6.4443 20.3147C4.79981 19.2159 3.51809 17.6541 2.76121 15.8268C2.00433 13.9996 1.8063 11.9889 2.19215 10.0491C2.578 8.10929 3.53041 6.32746 4.92894 4.92893C6.32746 3.53041 8.10929 2.578 10.0491 2.19215C11.9889 1.8063 13.9996 2.00433 15.8268 2.7612C17.6541 3.51808 19.2159 4.79981 20.3147 6.4443C21.4135 8.08879 22 10.0222 22 12C21.9971 14.6513 20.9426 17.1931 19.0679 19.0679C17.1931 20.9426 14.6513 21.9971 12 22Z" fill="#374957"/>
<path d="M12.717 5.06308C12.1403 4.95801 11.5476 4.98096 10.9808 5.13032C10.414 5.27967 9.88691 5.55178 9.43689 5.92738C8.98688 6.30298 8.62491 6.7729 8.37661 7.30387C8.12831 7.83485 7.99974 8.41391 8 9.00008C8 9.26529 8.10536 9.51965 8.29289 9.70718C8.48043 9.89472 8.73478 10.0001 9 10.0001C9.26522 10.0001 9.51957 9.89472 9.70711 9.70718C9.89464 9.51965 10 9.26529 10 9.00008C9.99975 8.70585 10.0644 8.4152 10.1894 8.14883C10.3144 7.88247 10.4966 7.64697 10.723 7.45911C10.9495 7.27125 11.2146 7.13566 11.4994 7.06202C11.7843 6.98838 12.0819 6.9785 12.371 7.03308C12.766 7.10976 13.1293 7.30246 13.4142 7.58657C13.6992 7.87067 13.8931 8.23328 13.971 8.62808C14.0497 9.04248 13.9954 9.47115 13.8158 9.85281C13.6362 10.2345 13.3405 10.5496 12.971 10.7531C12.3592 11.1075 11.8536 11.6196 11.5069 12.2359C11.1603 12.8522 10.9852 13.5501 11 14.2571V15.0001C11 15.2653 11.1054 15.5196 11.2929 15.7072C11.4804 15.8947 11.7348 16.0001 12 16.0001C12.2652 16.0001 12.5196 15.8947 12.7071 15.7072C12.8946 15.5196 13 15.2653 13 15.0001V14.2571C12.9875 13.9091 13.0668 13.5639 13.2301 13.2564C13.3933 12.9488 13.6347 12.6897 13.93 12.5051C14.6545 12.1071 15.238 11.4945 15.6001 10.7515C15.9622 10.0084 16.0853 9.17143 15.9523 8.3556C15.8193 7.53977 15.4368 6.78517 14.8575 6.19557C14.2782 5.60597 13.5304 5.21034 12.717 5.06308Z" fill="#374957"/>
<path d="M13 18C13 17.4477 12.5523 17 12 17C11.4477 17 11 17.4477 11 18C11 18.5523 11.4477 19 12 19C12.5523 19 13 18.5523 13 18Z" fill="#374957"/>
</g>
<defs>
<clipPath id="clip0">
<rect width="24" height="24" fill="white"/>
</clipPath>
</defs>
</svg>
