<svg width="24" height="24" viewBox="0 0 24 24" fill="none" xmlns="http://www.w3.org/2000/svg">
<g clip-path="url(#clip0)">
<path d="M23.7072 16.325C23.5197 16.1375 23.2654 16.0322 23.0002 16.0322C22.735 16.0322 22.4807 16.1375 22.2932 16.325L16.6662 21.953L13.9782 19.3C13.7925 19.1097 13.5389 19.001 13.2731 18.9977C13.0072 18.9944 12.751 19.0969 12.5607 19.2825C12.3704 19.4682 12.2617 19.7218 12.2584 19.9876C12.2551 20.2535 12.3576 20.5097 12.5432 20.7L15.2872 23.4C15.4593 23.5856 15.6672 23.7344 15.8984 23.8375C16.1295 23.9406 16.3791 23.9959 16.6322 24H16.6652C16.9133 24.0008 17.159 23.9524 17.3882 23.8574C17.6174 23.7625 17.8254 23.623 18.0002 23.447L23.7072 17.739C23.8947 17.5515 24 17.2972 24 17.032C24 16.7668 23.8947 16.5125 23.7072 16.325Z" fill="#374957"/>
<path d="M11.09 21.9589C9.15904 21.7824 7.32103 21.0484 5.79973 19.8462C4.27842 18.6439 3.13945 17.0254 2.52147 15.1875C1.9035 13.3496 1.83317 11.3717 2.31906 9.49452C2.80494 7.61739 3.82608 5.92199 5.25816 4.61475C6.69024 3.3075 8.47147 2.44479 10.385 2.13165C12.2986 1.8185 14.2619 2.06843 16.036 2.85101C17.81 3.63358 19.3183 4.91504 20.3772 6.53939C21.4361 8.16373 21.9999 10.0609 22 11.9999C22 12.3069 21.985 12.6109 21.959 12.9109C21.9468 13.042 21.9605 13.1742 21.9995 13.3C22.0385 13.4258 22.102 13.5426 22.1863 13.6438C22.2706 13.745 22.374 13.8285 22.4906 13.8896C22.6073 13.9507 22.7348 13.9882 22.866 13.9999C22.9971 14.0131 23.1295 13.9999 23.2554 13.9613C23.3813 13.9226 23.4982 13.8591 23.5993 13.7747C23.7004 13.6902 23.7836 13.5863 23.844 13.4693C23.9043 13.3522 23.9407 13.2242 23.951 13.0929C23.983 12.7299 24 12.3669 24 11.9999C23.9999 9.673 23.3233 7.39633 22.0525 5.44708C20.7817 3.49783 18.9717 1.96007 16.8427 1.02104C14.7137 0.0820076 12.3576 -0.217792 10.0613 0.158141C7.76496 0.534074 5.62746 1.56952 3.90904 3.13842C2.19062 4.70732 0.965399 6.74198 0.382551 8.99469C-0.200297 11.2474 -0.115628 13.621 0.62625 15.8264C1.36813 18.0319 2.73521 19.9741 4.56105 21.4165C6.38689 22.859 8.59273 23.7395 10.91 23.9509C10.941 23.9509 10.971 23.9509 11.001 23.9509C11.2662 23.9627 11.5253 23.8687 11.7211 23.6895C11.917 23.5103 12.0337 23.2606 12.0455 22.9954C12.0573 22.7302 11.9633 22.4711 11.7841 22.2752C11.6049 22.0794 11.3552 21.9627 11.09 21.9509V21.9589Z" fill="#374957"/>
<path d="M11.0001 7V11.586L8.29308 14.293C8.19757 14.3852 8.12139 14.4956 8.06898 14.6176C8.01657 14.7396 7.98898 14.8708 7.98783 15.0036C7.98668 15.1364 8.01198 15.2681 8.06226 15.391C8.11254 15.5139 8.18679 15.6255 8.28069 15.7194C8.37458 15.8133 8.48623 15.8875 8.60913 15.9378C8.73202 15.9881 8.8637 16.0134 8.99648 16.0123C9.12926 16.0111 9.26048 15.9835 9.38249 15.9311C9.50449 15.8787 9.61483 15.8025 9.70708 15.707L12.7071 12.707C12.8946 12.5195 13 12.2652 13.0001 12V7C13.0001 6.73478 12.8947 6.48043 12.7072 6.29289C12.5197 6.10536 12.2653 6 12.0001 6C11.7349 6 11.4805 6.10536 11.293 6.29289C11.1054 6.48043 11.0001 6.73478 11.0001 7Z" fill="#374957"/>
</g>
<defs>
<clipPath id="clip0">
<rect width="24" height="24" fill="white"/>
</clipPath>
</defs>
</svg>
