<svg width="24" height="24" viewBox="0 0 24 24" fill="none" xmlns="http://www.w3.org/2000/svg">
<g clip-path="url(#clip0)">
<path d="M7 22H5C4.20435 22 3.44129 21.6839 2.87868 21.1213C2.31607 20.5587 2 19.7956 2 19V5C2 4.20435 2.31607 3.44129 2.87868 2.87868C3.44129 2.31607 4.20435 2 5 2H7C7.26522 2 7.51957 1.89464 7.70711 1.70711C7.89464 1.51957 8 1.26522 8 1C8 0.734784 7.89464 0.48043 7.70711 0.292893C7.51957 0.105357 7.26522 0 7 0L5 0C3.67441 0.00158786 2.40356 0.528882 1.46622 1.46622C0.528882 2.40356 0.00158786 3.67441 0 5L0 19C0.00158786 20.3256 0.528882 21.5964 1.46622 22.5338C2.40356 23.4711 3.67441 23.9984 5 24H7C7.26522 24 7.51957 23.8946 7.70711 23.7071C7.89464 23.5196 8 23.2652 8 23C8 22.7348 7.89464 22.4804 7.70711 22.2929C7.51957 22.1054 7.26522 22 7 22Z" fill="#374957"/>
<path d="M10.462 5.29308L5.87498 9.87908C5.31428 10.4426 4.99951 11.2052 4.99951 12.0001C4.99951 12.795 5.31428 13.5576 5.87498 14.1211L10.461 18.7071C10.5532 18.8026 10.6636 18.8788 10.7856 18.9312C10.9076 18.9836 11.0388 19.0112 11.1716 19.0123C11.3044 19.0135 11.436 18.9882 11.5589 18.9379C11.6818 18.8876 11.7935 18.8134 11.8874 18.7195C11.9813 18.6256 12.0555 18.5139 12.1058 18.391C12.1561 18.2681 12.1814 18.1365 12.1802 18.0037C12.1791 17.8709 12.1515 17.7397 12.0991 17.6177C12.0467 17.4957 11.9705 17.3853 11.875 17.2931L7.58398 13.0001H23C23.2652 13.0001 23.5196 12.8947 23.7071 12.7072C23.8946 12.5197 24 12.2653 24 12.0001C24 11.7349 23.8946 11.4805 23.7071 11.293C23.5196 11.1054 23.2652 11.0001 23 11.0001H7.58298L11.876 6.70708C11.9715 6.61483 12.0477 6.50449 12.1001 6.38249C12.1525 6.26048 12.1801 6.12926 12.1812 5.99648C12.1824 5.8637 12.1571 5.73202 12.1068 5.60913C12.0565 5.48623 11.9823 5.37458 11.8884 5.28069C11.7945 5.18679 11.6828 5.11254 11.5599 5.06226C11.437 5.01198 11.3054 4.98668 11.1726 4.98783C11.0398 4.98898 10.9086 5.01657 10.7866 5.06898C10.6646 5.12139 10.5542 5.19757 10.462 5.29308Z" fill="#374957"/>
</g>
<defs>
<clipPath id="clip0">
<rect width="24" height="24" fill="white"/>
</clipPath>
</defs>
</svg>
