<svg width="24" height="24" viewBox="0 0 24 24" fill="none" xmlns="http://www.w3.org/2000/svg">
<path d="M23.7069 16.293L15.5359 8.12105C14.5972 7.18504 13.3256 6.65942 11.9999 6.65942C10.6743 6.65942 9.40268 7.18504 8.46392 8.12105L0.292919 16.293C0.110761 16.4817 0.00996641 16.7343 0.0122448 16.9965C0.0145233 17.2586 0.119692 17.5095 0.3051 17.6949C0.490508 17.8803 0.741321 17.9854 1.00352 17.9877C1.26571 17.99 1.51832 17.8892 1.70692 17.7071L9.87792 9.53505C10.4416 8.97398 11.2046 8.65899 11.9999 8.65899C12.7953 8.65899 13.5582 8.97398 14.1219 9.53505L22.2929 17.7071C22.4815 17.8892 22.7341 17.99 22.9963 17.9877C23.2585 17.9854 23.5093 17.8803 23.6947 17.6949C23.8801 17.5095 23.9853 17.2586 23.9876 16.9965C23.9899 16.7343 23.8891 16.4817 23.7069 16.293Z" fill="#374957"/>
</svg>
