<svg width="24" height="24" viewBox="0 0 24 24" fill="none" xmlns="http://www.w3.org/2000/svg">
<path d="M6.41385 16.0001H17.5858C17.7836 16.0001 17.9769 15.9414 18.1413 15.8315C18.3057 15.7216 18.4339 15.5654 18.5095 15.3827C18.5852 15.2 18.605 14.999 18.5664 14.8051C18.5279 14.6111 18.4327 14.4329 18.2928 14.2931L12.7068 8.70709C12.5193 8.51962 12.265 8.41431 11.9998 8.41431C11.7347 8.41431 11.4804 8.51962 11.2928 8.70709L5.70685 14.2931C5.56704 14.4329 5.47183 14.6111 5.43327 14.8051C5.3947 14.999 5.4145 15.2 5.49017 15.3827C5.56584 15.5654 5.69398 15.7216 5.85839 15.8315C6.0228 15.9414 6.2161 16.0001 6.41385 16.0001Z" fill="#374957"/>
</svg>
