<svg width="24" height="24" viewBox="0 0 24 24" fill="none" xmlns="http://www.w3.org/2000/svg">
<g clip-path="url(#clip0)">
<path d="M7.29341 2.09092L5.40041 3.98492L1.70741 0.292919C1.5188 0.110761 1.2662 0.00996641 1.00401 0.0122448C0.741809 0.0145233 0.490997 0.119692 0.305589 0.3051C0.12018 0.490508 0.0150115 0.741321 0.0127331 1.00352C0.0104547 1.26571 0.111249 1.51832 0.293407 1.70692L3.98541 5.39992L2.09141 7.29292C1.95148 7.43289 1.85623 7.61124 1.81772 7.80538C1.77922 7.99952 1.79919 8.20072 1.87511 8.3835C1.95103 8.56628 2.07948 8.72242 2.2442 8.83216C2.40891 8.94189 2.60249 9.00027 2.80041 8.99992H7.56441C7.94526 8.99992 8.31051 8.84863 8.57981 8.57932C8.84912 8.31002 9.00041 7.94477 9.00041 7.56392V2.79992C9.00076 2.602 8.94238 2.40842 8.83264 2.24371C8.72291 2.07899 8.56677 1.95054 8.38399 1.87462C8.20121 1.7987 8.00001 1.77873 7.80587 1.81724C7.61173 1.85574 7.43338 1.95099 7.29341 2.09092Z" fill="#374957"/>
<path d="M20.015 18.6L21.909 16.706C22.0486 16.566 22.1435 16.3877 22.1818 16.1937C22.2201 15.9998 22.2001 15.7988 22.1242 15.6162C22.0483 15.4337 21.92 15.2777 21.7555 15.168C21.591 15.0583 21.3977 14.9998 21.2 15H16.436C16.0552 15 15.6899 15.1513 15.4206 15.4206C15.1513 15.6899 15 16.0552 15 16.436V21.2C14.9998 21.3978 15.0584 21.5913 15.1682 21.7558C15.278 21.9204 15.4341 22.0487 15.6169 22.1245C15.7996 22.2003 16.0007 22.2202 16.1948 22.1816C16.3888 22.1431 16.5671 22.0479 16.707 21.908L18.6 20.015L22.292 23.707C22.4806 23.8892 22.7332 23.99 22.9954 23.9877C23.2576 23.9854 23.5084 23.8802 23.6938 23.6948C23.8792 23.5094 23.9844 23.2586 23.9867 22.9964C23.989 22.7342 23.8882 22.4816 23.706 22.293L20.015 18.6Z" fill="#374957"/>
<path d="M16.436 8.99995H21.2C21.3978 9.0001 21.5913 8.94157 21.7558 8.83177C21.9204 8.72196 22.0487 8.5658 22.1245 8.38306C22.2003 8.20032 22.2202 7.99921 22.1816 7.80516C22.1431 7.61111 22.0479 7.43286 21.908 7.29295L20.015 5.39995L23.707 1.70795C23.8946 1.52044 24.0001 1.26607 24.0002 1.0008C24.0003 0.73553 23.895 0.481087 23.7075 0.293447C23.52 0.105806 23.2656 0.000337973 23.0004 0.000244203C22.7351 0.000150433 22.4806 0.105439 22.293 0.292947L18.6 3.98495L16.707 2.09095C16.567 1.95102 16.3887 1.85577 16.1945 1.81726C16.0004 1.77876 15.7992 1.79873 15.6164 1.87465C15.4336 1.95057 15.2775 2.07902 15.1678 2.24374C15.058 2.40845 14.9996 2.60203 15 2.79995V7.56395C15 7.9448 15.1513 8.31005 15.4206 8.57935C15.6899 8.84865 16.0552 8.99995 16.436 8.99995Z" fill="#374957"/>
<path d="M7.56359 15H2.79959C2.60176 14.9998 2.40832 15.0584 2.24376 15.1682C2.07919 15.278 1.9509 15.4341 1.87511 15.6169C1.79931 15.7996 1.77942 16.0007 1.81796 16.1948C1.8565 16.3888 1.95172 16.5671 2.09159 16.707L3.98459 18.6L0.292593 22.293C0.197083 22.3852 0.1209 22.4956 0.0684915 22.6176C0.0160825 22.7396 -0.0115037 22.8708 -0.0126576 23.0036C-0.0138114 23.1364 0.0114903 23.2681 0.0617712 23.391C0.112052 23.5138 0.186305 23.6255 0.280198 23.7194C0.374091 23.8133 0.485743 23.8875 0.608639 23.9378C0.731535 23.9881 0.863215 24.0134 0.995994 24.0123C1.12877 24.0111 1.25999 23.9835 1.382 23.9311C1.504 23.8787 1.61435 23.8025 1.70659 23.707L5.39959 20.015L7.29359 21.909C7.43362 22.0486 7.61188 22.1435 7.80585 22.1818C7.99981 22.2201 8.20079 22.2001 8.38336 22.1242C8.56594 22.0483 8.72192 21.92 8.83161 21.7555C8.94129 21.591 8.99975 21.3977 8.99959 21.2V16.436C8.99959 16.0552 8.8483 15.6899 8.579 15.4206C8.3097 15.1513 7.94444 15 7.56359 15Z" fill="#374957"/>
</g>
<defs>
<clipPath id="clip0">
<rect width="24" height="24" fill="white"/>
</clipPath>
</defs>
</svg>
