<svg width="24" height="24" viewBox="0 0 24 24" fill="none" xmlns="http://www.w3.org/2000/svg">
<g clip-path="url(#clip0)">
<path d="M0.875973 14.0881L4.75497 17.9671C4.9425 18.1546 5.19681 18.2599 5.46197 18.2599C5.72714 18.2599 5.98145 18.1546 6.16897 17.9671C6.35644 17.7796 6.46176 17.5253 6.46176 17.2601C6.46176 16.9949 6.35644 16.7406 6.16897 16.5531L2.61397 13.0001H23C23.2652 13.0001 23.5195 12.8947 23.7071 12.7072C23.8946 12.5197 24 12.2653 24 12.0001C24 11.7349 23.8946 11.4805 23.7071 11.293C23.5195 11.1055 23.2652 11.0001 23 11.0001H2.55297L6.16897 7.3811C6.35644 7.19358 6.46176 6.93927 6.46176 6.6741C6.46176 6.40894 6.35644 6.15463 6.16897 5.9671C5.98145 5.77963 5.72714 5.67432 5.46197 5.67432C5.19681 5.67432 4.9425 5.77963 4.75497 5.9671L0.874973 9.8461C0.314401 10.4097 -0.000187311 11.1724 8.36725e-08 11.9673C0.000187478 12.7622 0.315135 13.5247 0.875973 14.0881Z" fill="#374957"/>
</g>
<defs>
<clipPath id="clip0">
<rect width="24" height="24" fill="white"/>
</clipPath>
</defs>
</svg>
