<svg width="24" height="24" viewBox="0 0 24 24" fill="none" xmlns="http://www.w3.org/2000/svg">
<g clip-path="url(#clip0)">
<path d="M23.1 0.900031C22.5163 0.344053 21.7411 0.0339355 20.935 0.0339355C20.1289 0.0339355 19.3537 0.344053 18.77 0.900031L7.56302 12.1C7.21437 12.0329 6.86008 11.9994 6.50502 12C5.78323 11.998 5.06819 12.1391 4.40132 12.4153C3.73445 12.6915 3.129 13.0972 2.62002 13.609C1.26802 14.962 0.314022 18.592 0.0310225 20.563C-0.0317577 20.9894 -0.00192951 21.4243 0.118477 21.8382C0.238883 22.252 0.44704 22.635 0.728777 22.9611C1.01051 23.2873 1.35922 23.5489 1.75115 23.7282C2.14308 23.9075 2.56904 24.0002 3.00002 24C3.14691 24.0001 3.29361 23.9898 3.43902 23.969C5.41002 23.686 9.03902 22.732 10.393 21.38C11.0288 20.7424 11.4981 19.9583 11.7597 19.0967C12.0212 18.2351 12.067 17.3225 11.893 16.439L23.1 5.23003C23.6727 4.65503 23.9942 3.87656 23.9942 3.06503C23.9942 2.2535 23.6727 1.47503 23.1 0.900031ZM8.97702 19.966C8.25202 20.691 5.47702 21.655 3.15302 21.989C2.99771 22.0115 2.83931 21.9976 2.69026 21.9485C2.54121 21.8994 2.40558 21.8164 2.29402 21.706C2.18286 21.5951 2.0994 21.4595 2.0504 21.3102C2.00141 21.161 1.98826 21.0023 2.01202 20.847C2.34502 18.524 3.31202 15.747 4.03402 15.023C4.70027 14.423 5.57139 14.1015 6.46772 14.1249C7.36404 14.1483 8.2172 14.5148 8.85122 15.1488C9.48523 15.7829 9.85174 16.636 9.87515 17.5323C9.89856 18.4287 9.57708 19.2998 8.97702 19.966ZM21.688 3.81603L11.067 14.438C10.6724 13.8405 10.1624 13.3278 9.56702 12.93L20.184 2.31203C20.3861 2.11911 20.6547 2.01146 20.934 2.01146C21.2134 2.01146 21.482 2.11911 21.684 2.31203C21.7832 2.41042 21.862 2.52742 21.9159 2.65632C21.9698 2.78522 21.9978 2.92349 21.9981 3.0632C21.9985 3.20292 21.9713 3.34133 21.9181 3.47051C21.8649 3.5997 21.7867 3.71711 21.688 3.81603Z" fill="#374957"/>
</g>
<defs>
<clipPath id="clip0">
<rect width="24" height="24" fill="white"/>
</clipPath>
</defs>
</svg>
