<svg width="27" height="22" viewBox="0 0 27 22" fill="none" xmlns="http://www.w3.org/2000/svg">
<path d="M26.5825 2.59944C25.6264 3.02312 24.5993 3.30939 23.5195 3.43878C24.6336 2.77211 25.4672 1.72285 25.8646 0.486784C24.8178 1.10855 23.6721 1.5462 22.4774 1.78072C21.674 0.922902 20.6099 0.354329 19.4502 0.163271C18.2906 -0.0277868 17.1003 0.16936 16.0642 0.724103C15.028 1.27885 14.204 2.16015 13.7201 3.23118C13.2362 4.30222 13.1194 5.50306 13.3879 6.64727C11.2668 6.54077 9.19189 5.98948 7.29771 5.02918C5.40352 4.06887 3.73243 2.721 2.39288 1.07306C1.93485 1.86316 1.67148 2.77922 1.67148 3.75482C1.67097 4.63308 1.88725 5.4979 2.30113 6.27253C2.71501 7.04716 3.3137 7.70765 4.04407 8.19541C3.19704 8.16846 2.36869 7.93958 1.62797 7.52783V7.59653C1.62788 8.82834 2.05397 10.0222 2.83394 10.9756C3.61391 11.929 4.69971 12.5832 5.9071 12.8272C5.12134 13.0399 4.29752 13.0712 3.49787 12.9188C3.83853 13.9787 4.5021 14.9056 5.39568 15.5696C6.28926 16.2336 7.36812 16.6016 8.48123 16.622C6.59167 18.1053 4.25807 18.9099 1.85584 18.9064C1.43031 18.9065 1.00514 18.8817 0.58252 18.832C3.02092 20.3998 5.8594 21.2318 8.75833 21.2286C18.5716 21.2286 23.9363 13.1009 23.9363 6.05183C23.9363 5.82282 23.9305 5.59151 23.9202 5.3625C24.9637 4.60787 25.8645 3.6734 26.5802 2.60288L26.5825 2.59944V2.59944Z" fill="black"/>
</svg>
