<svg width="49" height="45" viewBox="0 0 49 45" fill="none" xmlns="http://www.w3.org/2000/svg">
<path d="M26.2257 22.1299C26.2257 24.716 24.1293 26.8123 21.5433 26.8123C18.9572 26.8123 16.8608 24.716 16.8608 22.1299C16.8608 19.5439 18.9572 17.4475 21.5433 17.4475C24.1293 17.4475 26.2257 19.5439 26.2257 22.1299Z" fill="white"/>
<path d="M31.5769 22.1299C31.5769 27.6714 27.0846 32.1637 21.5431 32.1637C18.2605 32.1637 15.346 30.5873 13.5154 28.1502H0.299805C2.92034 37.4153 11.4389 44.2042 21.5431 44.2042C31.6473 44.2042 40.1659 37.4153 42.7865 28.1502H48.2998V16.1097H42.7865C40.1659 6.84448 31.6473 0.0556641 21.5431 0.0556641C11.4389 0.0556641 2.92034 6.84448 0.299805 16.1097H13.5154C15.346 13.6726 18.2605 12.0962 21.5431 12.0962C27.0846 12.0962 31.5769 16.5884 31.5769 22.1299Z" fill="white"/>
</svg>
