<svg width="176" height="28" viewBox="0 0 176 28" fill="none" xmlns="http://www.w3.org/2000/svg">
<path d="M13.4536 14.3034V8.93524H9.43259V3.71618L3.57674 5.39373V8.93524H0.453613V14.3034H3.57674V20.9018C3.57674 26.1209 5.80196 28.3203 13.4536 27.5748V22.5048C10.877 22.6539 9.43259 22.5048 9.43259 20.9018V14.3034H13.4536Z" fill="#081529"/>
<path d="M28.4686 17.7145C28.4686 18.8191 27.5732 19.7145 26.4686 19.7145C25.3641 19.7145 24.4686 18.8191 24.4686 17.7145C24.4686 16.61 25.3641 15.7145 26.4686 15.7145C27.5732 15.7145 28.4686 16.61 28.4686 17.7145Z" fill="#081529"/>
<path d="M26.7437 22.2478C29.1681 22.2478 31.1334 20.2127 31.1334 17.7023C31.1334 15.1919 29.1681 13.1569 26.7437 13.1569C25.3075 13.1569 24.0324 13.871 23.2315 14.9751H17.4497C18.5962 10.7778 22.3231 7.70233 26.7437 7.70233C31.1642 7.70233 34.8911 10.7778 36.0376 14.9751H38.4497V20.4296H36.0376C34.8911 24.6269 31.1642 27.7023 26.7437 27.7023C22.3231 27.7023 18.5962 24.6269 17.4497 20.4296H23.2315C24.0324 21.5336 25.3075 22.2478 26.7437 22.2478Z" fill="#081529"/>
<path d="M60.2561 27.2064L53.3255 18.1028L60.0708 8.99911H53.585L48.0257 16.9739V1.71619H42.4665V27.2064H48.0257V19.1588L53.9556 27.2064H60.2561Z" fill="#081529"/>
<path d="M66.1445 20.2876H79.3014C79.4496 19.5957 79.5238 18.8675 79.5238 18.1028C79.5238 12.6042 75.5211 8.48931 70.1101 8.48931C64.2544 8.48931 60.2517 12.677 60.2517 18.1028C60.2517 23.5285 64.1803 27.7162 70.5178 27.7162C74.0386 27.7162 76.7812 26.4417 78.5972 23.9655L74.1498 21.4529C73.4086 22.254 72.1114 22.8366 70.5919 22.8366C68.5535 22.8366 66.8487 22.1812 66.1445 20.2876ZM66.0333 16.2092C66.5522 14.352 67.9605 13.3324 70.0731 13.3324C71.7408 13.3324 73.4086 14.0971 74.0016 16.2092H66.0333Z" fill="#081529"/>
<path d="M93.536 8.48931C91.0899 8.48931 89.2368 9.36325 88.2361 10.7106V8.99911H82.6769V27.2064H88.2361V17.2652C88.2361 14.6798 89.6445 13.5145 91.6829 13.5145C93.4618 13.5145 94.9072 14.5705 94.9072 16.8282V27.2064H100.466V16.0271C100.466 11.1112 97.2792 8.48931 93.536 8.48931Z" fill="#081529"/>
<path d="M114.64 17.7332C114.64 18.8377 115.536 19.7332 116.64 19.7332C117.745 19.7332 118.64 18.8377 118.64 17.7332C118.64 16.6286 117.745 15.7332 116.64 15.7332C115.536 15.7332 114.64 16.6286 114.64 17.7332Z" fill="#081529"/>
<path d="M116.365 22.2664C113.941 22.2664 111.975 20.2313 111.975 17.7209C111.975 15.2106 113.941 13.1755 116.365 13.1755C117.801 13.1755 119.076 13.8896 119.877 14.9937H125.659C124.513 10.7964 120.786 7.72095 116.365 7.72095C111.945 7.72095 108.218 10.7964 107.071 14.9937H104.659V20.4482H107.071C108.218 24.6455 111.945 27.7209 116.365 27.7209C120.786 27.7209 124.513 24.6455 125.659 20.4482H119.877C119.076 21.5523 117.801 22.2664 116.365 22.2664Z" fill="#081529"/>
<path d="M135.901 14.2527C135.901 13.5941 136.492 13.2283 137.452 13.2283C138.671 13.2283 139.409 13.8868 139.926 14.838L144.652 12.3136C143.101 9.71607 140.443 8.39899 137.452 8.39899C133.612 8.39899 130.216 10.4112 130.216 14.399C130.216 20.7283 139.298 19.6673 139.298 21.6795C139.298 22.4112 138.634 22.8136 137.304 22.8136C135.68 22.8136 134.646 22.0453 134.166 20.6551L129.366 23.3624C130.806 26.3258 133.612 27.7161 137.304 27.7161C141.292 27.7161 144.984 25.9234 144.984 21.7161C144.984 14.9478 135.901 16.338 135.901 14.2527Z" fill="#081529"/>
<path d="M158.567 8.39899C156.13 8.39899 154.284 9.27704 153.287 10.6307V1.59411H147.749V27.2039H153.287V17.2161C153.287 14.6185 154.69 13.4478 156.721 13.4478C158.493 13.4478 159.933 14.5087 159.933 16.777V27.2039H165.471V15.9722C165.471 11.0331 162.296 8.39899 158.567 8.39899Z" fill="#081529"/>
<path d="M172.044 7.30143C173.853 7.30143 175.366 5.80143 175.366 4.00875C175.366 2.21606 173.853 0.716064 172.044 0.716064C170.234 0.716064 168.721 2.21606 168.721 4.00875C168.721 5.80143 170.234 7.30143 172.044 7.30143ZM169.274 27.2039H174.813V8.91119H169.274V27.2039Z" fill="#081529"/>
</svg>
