<svg width="924" height="491" viewBox="0 0 924 491" fill="none" xmlns="http://www.w3.org/2000/svg">
<g clip-path="url(#clip0)">
<path d="M714.138 470.548C707.522 479.158 699.742 485.543 701.436 488.43C701.436 488.43 704.955 491 714.694 491C731.367 491 747.775 489.728 745.075 488.033C741.344 485.702 730.546 484.827 720.225 481.278C717.685 480.403 725.809 475.449 723.586 474.628C719.008 472.959 715.409 471.502 714.138 470.548Z" fill="#002E4F"/>
<path d="M886.024 487.927C886.024 487.927 888.221 491 896.636 491C911.059 491 926.091 489.04 923.762 487.583C920.533 485.569 895.26 480.271 895.26 480.271L889.597 473.224L879.99 478.549L886.024 487.927Z" fill="#002E4F"/>
<path d="M840.32 275.118C829.972 275.118 822.139 273.052 821.503 272.866C816.105 271.383 812.929 265.819 814.411 260.415C815.867 255.011 821.424 251.832 826.823 253.289C827.167 253.395 849.953 259.223 863.238 247.805C872.13 240.149 875.517 225.764 873.294 204.994L872.58 198.371L893.063 186.741C897.932 183.986 904.125 185.681 906.877 190.556C909.63 195.43 907.936 201.603 903.066 204.385L894.016 209.524C895.445 233.976 889.517 252.044 876.338 263.276C865.196 272.787 851.329 275.118 840.32 275.118Z" fill="#FFE8CD"/>
<path d="M875.385 218.876C874.988 233.632 871.097 244.281 863.661 250.666C849.079 263.197 824.097 256.812 823.673 256.706C817.745 255.117 811.659 258.613 810.044 264.521C808.43 270.455 811.923 276.575 817.851 278.191C818.566 278.376 827.167 282.668 838.52 282.271C881.604 280.734 907.618 243.513 908.094 221.843L875.385 218.876Z" fill="#E1F3F6"/>
<path d="M816.132 167.269C812.268 165.548 808.483 163.667 804.752 161.68C769.052 182.025 723.427 208.12 722.527 209.021C722.527 209.021 745.207 245.156 746.663 246.613C747.589 247.54 803.826 207.166 844.263 177.919C834.895 174.316 825.262 171.376 816.132 167.269Z" fill="#67A8FF"/>
<path d="M816.714 166.21C826.056 170.343 835.901 173.336 845.402 177.072C867.685 160.965 884.886 148.434 884.886 148.434L846.831 137.731C846.831 137.731 828.517 148.142 805.943 160.991C809.463 162.845 813.062 164.594 816.714 166.21Z" fill="#6BAAFF"/>
<path d="M751.082 118.763L773.497 179.509L817.296 195.589L761.827 94.1255L751.082 118.763Z" fill="#0743E7"/>
<path d="M819.704 210.531H787.232L816.131 261.051L860.168 279.622L819.704 210.531Z" fill="#0743E7"/>
<path d="M860.168 279.622L834.339 235.486L723.797 300.365L702.07 263.25L715.726 42.5724L765.399 13.4314L854.796 166.104L884.886 148.46L909.894 191.192L879.804 208.835L905.633 252.944L860.168 279.622ZM759.895 108.378L757.089 110.021L749.494 227.883L809.304 192.781L759.895 108.378Z" fill="#1F5BFF"/>
<path d="M665.312 253.156L702.044 263.25L723.797 300.365L684.948 290.536L665.312 253.156Z" fill="#67A8FF"/>
<path d="M665.312 253.156L702.044 263.25L715.699 42.5724L681.984 34.4924L665.312 253.156Z" fill="#6BAAFF"/>
<path d="M681.983 34.4924L715.699 42.5724L765.372 13.4049L731.233 3.47046L681.983 34.4924Z" fill="#509AFF"/>
<path d="M755.898 341.083C755.898 341.083 761.297 399.391 761.297 419.816C761.297 419.816 718.875 452.905 708.501 470.23C712.973 473.621 721.786 478.151 727.555 477.966C755.872 450.918 786.915 431.605 786.915 431.605C786.915 431.605 800.305 392.689 804.487 359.733L755.898 341.083Z" fill="#002E4F"/>
<path d="M786.148 343.838C795.701 343.917 805.467 342.248 813.671 337.798C810.918 326.141 816.793 291.781 824.151 273.422C824.151 273.422 829.973 260.627 825.897 256.706C810.812 242.188 797.977 243.354 793.981 243.195C780.14 254.905 754.364 289.45 755.396 335.095C762.515 342.619 776.965 343.785 786.148 343.838Z" fill="#E1F3F6"/>
<path d="M879.725 480.138C885.256 478.602 890.548 476.059 893.936 471.529C877.555 444.931 817.481 347.255 814.226 339.599C814.146 339.414 814.067 339.175 813.987 338.963C805.175 343.732 794.642 345.401 784.427 345.003C775.535 344.659 762.673 343.414 755.422 336.818C755.448 337.294 755.448 337.745 755.475 338.222C756.719 363.733 841.219 448.746 874.485 481.251C876.311 480.986 878.084 480.589 879.725 480.138Z" fill="#00396A"/>
<path d="M705.299 317.399C702.943 317.399 700.694 317.055 698.55 316.339C694.078 314.856 688.176 311.067 685.371 301.663C683.783 296.285 686.826 290.642 692.199 289.053C697.571 287.463 703.208 290.536 704.796 295.888C704.981 296.523 705.166 296.921 705.272 297.133C706.357 297.186 710.353 296.815 720.118 291.093C728.852 285.953 739.173 278.323 749.15 270.932C766.007 258.455 781.939 246.639 795.092 242.48C800.411 240.784 806.101 243.752 807.795 249.076C809.488 254.428 806.524 260.124 801.205 261.793C791.281 264.945 775.985 276.257 761.191 287.198C739.57 303.279 720.463 317.399 705.299 317.399Z" fill="#FFE8CD"/>
<path d="M724.247 309.822C723.003 303.862 721.706 297.265 717.922 292.364C709.771 296.894 706.278 297.186 705.272 297.159C705.14 296.921 704.981 296.523 704.796 295.914C703.208 290.536 697.571 287.49 692.199 289.079C686.826 290.669 683.783 296.311 685.371 301.689C688.15 311.12 694.078 314.882 698.55 316.366C700.694 317.081 702.943 317.425 705.298 317.425C711.174 317.425 717.657 315.306 724.644 311.756C724.512 311.094 724.379 310.458 724.247 309.822Z" fill="#FFE8CD"/>
<path d="M807.795 249.103C806.101 243.778 800.411 240.811 795.092 242.506C781.939 246.666 766.008 258.455 749.15 270.959C739.173 278.35 728.852 285.98 720.118 291.119C719.721 291.357 719.351 291.569 718.954 291.781C722.738 296.788 729.302 321.479 729.407 322.061C740.152 316.445 791.651 277.184 802.819 265.342C806.71 261.236 809.488 254.454 807.795 249.103Z" fill="#E1F3F6"/>
<path d="M690.982 309.213C690.373 309.213 689.791 309.027 689.262 308.657C681.322 302.961 677.167 292.02 677.009 291.569C676.426 290.033 677.22 288.311 678.755 287.728C680.29 287.172 682.01 287.94 682.593 289.476C682.619 289.582 686.298 299.199 692.728 303.809C694.078 304.762 694.369 306.617 693.416 307.968C692.808 308.789 691.908 309.213 690.982 309.213Z" fill="#FFE8CD"/>
<path d="M690.982 301.954C690.056 301.954 689.13 301.504 688.548 300.683C684.737 295.278 681.693 282.483 681.376 281.052C681.005 279.436 682.011 277.847 683.599 277.476C685.213 277.105 686.801 278.111 687.171 279.701C688.018 283.304 690.771 293.503 693.417 297.265C694.37 298.616 694.052 300.471 692.702 301.424C692.173 301.769 691.564 301.954 690.982 301.954Z" fill="#FFE8CD"/>
<path d="M695.084 300.259C693.919 300.259 692.781 299.57 692.331 298.404C689.605 291.702 688.547 277.661 688.494 277.078C688.362 275.436 689.606 274.005 691.246 273.873C692.887 273.74 694.316 274.985 694.448 276.628C694.74 280.416 695.878 291.331 697.862 296.152C698.498 297.689 697.756 299.411 696.222 300.047C695.851 300.206 695.454 300.259 695.084 300.259Z" fill="#FFE8CD"/>
<path d="M699.556 298.828C698.233 298.828 697.016 297.927 696.672 296.603C694.793 289.318 696.513 281.9 696.592 281.582C696.963 279.966 698.577 278.986 700.165 279.357C701.753 279.728 702.759 281.344 702.388 282.933C702.362 283.066 700.959 289.318 702.441 295.093C702.864 296.682 701.885 298.325 700.297 298.722C700.059 298.802 699.795 298.828 699.556 298.828Z" fill="#FFE8CD"/>
<path d="M819.307 265.316C817.931 265.316 816.554 265.025 815.231 264.389C810.468 262.137 808.43 256.441 810.679 251.699C813.035 246.719 817.269 241.606 817.745 241.049C821.133 237.023 827.14 236.519 831.189 239.91C835.212 243.301 835.715 249.315 832.327 253.342C831.136 254.772 828.887 257.792 827.908 259.859C826.32 263.303 822.879 265.316 819.307 265.316Z" fill="#FFE8CD"/>
<path d="M820.683 260.389C821.821 261.634 822.985 262.799 824.229 263.938C825.791 263.011 827.114 261.607 827.934 259.859C828.913 257.792 831.163 254.772 832.354 253.342C835.741 249.315 835.238 243.301 831.216 239.91C827.193 236.519 821.186 237.023 817.772 241.049C817.587 241.288 816.819 242.215 815.787 243.566C815.893 249.553 816.528 255.805 820.683 260.389Z" fill="#83A4FF"/>
<path d="M851.991 249.871C848.206 259.09 837.673 263.461 828.464 259.673C819.254 255.885 814.888 245.341 818.672 236.122L823.436 224.545C827.22 215.326 837.779 210.955 846.962 214.743C856.172 218.531 860.538 229.075 856.754 238.294L851.991 249.871Z" fill="#FFE8CD"/>
<path d="M820.684 234.771C819.228 240.97 810.31 238.983 806.975 235.751C802.37 231.3 799.618 218.69 809.833 219.353C802.476 208.253 827.406 196.225 830.026 209.047C831.984 205.736 833.969 202.769 838.309 202.477C841.432 202.265 846.883 204.703 846.433 208.517C851.065 204.862 857.813 205.126 862.391 208.835C863.847 210.027 866.493 212.65 865.17 214.584C864.456 215.644 860.698 215.962 859.427 216.359C861.597 215.379 870.463 217.366 868.716 221.048C867.896 222.77 863.556 221.234 862.285 220.863V221.26C867.022 223.856 868.981 226.505 868.425 232.413C868.16 235.142 866.89 240.255 863.662 240.652C861.994 240.837 860.089 239.804 860.115 238.082C864.085 242.03 858.475 252.626 853.473 247.407C851.514 245.368 852.467 241.924 854.32 240.149C851.356 238.453 844.951 229.446 849.503 227.035C847.36 227.088 837.488 223.724 840.638 220.889C841.458 224.201 837.383 228.466 834.127 226.77C836.139 231.168 830.211 234.453 826.559 234.612C828.782 237.42 821.901 240.758 819.81 236.678L820.684 234.771Z" fill="#00396A"/>
<path d="M482.099 198.768C482.099 198.768 476.304 176.595 505.017 171.323L502.821 197.974L482.099 198.768Z" fill="#2F80ED"/>
<path d="M367.112 254.746C360.84 254.746 354.991 253.474 349.593 250.931C323.525 238.612 320.641 201.55 320.508 199.987C320.111 194.397 324.319 189.549 329.903 189.152C335.461 188.755 340.304 192.967 340.701 198.53C341.256 205.974 345.517 226.611 358.273 232.599C368.806 237.553 385.108 232.519 405.485 218.028C410.037 214.796 416.362 215.856 419.617 220.412C422.846 224.969 421.787 231.3 417.209 234.559C398.34 247.99 381.561 254.746 367.112 254.746Z" fill="#CDE5E8"/>
<path d="M420.993 273.767C423.798 266.376 426.418 258.852 429.462 251.54C427.424 251.381 425.333 251.116 423.243 250.719C413.424 248.838 405.088 244.838 398.287 238.718C391.459 232.598 386.219 224.836 382.488 215.458C378.783 206.08 376.612 195.404 376.004 183.43C375.395 171.482 376.348 158.845 378.888 145.546C381.482 131.982 385.24 119.823 390.189 109.067C395.137 98.3113 401.065 89.2511 407.973 81.8863C414.88 74.5216 422.634 69.2497 431.208 66.0707C439.783 62.8917 448.992 62.2294 458.837 64.1103C466.617 65.5938 473.472 68.5344 479.426 72.8791C482.284 67.1569 485.381 61.5141 488.318 55.8978C491.785 49.2484 495.014 42.4929 498.11 35.658C499.433 32.7439 500.571 29.7239 501.762 26.7568C491.811 21.061 480.644 17.0343 468.285 14.6765C450.765 11.3385 434.252 11.9478 418.797 16.5839C403.315 21.1935 389.395 28.9291 377.009 39.7908C364.624 50.6524 354.091 64.2692 345.464 80.6677C336.837 97.0662 330.591 115.372 326.727 135.559C322.864 155.772 321.937 175.085 323.922 193.497C325.907 211.908 330.671 228.466 338.186 243.116C345.702 257.792 355.812 270.111 368.488 280.098C380.291 289.424 394.211 295.835 410.222 299.384C414.033 290.934 417.711 282.43 420.993 273.767Z" fill="#6BAAFF"/>
<path d="M558.157 121.333C556.173 102.921 551.409 86.3634 543.893 71.7134C536.377 57.037 526.268 44.7183 513.592 34.7308C510.178 32.0287 506.579 29.5914 502.821 27.3926C501.63 30.3597 500.492 33.3797 499.169 36.2673C496.019 43.0758 492.87 49.8577 489.377 56.5071C486.413 62.1499 483.29 67.8191 480.405 73.5944C481.438 74.3891 482.443 75.1839 483.396 76.0581C490.197 82.1777 495.543 89.9398 499.38 99.3709C503.218 108.776 505.467 119.399 506.102 131.241C506.737 143.083 505.758 155.772 503.165 169.309C500.624 182.608 496.866 194.689 491.917 205.603C486.942 216.491 480.935 225.605 473.895 232.943C466.856 240.281 459.049 245.526 450.448 248.706C444.123 251.037 437.533 252.017 430.679 251.646C427.318 259.647 424.46 267.886 421.39 275.992C418.347 284.019 414.933 291.861 411.413 299.676C412.207 299.835 413.001 300.02 413.795 300.153C431.314 303.517 447.801 302.881 463.283 298.245C478.738 293.636 492.685 285.9 505.07 275.038C517.455 264.177 527.962 250.56 536.616 234.162C545.243 217.763 551.488 199.484 555.352 179.27C559.216 159.084 560.142 139.745 558.157 121.333Z" fill="#0743E7"/>
<path d="M444.759 310.67C427.239 307.305 412.128 300.63 399.452 290.642C386.775 280.655 376.666 268.309 369.15 253.659C361.634 238.983 356.871 222.452 354.886 204.04C352.901 185.628 353.827 166.316 357.691 146.103C361.555 125.916 367.774 107.61 376.428 91.2114C385.055 74.813 395.562 61.1962 407.973 50.3345C420.359 39.4728 434.279 31.7372 449.76 27.1276C465.215 22.5181 481.729 21.8823 499.249 25.2202C516.768 28.5582 531.879 35.2606 544.555 45.2481C557.232 55.262 567.341 67.5807 574.857 82.2307C582.373 96.9072 587.136 113.438 589.121 131.876C591.106 150.315 590.18 169.627 586.316 189.814C582.452 210.027 576.207 228.307 567.579 244.705C558.952 261.104 548.446 274.72 536.034 285.582C523.649 296.444 509.702 304.179 494.247 308.789C478.792 313.399 462.304 314.034 444.759 310.67ZM454.206 261.236C463.76 263.064 472.837 262.402 481.438 259.196C490.013 256.017 497.846 250.772 504.885 243.434C511.925 236.095 517.932 226.982 522.908 216.094C527.883 205.206 531.641 193.099 534.155 179.8C536.748 166.236 537.728 153.547 537.092 141.731C536.457 129.916 534.208 119.266 530.371 109.862C526.533 100.457 521.187 92.6685 514.386 86.5489C507.558 80.4292 499.381 76.4555 489.827 74.6275C480.009 72.7466 470.799 73.4089 462.199 76.5879C453.598 79.767 445.87 85.0388 438.963 92.4036C432.056 99.7683 426.128 108.829 421.179 119.584C416.23 130.34 412.472 142.5 409.879 156.063C407.338 169.362 406.385 181.973 406.994 193.947C407.603 205.921 409.746 216.571 413.478 225.975C417.183 235.354 422.449 243.116 429.277 249.235C436.052 255.355 444.388 259.355 454.206 261.236Z" fill="#1F5BFF"/>
<path d="M623.446 161.786L624.214 199.06C624.214 199.06 613.575 208.597 604.048 199.06L607.568 157.097L623.446 161.786Z" fill="#00396A"/>
<path d="M579.595 459.13C578.986 458.653 574.831 456.72 574.276 456.243C572.053 459.581 570.491 461.435 567.818 464.19C574.381 469.912 572.688 476.88 572.688 476.88C572.688 476.88 568.056 480.88 566.23 481.781C560.435 484.642 549.743 488.616 549.743 488.616L576.657 490.735L596.611 470.283C589.519 466.283 584.094 462.68 579.595 459.13Z" fill="#002E4F"/>
<path d="M474.161 460.587C469.873 459.846 464.475 463.131 460.981 460.587C460.161 468.085 460.32 472.164 460.32 472.164L420.518 488.589H471.355C471.805 483.158 470.853 477.966 471.567 472.933C471.938 470.363 473.711 463.078 474.161 460.587Z" fill="#002E4F"/>
<path d="M520.499 279.701L475.51 365.27C475.51 365.27 493.744 380.714 511.686 385.854L545.402 285.052L520.499 279.701Z" fill="#CDE5E8"/>
<path d="M569.749 466.31C572.448 463.554 574.671 460.243 576.894 456.905C565.25 446.918 559.56 436.639 543.761 418.942C537.224 411.604 554.558 369.667 558.766 362.62C566.335 349.984 567.499 340.818 573.401 319.174L529.47 335.599C519.017 373.085 506.843 410.597 519.043 428.479C531.958 447.394 554.85 462.627 565.912 470.23C566.335 470.522 569.405 466.045 569.749 466.31Z" fill="#002E4F"/>
<path d="M495.782 194.371C495.174 194.371 494.565 194.185 494.036 193.814C492.712 192.861 492.395 190.98 493.348 189.655C496.894 184.728 497.661 180.648 497.661 180.622C497.952 179.006 499.487 177.919 501.128 178.211C502.742 178.502 503.827 180.039 503.536 181.655C503.51 181.867 502.584 187.006 498.191 193.126C497.635 193.92 496.709 194.371 495.782 194.371Z" fill="#FFE8CD"/>
<path d="M570.279 328.234C583.352 292.285 594.52 235.883 598.701 213.392C596.372 212.412 594.07 211.696 592.244 211.193C588.354 210.133 583.723 208.862 579.726 210.107C577.715 210.743 575.916 211.776 574.143 212.888C572.502 217.763 571.84 221.896 571.84 221.896C571.84 221.896 543.762 275.648 525.448 312.312C541.009 315.756 556.226 320.869 570.279 328.234Z" fill="#F6EE9E"/>
<path d="M524.946 313.372C523.305 316.604 521.77 319.73 520.341 322.644C516.742 329.029 512.852 334.937 509.094 340.606C472.944 395.153 459.315 438.626 456.88 459.21C460.32 461.912 473.394 463.422 477.734 464.19C484.403 430.069 501.763 408.319 532.832 382.595C543.233 373.986 551.013 363.044 557.868 353.958C561.943 348.553 565.992 339.864 569.882 329.347C555.777 321.956 540.533 316.843 524.946 313.372Z" fill="#00396A"/>
<path d="M489.881 328.367C485.673 328.367 481.757 325.744 480.301 321.558C478.475 316.26 481.28 310.485 486.547 308.657C498.826 304.391 517.669 287.569 530.398 269.528C556.174 232.916 574.276 212.624 575.043 211.776C578.775 207.617 585.179 207.272 589.334 211.008C593.489 214.743 593.833 221.154 590.101 225.313C589.916 225.525 571.973 245.659 546.938 281.211C534.394 299.014 512.217 321.187 493.189 327.81C492.104 328.208 490.993 328.367 489.881 328.367Z" fill="#FFE8CD"/>
<path d="M591.582 216.756C591.344 216.756 591.106 216.756 590.868 216.73C585.628 216.332 581.685 211.776 582.055 206.504C582.452 201.02 584.596 194.715 584.834 194.026C586.554 189.046 591.979 186.397 596.955 188.119C601.93 189.841 604.576 195.271 602.856 200.252C602.248 202 601.242 205.63 601.083 207.908C600.713 212.915 596.531 216.756 591.582 216.756Z" fill="#FFE8CD"/>
<path d="M594.388 206.689C596.082 208.623 597.908 210.345 599.866 211.935C600.554 210.743 600.978 209.365 601.11 207.908C601.269 205.63 602.301 202 602.883 200.252C604.603 195.271 601.957 189.841 596.981 188.119C592.853 186.688 588.434 188.278 586.052 191.695C586.925 197.073 591.318 203.166 594.388 206.689Z" fill="#83A4FF"/>
<path d="M618.947 186.026C618.735 195.987 610.478 203.881 600.528 203.643C590.577 203.404 582.691 195.165 582.929 185.205L583.22 172.674C583.432 162.713 591.689 154.818 601.639 155.03C611.59 155.242 619.476 163.508 619.265 173.469L618.947 186.026Z" fill="#FFE8CD"/>
<path d="M475.59 325.585C471.435 325.585 466.671 324.472 461.352 322.22C459.844 321.585 459.129 319.836 459.764 318.326C460.399 316.816 462.146 316.101 463.654 316.737C471.488 320.048 477.733 320.498 481.703 318.114C483.106 317.266 484.932 317.717 485.805 319.121C486.652 320.525 486.202 322.353 484.799 323.201C482.153 324.79 479.083 325.585 475.59 325.585Z" fill="#FFE8CD"/>
<path d="M479.136 329.903C474.399 329.903 470.588 328.976 466.275 327.943L464.925 327.625C463.337 327.254 462.331 325.638 462.728 324.022C463.099 322.432 464.713 321.426 466.327 321.823L467.677 322.141C474.902 323.89 479.665 325.055 490.251 322.326C491.866 321.929 493.48 322.883 493.877 324.472C494.3 326.062 493.321 327.704 491.733 328.102C486.626 329.426 482.629 329.903 479.136 329.903Z" fill="#FFE8CD"/>
<path d="M475.377 319.704C466.036 319.704 459.631 313.955 459.287 313.637C458.07 312.524 457.99 310.643 459.102 309.425C460.213 308.206 462.092 308.127 463.31 309.239C463.601 309.504 470.455 315.544 479.665 313.187C481.279 312.763 482.893 313.743 483.29 315.333C483.714 316.922 482.734 318.565 481.147 318.962C479.135 319.492 477.203 319.704 475.377 319.704Z" fill="#FFE8CD"/>
<path d="M481.624 316.498C481.518 316.498 481.386 316.498 481.28 316.472C471.144 315.279 467.016 307.968 466.831 307.65C466.037 306.219 466.566 304.391 468.022 303.597C469.451 302.802 471.25 303.332 472.044 304.762C472.176 305.001 475.008 309.716 481.968 310.537C483.609 310.723 484.773 312.206 484.588 313.849C484.403 315.385 483.106 316.498 481.624 316.498Z" fill="#FFE8CD"/>
<path d="M517.218 198.662C517.059 198.662 516.9 198.662 516.741 198.609C511.819 197.788 498.322 195.669 495.199 195.669C493.559 195.669 492.209 194.344 492.209 192.675C492.209 191.033 493.532 189.682 495.199 189.682C499.381 189.682 515.868 192.384 517.721 192.702C519.335 192.967 520.446 194.503 520.182 196.119C519.917 197.629 518.647 198.662 517.218 198.662Z" fill="#FFE8CD"/>
<path d="M515.312 204.914C515.048 204.914 514.783 204.888 514.518 204.809C514.386 204.782 500.201 200.914 493.612 200.543C491.971 200.437 490.727 199.033 490.806 197.391C490.912 195.748 492.315 194.45 493.956 194.583C501.18 195.007 515.471 198.901 516.08 199.06C517.668 199.484 518.594 201.126 518.17 202.716C517.826 204.067 516.609 204.914 515.312 204.914Z" fill="#FFE8CD"/>
<path d="M513.884 211.484C513.566 211.484 513.275 211.431 512.958 211.352C499.54 207.007 496.232 206.742 494.459 206.61C493.692 206.557 492.977 206.478 491.972 206.239C490.384 205.815 489.431 204.199 489.855 202.583C490.278 200.994 491.919 200.04 493.507 200.464C493.983 200.596 494.327 200.623 494.936 200.676C497.106 200.861 500.705 201.153 514.784 205.683C516.345 206.186 517.219 207.882 516.716 209.445C516.292 210.69 515.128 211.484 513.884 211.484Z" fill="#FFE8CD"/>
<path d="M507.982 216.253C507.902 216.253 507.85 216.253 507.77 216.253C494.326 215.299 493.771 207.988 493.771 207.166L499.725 207.034C499.725 207.034 499.725 206.954 499.699 206.848C499.699 206.875 500.307 209.762 508.194 210.319C509.834 210.425 511.078 211.855 510.946 213.498C510.84 215.061 509.543 216.253 507.982 216.253Z" fill="#FFE8CD"/>
<path d="M496.735 212.677C496.735 212.677 494.142 211.484 490.119 211.484C486.732 211.484 482.127 205.736 482.127 199.749C482.127 199.749 480.486 182.132 499.038 190.106L496.735 212.677Z" fill="#FFE8CD"/>
<path d="M555.194 265.025L529.153 393.325C529.153 393.325 569.458 403.047 594.203 388.794L600.448 210.531C600.475 210.531 572.793 200.835 555.194 265.025Z" fill="#CDE5E8"/>
<path d="M561.228 335.599L586.158 334.248C586.158 334.248 586.766 372.423 571.867 370.939C571.867 370.939 551.489 375.39 561.228 335.599Z" fill="#E1F3F6"/>
<path d="M592.535 207.484C589.809 205.021 586.263 203.669 582.585 203.669C578.35 203.669 574.301 205.471 571.496 208.623C570.729 209.471 552.521 229.87 526.507 266.8C524.813 269.21 522.934 271.674 520.923 274.138L518.276 277.396L521.161 280.443C524.231 283.701 527.459 286.854 530.556 289.927C532.249 291.596 533.943 293.238 535.61 294.934L539.289 298.616L542.623 294.616C545.614 291.04 548.366 287.49 550.827 284.019C575.704 248.706 593.488 228.757 593.647 228.572C599.151 222.399 598.648 212.968 592.535 207.484Z" fill="#E1F3F6"/>
<path d="M524.13 265.883L514.066 277.096L540.27 300.661L550.333 289.447L524.13 265.883Z" fill="#F8FDFF"/>
<path d="M564.827 193.179L587.719 202.159C587.719 202.159 597.458 154.712 590.339 147.613C590.365 147.613 564.827 145.202 564.827 193.179Z" fill="#00396A"/>
<path d="M591.689 155.878C592.509 157.097 610.267 168.965 624.213 165.68C624.213 165.68 621.831 144.699 589.254 147.745L591.689 155.878Z" fill="#00396A"/>
<path d="M605.397 178.237C605.397 183.747 600.925 188.198 595.447 188.198C589.942 188.198 585.496 183.747 585.496 178.237C585.496 172.727 589.942 168.276 595.447 168.276C600.925 168.276 605.397 172.753 605.397 178.237Z" stroke="#DDDD67" stroke-width="0.8679" stroke-miterlimit="10"/>
<path d="M627.892 180.198C627.892 184.993 624.028 188.86 619.238 188.86C614.448 188.86 610.584 184.966 610.584 180.198C610.584 175.403 614.474 171.535 619.238 171.535C624.001 171.535 627.892 175.403 627.892 180.198Z" stroke="#DDDD67" stroke-width="0.755" stroke-miterlimit="10"/>
<path d="M605.396 178.237C605.396 178.237 608.705 176.939 610.663 178.926" stroke="#DDDD67" stroke-width="0.8679" stroke-miterlimit="10"/>
<path d="M315.639 195.695C315.401 195.695 315.163 195.695 314.925 195.669C309.685 195.298 305.742 190.715 306.112 185.443C306.509 179.959 308.653 173.654 308.891 172.965C310.611 167.985 316.036 165.336 321.011 167.058C325.987 168.78 328.633 174.211 326.913 179.191C326.304 180.939 325.299 184.569 325.14 186.847C324.769 191.881 320.588 195.695 315.639 195.695Z" fill="#83A4FF"/>
<path d="M309.976 460.535C325.775 467.82 338.716 467.687 339.774 467.82C350.069 449.487 381.085 399.815 352.874 359.071L312.966 337.612C312.966 337.612 352.848 379.284 309.976 460.535Z" fill="#002E4F"/>
<path d="M330.645 476.748C330.645 476.748 334.324 469.25 337.208 464.243C335.038 463.978 325.379 463.581 321.409 462.071C317.678 469.701 309.553 480.854 303.837 488.51H357.454L330.645 476.748Z" fill="#002E4F"/>
<path d="M396.964 361.455C390.295 348.5 341.865 309.478 337.472 287.066C337.075 285.079 336.758 283.039 336.467 280.973C328.686 285.079 318.603 286.218 310.584 286.615C301.507 287.066 296.082 287.649 287.296 283.357C288.037 297.265 285.787 310.697 293.886 324.79C309.976 352.739 363.407 376.688 369.388 385.907C381.138 404.133 385.214 443.686 389.21 467.82C395.508 467.82 410.434 467.555 416.547 465.356C414.483 452.984 417.844 402.04 396.964 361.455Z" fill="#00396A"/>
<path d="M413.663 474.575C413.663 474.575 411.916 467.528 411.413 464.217C405.274 466.363 401.701 464.19 395.402 464.217C396.355 470.204 395.641 481.384 396.196 487.954H447.034L413.663 474.575Z" fill="#002E4F"/>
<path d="M310.955 293.927C318.709 293.583 334.958 291.41 341.495 284.894C340.172 274.244 335.408 257.13 337.075 243.354C342.739 196.649 319.979 182.661 319.979 182.661C319.979 182.661 309.5 175.323 301.005 184.092C288.196 197.311 275.678 234.665 276.949 289.9C285.761 294.457 301.666 294.351 310.955 293.927Z" fill="#CDE5E8"/>
<path d="M427.795 308.683C427.028 308.683 426.26 308.604 425.493 308.418C388.787 299.888 357.691 277.873 335.594 244.732C319.027 219.909 313.311 197.629 313.073 196.702C311.696 191.271 315.005 185.761 320.43 184.383C325.855 183.006 331.359 186.291 332.709 191.722C332.815 192.119 338.081 212.173 352.822 234.029C372.247 262.879 398.261 281.238 430.071 288.655C435.523 289.927 438.91 295.358 437.64 300.815C436.555 305.504 432.4 308.683 427.795 308.683Z" fill="#FFE8CD"/>
<path d="M405.459 278.218C385.24 268.627 368.012 253.421 354.277 233.049C339.722 211.458 334.455 191.483 334.429 191.298C333.079 185.999 328.342 182.291 322.89 182.291C321.911 182.291 320.932 182.423 319.979 182.661C316.883 183.43 314.29 185.364 312.675 188.119C311.034 190.847 310.585 194.053 311.352 197.152L311.405 197.364C312.966 204.199 319.238 228.201 334.138 250.507C351.975 277.237 376.163 297.212 404.083 308.339C404.295 308.418 404.533 308.471 404.744 308.471C405.088 308.471 405.459 308.365 405.75 308.153C406.226 307.809 406.544 307.279 406.544 306.67V279.834C406.491 279.145 406.094 278.509 405.459 278.218Z" fill="#E1F3F6"/>
<path d="M435.311 309.398C432.056 309.398 428.615 309.027 424.99 308.312C423.375 307.994 422.343 306.431 422.661 304.815C422.978 303.199 424.54 302.14 426.181 302.484C435.046 304.259 442.456 303.623 448.172 300.55C449.628 299.782 451.428 300.338 452.195 301.769C452.962 303.226 452.407 305.027 450.978 305.795C446.452 308.206 441.212 309.398 435.311 309.398Z" fill="#FFE8CD"/>
<path d="M435.734 302.722C434.305 302.722 432.849 302.616 431.367 302.404C429.727 302.166 428.615 300.656 428.853 299.014C429.092 297.371 430.6 296.258 432.241 296.497C441.768 297.901 450.581 292.947 450.686 292.894C452.115 292.073 453.942 292.576 454.762 294.007C455.582 295.437 455.079 297.239 453.677 298.086C453.253 298.298 445.446 302.722 435.734 302.722Z" fill="#FFE8CD"/>
<path d="M433.088 296.868C432.638 296.868 432.162 296.841 431.659 296.815C430.018 296.709 428.774 295.305 428.88 293.662C428.986 292.02 430.389 290.775 432.03 290.881C439.069 291.304 442.774 287.039 442.801 286.986C443.833 285.715 445.712 285.503 446.982 286.562C448.252 287.596 448.464 289.476 447.405 290.748C447.22 290.987 442.351 296.868 433.088 296.868Z" fill="#FFE8CD"/>
<path d="M422.793 291.834C421.152 291.834 419.803 290.51 419.803 288.841C419.803 287.198 421.126 285.874 422.767 285.847C423.031 285.847 428.906 285.715 432.267 280.867C433.194 279.516 435.073 279.171 436.422 280.125C437.772 281.052 438.116 282.907 437.163 284.284C432.003 291.755 423.164 291.834 422.793 291.834Z" fill="#FFE8CD"/>
<path d="M413.054 224.518C412.128 224.518 411.202 224.095 410.62 223.273C406.227 217.154 405.3 212.014 405.274 211.776C404.983 210.16 406.094 208.623 407.709 208.332C409.323 208.041 410.858 209.127 411.149 210.769C411.149 210.796 411.943 214.849 415.463 219.776C416.415 221.128 416.124 222.982 414.775 223.936C414.245 224.333 413.637 224.518 413.054 224.518Z" fill="#FFE8CD"/>
<path d="M413.663 225.843C413.478 225.843 413.292 225.817 413.107 225.79C406.597 224.545 393.656 224.519 393.524 224.519C391.883 224.519 390.533 223.194 390.533 221.525C390.533 219.856 391.856 218.531 393.524 218.531C394.079 218.531 407.153 218.558 414.219 219.909C415.833 220.227 416.892 221.79 416.574 223.406C416.309 224.863 415.066 225.843 413.663 225.843Z" fill="#FFE8CD"/>
<path d="M391.883 232.042C390.401 232.042 389.131 230.93 388.919 229.42C388.708 227.777 389.872 226.294 391.513 226.082C393.392 225.843 410.144 223.803 415.542 224.757C417.157 225.048 418.242 226.585 417.951 228.201C417.66 229.817 416.125 230.903 414.51 230.612C411.096 230.002 399.055 231.142 392.254 231.963C392.148 232.042 392.016 232.042 391.883 232.042Z" fill="#FFE8CD"/>
<path d="M395.773 238.798C394.37 238.798 393.127 237.817 392.862 236.387C392.544 234.771 393.603 233.208 395.217 232.89C402.442 231.486 404.347 230.877 407.841 229.764C409.482 229.234 411.519 228.572 414.563 227.698C416.151 227.247 417.791 228.148 418.241 229.737C418.691 231.327 417.791 232.969 416.203 233.42C413.239 234.268 411.334 234.903 409.667 235.433C406.068 236.599 403.898 237.288 396.329 238.745C396.144 238.771 395.958 238.798 395.773 238.798Z" fill="#FFE8CD"/>
<path d="M402.177 243.54C400.748 243.54 399.505 242.506 399.24 241.049C398.975 239.433 400.06 237.87 401.675 237.605C411.334 235.936 413.24 232.36 413.266 232.307C413.795 230.744 415.463 229.896 417.024 230.4C418.585 230.93 419.432 232.599 418.929 234.162C418.559 235.327 415.965 241.182 402.707 243.46C402.521 243.513 402.336 243.54 402.177 243.54Z" fill="#FFE8CD"/>
<path d="M413.663 239.937L411.387 215.644C411.387 215.644 422.025 216.412 422.025 227.592C421.999 231.327 420.94 235.486 413.663 239.937Z" fill="#FFE8CD"/>
<path d="M346.628 160.779C349.328 170.952 343.267 181.39 333.079 184.065C322.916 186.768 312.489 180.701 309.79 170.528L306.403 157.733C303.703 147.56 309.764 137.122 319.952 134.446C330.115 131.744 340.542 137.811 343.241 147.984L346.628 160.779Z" fill="#FFE8CD"/>
<path d="M344.829 153.997C343.373 158.024 341.336 162.024 338.186 164.753C330.512 171.376 318.762 173.151 309.446 169.177L309.79 170.502C312.49 180.674 322.89 186.741 333.079 184.039C343.241 181.337 349.301 170.925 346.629 160.753L344.829 153.997Z" fill="#00396A"/>
<path d="M309.764 169.813C302.619 165.23 294.891 147.745 306.191 143.93C313.178 141.573 310.373 163.137 310.373 169.23L309.764 169.813Z" fill="#00396A"/>
<path d="M304.021 145.361C295.368 139.082 306.086 121.359 327.442 121.359C340.648 121.359 340.542 131.479 331.412 136.936C323.843 141.467 312.093 138.817 306.403 146.553L304.021 145.361Z" fill="#00396A"/>
<path d="M344.829 157.918C341.812 153.335 335.831 144.01 333.529 138.791C332.047 135.453 330.035 129.784 336.704 133.81C342.288 137.175 345.305 149.07 344.776 155.11L344.829 157.918Z" fill="#00396A"/>
<path d="M193.93 200.331C190.649 203.378 187.023 206.213 184.059 209.604L141.055 299.517L173.076 258.163L207.083 187.801C202.716 192.013 198.376 196.225 193.93 200.331Z" fill="#0743E7"/>
<path d="M168.419 185.549C171.541 181.284 174.532 176.25 178.078 171.853L102.84 135.082L31.4395 142.235L156.563 199.987C160.638 195.298 164.766 190.556 168.419 185.549Z" fill="#0743E7"/>
<path d="M179.163 172.383C175.167 177.39 171.912 183.297 168.074 187.96C164.634 192.172 161.167 196.358 157.621 200.49L214.493 226.744L235.135 199.749L179.163 172.383Z" fill="#6BAAFF"/>
<path d="M93.5247 276.734L115.596 230.612L0 175.217L18.5515 136.406L208.882 24.187L260.832 49.0894L184.482 208.703L215.948 223.777L194.592 268.442L163.126 253.368L141.055 299.49L93.5247 276.734ZM179.137 97.7019L176.199 96.2978L74.3911 155.957L136.926 185.92L179.137 97.7019Z" fill="#1F5BFF"/>
<path d="M215.948 223.803L235.161 199.749L220.077 233.261L193.877 269.899L215.948 223.803Z" fill="#0743E7"/>
<path d="M208.565 186.45L283.618 21.7499L260.805 49.063L184.482 208.703C186.6 206.663 207.348 187.668 208.565 186.45Z" fill="#0743E7"/>
<path d="M18.5508 136.407L52.478 106.842L238.442 0L208.882 24.1871L18.5508 136.407Z" fill="#2682FD"/>
<path d="M208.883 24.1871L260.832 49.0894L283.618 21.7763L238.443 0L208.883 24.1871Z" fill="#509AFF"/>
<path d="M145.157 144.487C138.779 139.93 134.36 141.943 131.29 142.394C127.929 142.924 125.441 141.069 125.441 141.069C124.065 140.168 122.213 140.566 121.313 141.943C120.413 143.321 120.81 145.175 122.186 146.076C122.318 146.156 124.938 147.825 129.464 149.017C124.515 153.547 119.46 159.004 119.169 159.296C118.058 160.514 118.137 162.395 119.328 163.508C119.91 164.038 120.625 164.302 121.339 164.302C122.133 164.302 122.954 163.985 123.536 163.349C123.589 163.296 127.108 159.481 131.052 155.693C127.4 160.276 123.986 165.018 123.35 165.892C122.398 167.243 122.689 169.098 124.039 170.051C124.568 170.422 125.177 170.608 125.785 170.608C126.711 170.608 127.638 170.184 128.193 169.362C130.152 166.634 132.904 162.951 135.524 159.64C134.545 161.574 133.301 163.773 130.813 167.773C129.94 169.177 130.364 171.005 131.766 171.879C132.242 172.171 132.798 172.33 133.328 172.33C134.333 172.33 135.286 171.826 135.868 170.925C136.9 169.283 137.721 167.905 138.409 166.74C137.879 168.038 138.329 169.548 139.547 170.343C140.049 170.661 140.605 170.819 141.161 170.819C142.14 170.819 143.093 170.343 143.649 169.468C146.427 165.177 147.803 161.653 148.386 158.898L148.518 158.978C150.212 150.633 148.174 146.659 145.157 144.487ZM139.176 165.468C140.155 163.746 140.843 162.422 141.479 161.123C140.923 162.395 140.182 163.852 139.176 165.468Z" fill="#FFE8CD"/>
<path d="M53.9083 178.317C44.487 177.787 30.8049 196.252 44.8045 201.285C32.1282 200.994 29.0318 218.929 40.6497 223.883C20.2986 219.909 22.6804 246.321 32.2869 255.858C25.7767 254.825 19.1607 261.051 20.1663 267.859C21.172 274.694 23.8713 284.178 40.782 289.265C57.6926 294.351 68.0402 284.84 76.4293 275.86C81.8281 286.88 108.425 271.992 105.487 258.799C115.544 262.375 124.541 250.957 124.727 241.844C124.912 232.943 118.693 226.161 112.765 220.359C116.946 216.544 117.74 209.445 116.629 204.04C114.803 195.033 103.555 194.132 103.555 186.98C103.555 184.463 104.032 176.674 101.888 173.257C98.5005 167.826 92.5725 162.422 85.1361 165.097C53.9082 150.235 53.9083 178.317 53.9083 178.317Z" fill="#00396A"/>
<path d="M72.1418 467.82C63.541 466.31 62.1648 466.76 53.6698 464.667L34.0068 488.722H110.25L65.9757 476.8L72.1418 467.82Z" fill="#002E4F"/>
<path d="M214.122 474.707L209.623 468.773C205.548 471.396 201.314 473.648 196.735 475.264L208.777 488.722H253.448L214.122 474.707Z" fill="#002E4F"/>
<path d="M45.5977 467.899C54.1456 469.992 62.6936 472.164 71.3209 473.648L134.279 396.106L123.561 365.296L79.4719 314.405L92.1748 386.516L45.5977 467.899Z" fill="#002E4F"/>
<path d="M131.236 293.026C113.955 288.443 90.5343 294.245 73.7295 300.603C73.7295 300.603 84.0506 341.692 90.7989 353.958C110.515 389.642 195.756 478.708 195.756 478.708C200.44 477.118 209.465 470.495 213.593 467.82L131.236 293.026Z" fill="#00396A"/>
<path d="M71.4271 316.657C88.0996 310.378 121.577 299.808 138.752 304.1C138.752 304.1 116.019 250.613 105.698 238.824C98.7382 230.876 60.6826 208.464 60.6826 237.764C60.6826 277.899 71.4271 316.657 71.4271 316.657Z" fill="#CDE5E8"/>
<path d="M86.2737 235.274C86.062 235.354 85.8239 235.407 85.5857 235.486C80.5045 236.864 75.2646 233.844 73.8885 228.757C72.4594 223.432 72.38 216.783 72.38 216.067C72.3535 210.796 76.6143 206.504 81.8807 206.477C87.1471 206.451 91.4343 210.716 91.4607 215.961C91.4607 217.816 91.7254 221.578 92.3076 223.777C93.6308 228.651 90.9314 233.632 86.2737 235.274Z" fill="#FFE8CD"/>
<path d="M92.6252 225.843C92.5987 225.154 92.4929 224.465 92.3076 223.777C91.7254 221.578 91.4872 217.816 91.4608 215.961C91.4343 210.69 87.1471 206.451 81.8807 206.477C76.6143 206.504 72.3535 210.796 72.38 216.067C72.38 216.173 72.38 216.465 72.38 216.862C77.1171 222.161 84.8447 224.677 92.6252 225.843Z" fill="#83A4FF"/>
<path d="M101.94 197.232C105.009 206.716 99.8224 216.889 90.3746 219.962C80.9004 223.035 70.7381 217.842 67.6683 208.385L63.8045 196.464C60.7346 186.979 65.9216 176.807 75.3694 173.734C84.8436 170.66 95.0059 175.826 98.0757 185.31L101.94 197.232Z" fill="#FFE8CD"/>
<path d="M208.089 187.668C207.718 187.35 207.268 187.165 206.818 187.059C207.242 186.582 207.718 186.079 208.247 185.496C209.359 184.277 209.28 182.396 208.062 181.284C207.903 181.151 207.745 181.019 207.586 180.939C208.406 179.747 208.274 178.105 207.189 177.072C206.342 176.277 205.151 176.091 204.145 176.462C205.495 175.085 206.342 174.131 206.448 174.025C207.533 172.78 207.427 170.899 206.183 169.813C204.939 168.727 203.06 168.833 201.975 170.078C201.896 170.157 195.439 177.469 188.77 181.257C185.885 176.886 181.995 175.35 181.783 175.27C180.248 174.687 178.581 175.456 177.972 176.966C177.39 178.476 178.131 180.198 179.64 180.833C179.772 180.886 182.048 181.84 183.821 184.569C183.583 185.231 183.292 186.211 183.133 187.324C139.334 246.692 81.1925 225.605 78.5725 224.598C73.3591 222.611 67.5105 225.181 65.4992 230.4C63.4879 235.619 66.0549 241.5 71.2684 243.513C71.9829 243.778 86.1942 249.209 106.492 249.209C110.568 249.209 114.908 248.997 119.407 248.467C141.293 245.924 173.659 233.314 199.514 199.934C199.938 199.696 200.546 199.325 201.34 198.742C201.87 198.398 202.399 198.027 202.955 197.576L202.875 197.523C204.41 196.225 206.289 194.424 208.433 191.854C209.518 190.582 209.359 188.702 208.089 187.668Z" fill="#FFE8CD"/>
<path d="M127.398 224.757L124.937 225.287C118.93 226.585 112.684 227.247 106.412 227.247C91.0365 227.247 80.3714 223.379 79.2069 222.929C77.8308 222.399 76.4017 222.134 74.9462 222.134C69.9974 222.134 65.6308 225.128 63.8312 229.764C62.6932 232.731 62.4815 236.122 64.0429 238.877C69.8651 249.209 85.823 253.395 106.518 253.395C110.911 253.395 115.331 253.13 119.644 252.653C122.291 252.335 125.043 251.885 127.875 251.302L129.621 250.851C129.621 250.851 127.134 243.328 126.604 235.671C126.366 232.731 127.398 224.757 127.398 224.757Z" fill="#E1F3F6"/>
<path d="M63.4082 206.054C69.6537 202.08 71.8238 194.609 71.1357 187.165C76.6138 190.847 80.954 188.595 84.3943 182.264C94.7948 196.834 110.62 175.164 89.0256 167.296C71.7444 161.017 54.8073 178.131 59.2268 195.324L63.4082 206.054Z" fill="#00396A"/>
</g>
<defs>
<clipPath id="clip0">
<rect width="924" height="491" fill="white"/>
</clipPath>
</defs>
</svg>
