<svg width="599" height="430" viewBox="0 0 599 430" fill="none" xmlns="http://www.w3.org/2000/svg">
<g clip-path="url(#clip0)">
<path d="M573.153 430C535.369 430 24.5387 428.899 24.5387 428.838C24.327 428.343 -40.3086 349.152 41.0813 266.358C81.4103 225.334 4.0465 172.186 41.0813 126.551C104.521 48.3821 167.29 92.4034 219.583 70.4208C228.823 66.5391 238.094 60.2948 247.375 50.7091C252.599 45.3186 258.323 40.606 264.453 36.5357C265.394 35.9088 266.342 35.2971 267.301 34.7032C270.97 32.4272 274.777 30.3704 278.696 28.5201C281.329 27.2788 284.009 26.1319 286.743 25.0767H286.745C291.08 23.4022 295.534 21.9571 300.083 20.7363C306.541 19.0006 313.193 17.7084 319.976 16.8342C322.933 16.4494 325.917 16.1486 328.92 15.9218C387.35 11.5304 453.102 36.2273 487.036 72.3247C493.867 79.5936 524.933 117.202 500.445 168.898C484.984 201.536 549.757 232.707 572.773 269.979C631.292 364.738 573.686 428.764 573.153 430Z" fill="#EBF3FA"/>
<g opacity="0.8">
<path opacity="0.8" d="M440.95 209.685C439.389 213.972 437.477 218.034 435.251 221.842C429.91 230.982 422.786 238.666 414.499 244.607C395.246 258.416 369.726 262.797 345.774 254.093C317.28 243.74 298.978 217.774 297.03 189.369C296.77 185.625 296.796 181.84 297.125 178.042C297.665 171.666 299.052 165.253 301.342 158.955C303.196 153.86 305.549 149.089 308.326 144.682C308.356 144.631 308.39 144.583 308.42 144.532C316.131 132.359 327.082 122.962 339.677 117.072C343.249 115.4 346.957 114.011 350.761 112.923C352.574 112.403 354.415 111.952 356.266 111.575C369.262 108.901 383.135 109.679 396.523 114.544C398.298 115.189 400.034 115.895 401.727 116.659C404.119 117.732 406.427 118.923 408.647 120.217C418.002 125.669 425.83 132.986 431.832 141.504H431.835C435.575 146.808 438.602 152.573 440.843 158.649C442.021 161.84 442.982 165.113 443.714 168.449C444.17 170.526 444.537 172.621 444.815 174.742C445.483 179.832 445.621 185.023 445.203 190.243C444.678 196.732 443.283 203.267 440.95 209.685Z" fill="#D7E5FF"/>
<g opacity="0.8">
<path opacity="0.8" d="M358.79 144.471C354.402 147.868 355.565 156.96 347.967 151.837C340.369 146.714 335.601 143.926 333.449 148.399C331.294 152.871 338.028 155.318 336.256 160.191C334.484 165.065 330.879 165.579 327.079 161.578C323.275 157.576 323.166 153.725 317.011 153.853C310.853 153.98 308.227 151.449 308.528 146.829C308.579 146.015 308.494 145.312 308.326 144.685C308.357 144.634 308.39 144.586 308.421 144.535C316.131 132.362 327.082 122.965 339.678 117.075C343.25 115.403 346.957 114.014 350.761 112.926C352.574 112.406 354.415 111.955 356.266 111.577C358.413 112.449 360.715 114.218 361.934 117.766C364.614 125.572 368.961 123.735 365.269 130.275C361.575 136.812 363.097 138.418 367.126 139.618C371.157 140.819 375.8 142.506 375.167 145.692C374.532 148.878 363.179 141.074 358.79 144.471Z" fill="#AECEFF"/>
<path opacity="0.8" d="M440.95 209.685C439.39 213.972 437.478 218.034 435.252 221.842C429.91 230.982 422.786 238.666 414.499 244.607C412.434 244.543 410.555 243.843 408.972 242.431C401.531 235.786 411.391 228.731 416.583 225.296C421.774 221.862 412.136 220.723 407.276 214.033C402.416 207.342 413.796 198.274 406.483 197.785C399.17 197.295 390.277 196.821 388.788 188.992C387.299 181.162 394.991 182.773 393.645 176.177C392.299 169.581 398.661 168.345 405.466 170.228C412.271 172.109 413.11 167.096 421.544 169.372C429.979 171.648 426.009 182.026 435.315 184.621C444.622 187.215 443.454 189.155 443.454 189.155C444.112 189.374 444.696 189.741 445.201 190.238C444.678 196.732 443.283 203.267 440.95 209.685Z" fill="#AECEFF"/>
<path opacity="0.8" d="M444.816 174.739C435.955 175.665 436.555 164.608 429.033 165.266C421.447 165.926 424.693 160.535 420.94 154.969C417.182 149.403 404.522 152.42 407.095 146.785C409.668 141.155 416.738 145.559 420.05 141.512C423.362 137.462 430.369 141.321 430.369 141.321C430.848 141.313 431.338 141.374 431.833 141.504C431.833 141.504 431.833 141.502 431.835 141.504C435.576 146.808 438.602 152.573 440.843 158.649C442.021 161.84 442.982 165.113 443.714 168.449C444.168 170.524 444.538 172.621 444.816 174.739Z" fill="#AECEFF"/>
<path opacity="0.8" d="M388.671 131.684C388.671 131.684 394.685 127.428 389.03 123.47C383.372 119.514 382.689 121.754 378.005 119.463C373.319 117.172 370.032 120.248 372.192 125.695C374.349 131.141 374.435 140.12 379.275 137.11C384.112 134.1 384.634 130.677 388.671 131.684Z" fill="#AECEFF"/>
</g>
</g>
<path d="M41.4098 429.047H67.3151C68.7021 427.869 66.3538 425.196 63.901 425.017C62.8352 424.936 61.4864 425.16 59.9464 425.484C59.5894 420.751 57.5547 399.474 49.8826 400.331C41.2569 401.289 49.8826 409.7 52.3201 414.68C54.1279 418.368 56.0325 423.659 56.902 426.157C56.2008 426.307 55.4767 426.457 54.7347 426.592C53.5924 423.083 49.337 411.28 43.9264 411.968C37.5751 412.773 40.1273 417.506 44.6302 420.315C47.932 422.382 51.9887 425.318 53.9163 426.735C52.2844 427.003 50.5787 427.181 48.85 427.14C44.416 427.038 42.2487 428.346 41.4098 429.047Z" fill="#A8D29F"/>
<path d="M453.676 429.047H429.614C428.324 427.954 430.507 425.471 432.786 425.303C433.775 425.229 435.027 425.435 436.458 425.736C436.789 421.34 438.678 401.577 445.805 402.372C453.819 403.262 445.805 411.076 443.541 415.702C441.863 419.127 440.094 424.041 439.283 426.361C439.933 426.501 440.606 426.638 441.295 426.766C442.358 423.506 446.307 412.541 451.333 413.181C457.233 413.931 454.862 418.324 450.68 420.934C447.613 422.854 443.844 425.581 442.054 426.898C443.571 427.146 445.155 427.314 446.761 427.276C450.884 427.181 452.896 428.394 453.676 429.047Z" fill="#A8D29F"/>
<path d="M470.858 271.389C470.858 271.389 471.432 265.695 468.454 265.891C465.476 266.085 464.685 267.451 465.019 268.547C465.351 269.64 468.25 273.262 468.25 273.262L470.858 271.389Z" fill="#FFE3CF"/>
<path d="M517.271 282.799C517.271 282.799 513.974 286.673 506.883 291.141C506.213 291.564 505.509 291.993 504.77 292.423C502.016 294.026 498.785 295.67 495.055 297.202C494.645 297.37 494.163 297.556 493.62 297.753C489.369 299.287 481.552 301.461 476.707 301.657C476.287 301.675 475.886 301.675 475.514 301.66C468.14 301.362 467.24 272.752 467.24 272.752C467.24 272.752 468.061 269.89 471.85 270.611C471.85 270.611 477.605 286.77 479.665 288.088C481.496 289.258 492.024 273.308 501.085 272.192C507.184 271.432 517.271 282.799 517.271 282.799Z" fill="#1F5BFF"/>
<path d="M497.46 422.321C497.46 422.321 498.005 428.619 496.672 429.274L479.627 429.238C479.627 429.238 479.627 427.27 482.365 426.834C485.104 426.399 489.913 424.796 490.726 421.227C491.539 417.659 497.46 422.321 497.46 422.321Z" fill="#1C3154"/>
<path d="M484.945 346.091C485.029 350.21 485.228 354.459 485.616 358.277C487.457 376.393 488.104 398.281 488.37 402.502C488.829 409.827 490.277 421.531 490.277 421.531C490.277 421.531 493.148 424.255 498.744 422.955C498.744 422.955 503.382 406.101 504.418 388.352C504.433 388.061 504.451 387.768 504.464 387.475C504.583 385.127 504.708 382.446 504.838 379.553C505.69 360.176 506.618 331.388 506.618 331.388L485.228 326.367C485.228 326.364 484.736 335.825 484.945 346.091Z" fill="#2A4E96"/>
<path d="M484.945 346.091C490.366 355.44 500.698 372.664 504.838 379.548C505.69 360.171 506.618 331.383 506.618 331.383L485.228 326.362C485.228 326.364 484.736 335.825 484.945 346.091Z" fill="#233862"/>
<path d="M493.62 297.75C489.37 299.284 481.552 301.459 476.708 301.655C477.45 301.517 482.845 300.447 484.839 298.041C486.981 295.451 490.589 288.422 493.46 291.292C494.811 292.64 494.413 295.308 493.62 297.75Z" fill="#6385DB"/>
<path d="M529.56 343.046C529.56 343.046 530.889 348.25 530.67 349.407C530.453 350.564 529.155 354.479 528.347 355.453C527.539 356.424 527.505 351.23 526.967 350.412C526.429 349.596 526.72 352.351 526.289 352.578C525.858 352.802 525.139 350.491 524.821 349.67C524.502 348.849 525.968 345.995 526.106 343.948C526.243 341.901 529.56 343.046 529.56 343.046Z" fill="#FFE3CF"/>
<path d="M539.92 415.161C539.92 415.161 542.954 417.929 542.363 419.894C541.771 421.862 539.033 423.172 538.663 425.575C538.293 427.979 536.815 429.289 535.481 429.289C534.15 429.289 529.132 429.289 529.132 429.289C529.132 429.289 528.151 427.597 530.519 427.087C532.888 426.577 533.78 423.753 533.633 421.131C533.485 418.508 533.854 415.014 533.854 415.014L538.885 413.849L539.92 415.161Z" fill="#1C3154"/>
<path d="M488.6 331.821C488.6 331.821 508.623 374.645 519.278 393.434C529.933 412.223 533.263 417.468 533.263 417.468C533.263 417.468 539.367 415.065 539.923 413.426C539.923 413.426 535.849 377.15 528.712 368.309C524.681 363.313 519.943 348.316 519.722 343.074C519.5 337.831 514.821 325.314 514.821 325.314L488.6 331.821Z" fill="#2A4E96"/>
<path d="M484.866 329.594C484.866 329.594 491.386 336.608 502.464 338.726C507.327 339.656 517.197 340.556 519.645 337.094C520.218 336.281 520.223 335.078 520.096 333.2C519.767 328.319 518.538 318.881 524.084 299.917C524.601 298.153 524.948 296.46 525.149 294.847C526.36 285.144 526.228 277.822 517.809 273.91C505.19 268.047 500.012 272.87 500.012 272.87C500.012 272.87 493.301 276.005 490.233 285.139C484.104 303.413 484.866 329.594 484.866 329.594Z" fill="#1F5BFF"/>
<path d="M510.236 272.301C508.112 273.81 504.375 274.7 500.813 272.918C500.537 272.78 500.573 270.897 500.642 269.047C500.711 267.229 500.881 265.448 500.881 265.448L505.372 262.501L509.655 259.693C509.137 269.355 511.195 271.616 510.236 272.301Z" fill="#FFE3CF"/>
<path d="M508.898 263.682C508.898 263.682 505.984 268.053 500.64 269.047C500.708 267.229 500.902 265.231 500.902 265.231L505.369 262.504L508.898 263.682Z" fill="#ED985F"/>
<path d="M496.858 264.314C496.858 264.314 507.72 268.366 510.137 261.676C512.554 254.985 515.584 251.004 508.75 248.134C501.917 245.265 499.64 247.334 498.281 249.371C496.922 251.407 494.094 263.085 496.858 264.314Z" fill="#FFE3CF"/>
<path d="M516.904 248.884C517.029 248.787 517.281 248.738 517.812 248.815C517.812 248.815 517.444 248.471 516.889 248.346C516.922 247.597 516.789 246.233 515.601 245.675C515.601 245.675 516.203 246.167 516.139 246.957C514.984 245.183 512.09 243.486 503.355 242.466C491.84 241.123 494.143 249.116 495.44 250.27C496.738 251.425 500.899 249.783 503.592 250.54C506.284 251.297 506.024 255.35 506.843 256.074C507.664 256.8 507.488 255.768 508.854 255.449C510.221 255.131 509.93 257.233 509.301 258.513C508.671 259.792 510.043 261.918 510.043 261.918C510.043 261.918 510.043 261.918 512.156 260.386C514.27 258.854 517.483 251.231 517.026 249.381C516.983 249.218 516.945 249.052 516.904 248.884Z" fill="#2C3A64"/>
<path d="M520.099 333.203C519.77 328.322 518.541 318.884 524.087 299.919C524.604 298.155 524.951 296.463 525.152 294.85C521.032 293.491 513.526 296.511 513.526 296.511C513.526 296.511 511.759 321.581 520.099 333.203Z" fill="#6385DB"/>
<path d="M520.081 275.179C520.081 275.179 525.15 277.021 528.385 290.44C530.522 299.305 534.456 312.336 534.9 316.432C535.344 320.528 530.402 344.501 530.402 344.501C530.402 344.501 529.706 345.008 527.998 344.667C526.363 344.34 525.604 343.234 525.604 343.234C525.604 343.234 524.423 327.257 524.726 319.712C524.854 316.577 510.211 296.756 502.307 294.202C499.204 293.198 520.081 275.179 520.081 275.179Z" fill="#1F5BFF"/>
<path d="M449.168 257.809C449.168 257.809 463.821 257.394 480.731 260.506L482.498 256.056L484.436 251.18C484.436 251.18 467.46 243.876 457.256 233.701L449.168 257.809Z" fill="#AECEFF"/>
<path d="M457.485 233.464L449.071 258.288C447.84 257.924 447.169 256.604 447.597 255.396L455.002 234.537C455.361 233.528 456.503 233.033 457.485 233.464Z" fill="#FFD21E"/>
<path d="M465.517 276.287C467.153 276.614 468.757 275.543 469.086 273.91L471.983 259.42C472.309 257.784 471.238 256.181 469.604 255.852C467.967 255.526 466.363 256.596 466.034 258.23L463.138 272.719C462.811 274.356 463.882 275.961 465.517 276.287Z" fill="#FFD21E"/>
<path d="M449.168 257.809C449.168 257.809 463.821 257.394 480.731 260.506L482.498 256.056C466.608 252.811 449.168 257.809 449.168 257.809Z" fill="#1F5BFF"/>
<path d="M476.055 259.611L480.634 260.417C480.565 260.419 484.887 261.258 486.305 257.427C486.435 257.165 486.519 256.907 486.577 256.601C487.679 251.828 485.058 250.948 485.058 250.948L479.165 248.652L477.294 255.276C477.294 255.276 477.294 255.276 477.294 255.299L476.055 259.611Z" fill="#FFD21E"/>
<path d="M476.055 259.611L480.634 260.417C480.565 260.419 484.887 261.258 486.305 257.427C483.714 255.544 477.291 255.273 477.291 255.273C477.291 255.273 477.291 255.273 477.291 255.296L476.055 259.611Z" fill="#FFC700"/>
<path d="M465.907 262.257C465.907 262.257 468.148 263.149 467.735 264.135C467.324 265.122 464.476 266.478 464.028 265.7C463.579 264.923 464.499 261.426 465.907 262.257Z" fill="#FFE3CF"/>
<path d="M470.902 270.492C470.902 270.492 471.325 268.2 471.351 267.148C471.376 266.095 471.501 265.236 471.254 265.206C471.006 265.175 470.825 265.369 470.726 265.708C470.624 266.047 470.236 268.144 470.236 268.144L470.433 270.171L470.902 270.492Z" fill="#FFE3CF"/>
<path d="M249.351 268.998L236.661 419.831C236.661 419.831 235.333 428.973 242.136 428.991C253.321 429.016 297.817 428.991 297.817 428.991C297.817 428.991 289.398 427.087 289.5 422.805C289.619 417.759 304.331 267.571 304.331 267.571L249.351 268.998Z" fill="#7599EA"/>
<path d="M302.003 426.315C299.802 426.322 256.727 426.394 245.832 426.253C241.085 426.195 240.251 422.033 240.213 419.341C240.192 418.052 240.358 417.096 240.358 417.096L240.687 413.176L241.528 403.185L242.27 394.356L243.226 383.012L244.03 373.437L253.048 266.258L308.028 264.831C308.028 264.831 301.832 327.685 297.449 373.434C296.959 378.531 296.495 383.42 296.064 387.982C295.924 389.44 295.792 390.862 295.659 392.249C295.254 396.576 294.881 400.552 294.558 404.062C294.387 405.912 294.229 407.63 294.088 409.205C293.53 415.376 293.201 419.316 293.196 420.065C293.193 420.501 293.232 420.909 293.303 421.286C294.206 426.095 301.177 426.315 302.003 426.315Z" fill="#90AFF4"/>
<path d="M115.832 186.92L146.742 311.037L150.975 328.036L165.373 385.846H432.852L379.785 186.92H115.832Z" fill="#AECEFF"/>
<path d="M115.832 186.92L111.546 188.347L159.677 390.164L165.373 385.846L115.832 186.92Z" fill="#90AFF4"/>
<path d="M159.678 390.164H425.51L432.851 385.846H165.374L159.678 390.164Z" fill="#7599EA"/>
<path d="M253.028 429.047H310.586V426.313H253.028V429.047Z" fill="#AECEFF"/>
<path d="M295.955 390.161L295.659 392.254L241.528 403.183L242.27 394.356L242.625 390.161H295.955Z" fill="#5888DD"/>
<path opacity="0.4" d="M302.003 426.315C299.803 426.322 256.727 426.394 245.833 426.253C241.085 426.195 240.251 422.033 240.213 419.341L294.086 409.21C293.528 415.381 293.199 419.321 293.194 420.07C293.191 420.506 293.229 420.914 293.301 421.291C294.206 426.095 301.177 426.315 302.003 426.315Z" fill="#5888DD"/>
<path d="M115.832 186.92H379.785L422.613 346.792H155.649L115.832 186.92Z" fill="#AECEFF"/>
<path d="M410.162 339.865H163.02L154.19 304.698L150.773 291.09L149.379 285.542L140.302 249.401L139.833 247.518L135.034 228.415L132.887 219.867L131.056 212.575L126.763 195.483H370.343L375.058 212.575L377.067 219.867L379.425 228.415L394.956 284.726V284.729L396.272 289.5L396.883 291.715L407.605 330.593L410.162 339.865Z" fill="#1F5BFF"/>
<path d="M375.057 212.577H131.056L126.765 195.483H370.343L375.057 212.577Z" fill="#607CF4"/>
<path d="M136.842 203.208C136.549 202.028 137.265 201.073 138.446 201.073C139.626 201.073 140.822 202.028 141.115 203.208C141.409 204.388 140.692 205.344 139.512 205.344C138.331 205.344 137.135 204.388 136.842 203.208Z" fill="#E9F3FE"/>
<path d="M143.946 203.208C143.652 202.028 144.369 201.073 145.549 201.073C146.73 201.073 147.926 202.028 148.219 203.208C148.512 204.388 147.796 205.344 146.615 205.344C145.435 205.344 144.239 204.388 143.946 203.208Z" fill="#E9F3FE"/>
<path d="M151.592 203.208C151.299 202.028 152.015 201.073 153.196 201.073C154.376 201.073 155.572 202.028 155.865 203.208C156.159 204.388 155.442 205.344 154.262 205.344C153.084 205.344 151.888 204.388 151.592 203.208Z" fill="#E9F3FE"/>
<path d="M321.89 96.1067C331.88 84.3826 347.283 60.8326 357.653 48.7746C359.787 46.2922 358.012 42.4615 354.738 42.4615H335.868L353.667 2.22758C354.427 0.509753 352.086 -0.858903 350.959 0.644835L307.92 58.2252C306.666 59.9048 308.037 62.27 310.121 62.0126L331.485 59.3823L318.774 94.2843C318.076 96.2086 320.564 97.6639 321.89 96.1067Z" fill="#EB5757"/>
<path d="M233.043 167.514C235.29 155.991 236.71 134.592 239.084 122.705C239.573 120.258 236.96 118.377 234.785 119.601L222.25 126.655L219.017 93.2776C218.879 91.8529 216.812 91.8197 216.628 93.2394L209.588 147.575C209.384 149.161 211.179 150.218 212.467 149.268L225.672 139.534L230.289 167.468C230.547 169.007 232.745 169.043 233.043 167.514Z" fill="#AECEFF"/>
<path d="M420.958 343.268L206.212 361.353C189.907 362.727 178.107 346.109 184.782 331.176L275.761 127.644C282.663 112.204 303.88 110.418 313.268 124.487L437.034 309.933C446.116 323.538 437.264 341.894 420.958 343.268Z" fill="#E6EFFF"/>
<path d="M421.643 351.388L206.898 369.473C196.337 370.363 186.367 365.737 180.233 357.097C174.098 348.457 173.017 337.525 177.341 327.853L268.321 124.321C272.79 114.32 281.979 107.8 292.9 106.88C303.82 105.96 313.971 110.851 320.052 119.965L443.818 305.412C449.701 314.225 450.466 325.184 445.863 334.727C441.256 344.269 432.204 350.498 421.643 351.388ZM294.267 123.118C289.351 123.531 285.215 126.467 283.203 130.968L192.224 334.5C190.279 338.853 190.766 343.775 193.527 347.661C196.288 351.551 200.776 353.633 205.528 353.233L420.274 335.147C425.027 334.747 429.104 331.944 431.174 327.649C433.245 323.354 432.903 318.42 430.254 314.454L306.488 129.008C303.752 124.905 299.183 122.702 294.267 123.118Z" fill="#EB5757"/>
<path d="M289.236 312.13C289.004 309.365 289.279 306.765 290.072 304.333C290.862 301.904 292.086 299.753 293.746 297.883C295.406 296.014 297.461 294.488 299.917 293.31C302.369 292.135 305.187 291.409 308.366 291.141C311.543 290.874 314.465 291.116 317.122 291.86C319.781 292.607 322.086 293.766 324.034 295.331C325.985 296.899 327.551 298.815 328.736 301.076C329.922 303.342 330.631 305.855 330.865 308.623C331.097 311.388 330.817 313.968 330.024 316.356C329.231 318.746 328.004 320.875 326.344 322.745C324.685 324.616 322.607 326.143 320.11 327.323C317.614 328.503 314.776 329.229 311.597 329.497C308.417 329.764 305.518 329.522 302.905 328.773C300.289 328.024 298.007 326.864 296.056 325.297C294.108 323.732 292.54 321.838 291.36 319.613C290.177 317.39 289.468 314.895 289.236 312.13ZM322.436 273.295L291.502 275.9L278.216 170.621L317.913 167.277L322.436 273.295Z" fill="#EB5757"/>
<path d="M155.886 279.751C155.886 279.751 156.559 278.237 156.995 277.521C157.431 276.805 159.295 274.705 159.611 275.179C159.927 275.655 161.197 278.854 160.524 279.751C159.851 280.648 160.567 282.206 157.217 283.151L155.886 279.751Z" fill="#FFE3CF"/>
<path d="M118.642 270.193C118.642 270.193 135.799 284.51 142.487 283.184C147.719 282.147 155.987 279.527 155.987 279.527C155.987 279.527 158.17 281.601 157.553 284.089C157.553 284.089 147.018 293.998 139.511 294.062C127.777 294.162 122.244 288.251 122.244 288.251L118.642 270.193Z" fill="#FFC700"/>
<path d="M88.5518 421.189C88.5518 421.189 89.049 429.22 90.6043 429.335C90.8108 429.35 98.488 429.35 98.488 429.35L108.289 429.294C108.289 429.294 108.225 426.934 105.36 426.434C102.496 425.935 97.7002 423.924 95.9638 420.139C94.1408 416.158 88.5518 421.189 88.5518 421.189Z" fill="#113C68"/>
<path d="M87.9884 421.747C87.9884 421.747 90.9665 422.744 93.2944 422.744C95.89 422.744 98.246 422.038 98.246 422.038C98.246 422.038 98.8069 416.617 101.892 404.671C103.511 398.409 105.821 390.357 109.108 380.354C118.198 352.705 120.961 336.531 121.214 334.999C121.227 334.918 121.232 334.88 121.232 334.88L121.201 334.867L93.2536 322.603C93.2536 322.603 96.7085 360.708 92.3 375.335C91.683 377.379 91.1552 379.762 90.7013 382.342C87.9247 398.225 87.9884 421.747 87.9884 421.747Z" fill="#2A4E96"/>
<path d="M101.893 404.668C103.512 398.406 105.822 390.355 109.108 380.351C118.198 352.703 120.962 336.529 121.214 334.997C121.212 334.951 121.209 334.908 121.204 334.862L93.2566 322.597C93.2566 322.597 96.7115 360.703 92.303 375.33C91.6886 377.374 101.893 404.668 101.893 404.668Z" fill="#233862"/>
<path d="M110.38 421.189C110.38 421.189 110.877 429.22 112.432 429.335C112.639 429.35 120.316 429.35 120.316 429.35L130.117 429.294C130.117 429.294 130.054 426.934 127.188 426.434C124.324 425.935 119.528 423.924 117.792 420.139C115.966 416.158 110.38 421.189 110.38 421.189Z" fill="#15447C"/>
<path d="M126.224 323.497C126.224 323.497 126.586 348.189 122.313 378.508C118.039 408.828 119.488 421.696 119.488 421.696C119.488 421.696 116.55 422.647 115.367 422.744C112.348 422.988 109.253 422.035 109.253 422.035C109.253 422.035 103.136 391.706 104.891 376.531C106.645 361.356 96.5146 324.458 96.5146 324.458L126.224 323.497Z" fill="#2A4E96"/>
<path d="M106.407 265.713L111.861 269.289L116.831 267.884C117.738 266.59 117.98 264.092 117.993 261.931C118.006 259.785 117.797 257.965 117.797 257.965L110.436 254.718L107.69 253.507C107.697 253.55 107.904 255.76 107.932 256.084C108.45 261.816 106.407 265.713 106.407 265.713Z" fill="#FFE3CF"/>
<path d="M126.349 330.361C119.559 336.913 93.8633 335.812 92.2774 328.592C90.6966 321.371 94.0036 267.13 105.602 263.722C108.009 263.016 120.878 267.173 120.878 267.173C120.878 267.173 122.897 272.454 124.22 279.175C124.478 280.483 125.228 294.345 125.788 307.313C126.051 313.379 126.273 319.248 126.385 323.548C126.492 327.572 126.497 330.218 126.349 330.361Z" fill="#FFD21E"/>
<path d="M108.488 256.186C109.982 258.709 115.219 260.919 117.996 261.931C118.009 259.785 117.8 257.965 117.8 257.965L110.439 254.718C108.812 254.695 107.823 255.059 108.488 256.186Z" fill="#FCA56B"/>
<path d="M120.576 257.516C120.576 257.516 108.717 261.214 106.527 253.798C104.337 246.381 101.33 241.862 108.809 239.188C116.287 236.515 118.602 238.908 119.936 241.207C121.269 243.501 123.605 256.362 120.576 257.516Z" fill="#FFE3CF"/>
<path d="M119.47 240.488C119.47 240.488 118.712 249.121 116.927 248.746C115.143 248.371 113.177 247.569 113.437 250.171C113.7 252.773 111.701 257.233 109.125 257.223C103.603 257.2 97.6031 243.034 99.1151 240.348C103.478 232.598 125.775 231.033 119.47 240.488Z" fill="#163560"/>
<path d="M117.726 263.908C117.573 263.845 108.899 259.955 107.884 260.289C106.869 260.623 105.604 263.722 105.604 263.722L120.88 267.173C120.88 267.173 119.676 264.732 117.726 263.908Z" fill="#FFC700"/>
<path d="M171.734 305.919L123.106 351.686C122.152 352.583 120.951 352.868 120.433 352.32L118.791 350.577C118.276 350.029 118.633 348.847 119.587 347.949L168.215 302.182C169.169 301.285 170.37 301 170.888 301.548L172.53 303.291C173.045 303.839 172.688 305.022 171.734 305.919Z" fill="#1F4D84"/>
<path d="M144.444 331.602L123.106 351.686C122.152 352.583 120.951 352.868 120.433 352.32L118.791 350.577C118.276 350.029 118.633 348.847 119.587 347.949L140.926 327.866L144.444 331.602Z" fill="#1F5BFF"/>
<path d="M160.556 288.638C162.422 294.788 165.88 300.549 170.9 305.269C186.231 319.687 210.354 318.95 224.778 303.627C239.011 288.503 238.483 264.826 223.73 250.349C223.534 250.156 223.335 249.962 223.131 249.773C207.802 235.355 183.682 236.087 169.258 251.412C159.556 261.722 156.711 276.004 160.556 288.638ZM171.451 253.474C179.844 244.556 191.805 241.001 203.037 242.945C209.582 244.077 215.875 247.074 221.073 251.963C235.194 265.241 235.87 287.448 222.585 301.565C217.695 306.762 211.596 310.134 205.135 311.666C194.041 314.291 181.884 311.472 172.963 303.082C158.842 289.801 158.162 267.594 171.451 253.474Z" fill="#1F4D84"/>
<g opacity="0.5">
<path opacity="0.5" d="M222.586 301.566C217.696 306.762 211.594 310.134 205.136 311.666C194.042 314.289 181.887 311.472 172.963 303.079C158.843 289.801 158.165 267.591 171.451 253.474C179.845 244.556 191.806 241.001 203.037 242.945C209.582 244.077 215.878 247.074 221.074 251.963C235.194 265.241 235.873 287.451 222.586 301.566Z" fill="#B3CFF9"/>
</g>
<path d="M126.387 323.548C99.5923 304.463 101.821 278.994 101.821 278.994C111.614 284.515 121.331 296.723 125.791 307.313C126.053 313.376 126.275 319.248 126.387 323.548Z" fill="#FFC700"/>
<path d="M152.833 314.855C154.722 314.419 155.992 312.991 156.255 312.742C156.255 312.742 157.06 312.798 156.122 314.516C156.043 314.658 155.87 315.028 155.737 315.29C155.683 315.397 155.757 315.522 155.877 315.53C156.968 315.614 158.065 315.181 160.163 315.619C160.454 315.68 160.538 316.374 160.525 316.669C160.507 317.169 160.543 317.732 159.962 318.499C159.623 318.945 158.679 319.424 156.576 320.271C155.775 320.592 153.483 320.35 151.336 319.613L149.62 318.818L150.153 315.632L150.584 315.721C151.272 315.866 152.119 315.03 152.833 314.855Z" fill="#FFE3CF"/>
<path d="M110.138 267.173C110.138 267.173 86.063 271.756 117.221 306.607C122.203 312.181 149.128 319.437 149.128 319.437C149.128 319.437 151.859 317.115 150.482 315.234C150.482 315.234 131.943 301.777 127.866 299.639C126.03 298.675 120.744 278.161 117.754 273.221C114.76 268.282 110.138 267.173 110.138 267.173Z" fill="#FFD21E"/>
<path d="M156.538 280.174C156.538 280.174 157.326 278.67 157.479 277.875C157.632 277.083 158.624 274.768 159.032 274.361C159.195 274.197 159.735 274.409 159.799 275.11C159.827 275.416 159.677 275.971 159.412 276.632C158.981 277.71 159.052 279.17 158.902 279.657C158.532 280.87 156.538 280.174 156.538 280.174Z" fill="#FFE3CF"/>
<path d="M166.12 220.463C165.709 220.932 165.658 221.455 165.86 222.015C165.86 222.018 165.862 222.02 165.865 222.023C166.24 223.058 167.476 224.215 168.914 225.369C169.098 225.517 169.261 225.652 169.404 225.777C169.442 225.81 169.478 225.843 169.513 225.877C169.541 225.902 169.569 225.928 169.598 225.953C170.939 227.189 170.434 227.472 172.841 229.98C175.587 232.837 177.476 232.891 178.014 232.628C178.471 232.406 177.545 230.892 176.52 229.187C176.472 229.106 176.421 229.022 176.372 228.94C176.234 228.713 176.099 228.484 175.964 228.257C174.763 226.208 175.072 225.247 175.357 222.196C175.589 219.719 179.22 208.352 179.22 208.352L173.958 207.444C173.958 207.444 172.369 216.495 170.623 217.889C169.689 218.631 168.644 218.641 167.746 219.191C167.683 219.23 167.621 219.268 167.56 219.309C167.05 219.645 166.53 219.994 166.12 220.463Z" fill="#FFE3CF"/>
<path d="M166.12 220.463C165.709 220.932 165.658 221.455 165.86 222.015C165.86 222.018 165.862 222.02 165.865 222.023C166.324 223.058 167.53 224.207 168.919 225.359C169.1 225.51 169.261 225.647 169.404 225.777C169.442 225.81 169.478 225.844 169.513 225.877C169.541 225.902 169.569 225.928 169.598 225.953C170.939 227.189 170.434 227.472 172.841 229.98C175.587 232.837 177.476 232.891 178.014 232.628C178.471 232.406 177.545 230.893 176.52 229.187C175.985 228.991 173.501 227.982 171.625 225.578C170.031 223.545 168.95 220.955 167.866 219.362C167.746 219.339 167.675 219.327 167.558 219.304C167.05 219.645 166.53 219.994 166.12 220.463Z" fill="#233862"/>
<path d="M208.563 217.191C208.886 218.814 211.204 218.544 213.789 217.914C216.377 217.282 215.763 218.034 219.445 217.629C223.127 217.224 224.243 215.85 224.356 215.305C224.455 214.818 222.637 214.647 220.686 214.423C220.442 214.395 220.194 214.364 219.947 214.334C217.744 214.056 216.13 212.634 214.129 211.466C212.234 210.36 209.406 205.854 209.406 205.854L204.355 206.252C204.355 206.252 207.005 210.276 208.03 212.024C208.631 213.054 208.601 214.415 208.524 215.465C208.483 216.036 208.445 216.62 208.563 217.191Z" fill="#FFE3CF"/>
<path d="M213.79 217.914C216.378 217.282 215.764 218.034 219.445 217.629C223.127 217.224 224.244 215.85 224.356 215.305C224.456 214.818 222.638 214.647 220.687 214.423L220.669 214.461C220.669 214.461 218.461 216.026 215.396 216.097C212.898 216.158 210.254 215.44 208.528 215.468C208.489 216.039 208.451 216.622 208.566 217.196C208.887 218.817 211.202 218.547 213.79 217.914Z" fill="#233862"/>
<path d="M189.221 184.909L184.496 197.604L178.328 214.181C178.328 214.181 176.656 214.341 175.054 213.88C173.581 213.454 171.888 212.338 171.888 212.338C171.888 212.338 173.606 194.535 176.801 184.317C177.619 181.695 178.537 179.574 179.55 178.379C184.499 172.537 189.221 184.909 189.221 184.909Z" fill="#233862"/>
<path d="M184.427 164.741C181.74 163.874 174.728 164.723 167.122 166.097C165.021 166.476 162.902 165.516 161.796 163.691L142.657 162.19C142.657 162.19 136.337 176.187 139.792 185.11C140.299 186.423 141.413 187.241 143.137 187.269C143.137 187.269 154.702 187.289 158.402 187.289C167.92 187.292 178.547 180.757 179.922 180.482C182.171 180.033 183.071 184.531 185.319 189.254C187.568 193.977 206.462 210.177 206.462 210.177C206.462 210.177 209.366 210.207 210.567 209.756C211.857 209.272 212.329 208.645 212.329 208.645C212.329 208.645 191.401 166.991 184.427 164.741Z" fill="#2A4E96"/>
<path d="M159.785 107.51C158.364 106.663 156.977 106.533 156.128 106.556C155.537 106.574 154.948 106.533 154.364 106.449C147.059 105.376 142.658 115.981 142.398 119.185C141.924 125.068 138.808 125.965 134.425 129.648C125.634 137.034 128.209 145.618 133.012 148.811C135.896 150.725 140.978 148.814 140.978 148.814C141.049 148.865 154.879 141.094 161.694 137.345C171.914 135.895 163.89 109.954 159.785 107.51Z" fill="#233862"/>
<path d="M155.982 134.149C156.013 134.169 152.63 135.321 150.368 134.319C148.239 133.379 146.63 129.877 146.661 129.877C147.629 129.834 148.693 128.988 149.511 123.436L149.924 123.584L156.854 126.079C156.854 126.079 156.352 128.302 156.026 130.42C155.753 132.194 155.605 133.896 155.982 134.149Z" fill="#FFE3CF"/>
<path d="M156.854 126.077C156.854 126.077 156.576 127.277 156.173 129.518C152.193 128.799 150.485 125.733 149.924 123.582L156.854 126.077Z" fill="#ED975D"/>
<path d="M157.887 128.284C157.887 128.284 148.405 127.007 149.29 121.117C150.174 115.227 149.547 111.093 155.641 111.659C161.732 112.225 162.569 114.649 162.752 116.687C162.933 118.726 160.376 128.465 157.887 128.284Z" fill="#FFE3CF"/>
<path d="M162.406 113.458C162.406 113.458 156.332 118.686 152.204 119.106C148.074 119.527 146.511 118.201 146.511 118.201C146.511 118.201 148.946 116.183 150.412 112.923C150.843 111.962 151.756 111.302 152.806 111.213C155.756 110.958 161.345 110.843 162.406 113.458Z" fill="#233862"/>
<path d="M158.61 112.989C158.61 112.989 160.64 114.952 161.28 116.41C161.897 117.814 162.081 121.176 161.588 122.509C161.588 122.509 164.755 116.359 162.965 113.369C161.066 110.201 158.61 112.989 158.61 112.989Z" fill="#233862"/>
<path d="M163.963 148.116C163.67 167.305 163.879 163.296 161.778 165.115C161.271 165.554 159.85 165.814 157.976 165.939C152.089 166.326 141.742 165.355 141.35 164.267C139.993 160.502 140.952 159.335 139.822 153.575C139.705 152.963 139.56 152.298 139.386 151.577C138.443 147.621 137.525 146.273 140.878 139.919C143.92 134.161 147.076 129.49 147.362 129.658C155.378 134.419 156.026 130.42 156.026 130.42C156.026 130.42 164.108 138.757 163.963 148.116Z" fill="#FFD21E"/>
<path d="M184.496 197.604L178.328 214.181C178.328 214.181 176.656 214.341 175.054 213.88C173.581 213.454 171.888 212.338 171.888 212.338C171.888 212.338 173.606 194.535 176.801 184.317L184.496 197.604Z" fill="#2A4E96"/>
<path d="M156.025 130.417C156.025 130.417 164.274 131.819 165.243 135.369C166.209 138.92 169.391 160.472 169.391 160.472C169.391 160.472 167.063 162.743 165.128 160.806C163.19 158.869 159.037 140.64 159.037 140.64L156.025 130.417Z" fill="#FFD21E"/>
<path d="M157.978 165.939C152.091 166.326 141.744 165.355 141.352 164.267C139.995 160.502 140.954 159.335 139.824 153.575L142.667 145.585C142.667 145.585 142.195 154.485 144.819 156.824C147.44 159.167 155.566 161.346 156.844 163.303C157.456 164.241 157.861 165.182 157.978 165.939Z" fill="#FFC700"/>
<path d="M151.234 162.192C151.234 162.192 157.043 160.902 157.978 161.417C158.914 161.932 161.204 163.811 161.492 164.463C161.777 165.115 159.406 163.966 158.634 163.76C158.134 163.624 156.818 164.081 156.166 164.3C153.425 165.212 151.744 164.741 151.744 164.741L151.234 162.192Z" fill="#FFE3CF"/>
<path d="M147.356 129.653C147.356 129.653 139.559 130.129 136.857 133.894C133.055 139.19 125.508 161.766 129.827 164.779C134.692 168.171 151.969 165.674 151.969 165.674C151.969 165.674 152.545 162.987 151.745 161.687C150.944 160.388 137.945 158.285 137.346 157.683C136.747 157.084 144.85 145.99 144.85 144.191C144.855 142.391 147.356 129.653 147.356 129.653Z" fill="#FFD21E"/>
<path d="M158.262 163.033C158.262 163.033 159.478 164.603 159.876 164.789C160.273 164.978 160.534 164.929 160.534 164.929L159.715 163.454L158.262 163.033Z" fill="#FFE3CF"/>
<path d="M157.981 161.417L161.518 163.135C161.518 163.135 161.367 163.382 160.931 163.362C160.495 163.342 159.397 162.939 159.397 162.939L157.981 161.417Z" fill="#FFE3CF"/>
<path d="M188.19 165.465L151.234 165.452V166.267L187.861 166.28L188.19 165.465Z" fill="#233862"/>
<path d="M159.876 166.27L187.862 166.28L196.286 145.358L168.344 145.348L159.876 166.27Z" fill="#233862"/>
<path d="M180.801 155.815C181.013 155.079 180.587 154.482 179.85 154.482C179.113 154.482 178.346 155.079 178.134 155.813C177.923 156.549 178.349 157.146 179.085 157.146C179.82 157.146 180.59 156.549 180.801 155.815Z" fill="white"/>
<path d="M370.198 245.183C366.427 243.932 363.819 245.512 363.819 245.512C352.965 245.958 352.562 257.08 353.834 261.22C355.624 267.033 349.291 271.616 356.315 273.968C364.464 276.698 371.302 273.458 370.836 274.865C396.603 276.894 378.773 248.03 370.198 245.183Z" fill="#163560"/>
<path d="M358.938 299.277C358.938 299.277 357.908 301.318 356.036 303.663C353.782 306.487 341.947 299.787 342.966 299.277C343.986 298.767 349.932 281.64 351.35 279.489C352.768 277.338 357.592 276.219 357.592 276.219L358.938 299.277Z" fill="#FFD21E"/>
<path d="M398.878 414.787C398.878 414.787 402.144 417.766 401.506 419.884C400.869 422.002 397.921 423.414 397.524 426.001C397.126 428.588 395.532 430 394.097 430C392.661 430 387.259 430 387.259 430C387.259 430 386.203 428.178 388.753 427.63C391.302 427.082 392.264 424.041 392.103 421.217C391.942 418.393 392.343 414.631 392.343 414.631L397.761 413.377L398.878 414.787Z" fill="#1F447F"/>
<path d="M371.231 416.051C371.231 416.051 372.406 428.675 370.973 429.381L352.62 429.343C352.62 429.343 352.62 427.225 355.568 426.756C358.515 426.284 363.694 424.559 364.571 420.718C365.448 416.877 371.231 416.051 371.231 416.051Z" fill="#1C3154"/>
<path d="M385.349 290.762C385.349 290.762 385.621 294.615 385.349 299.241C385.168 302.307 382.065 306.413 381.623 307.43C380.519 309.979 379.273 310.392 379.273 310.392L369.637 312.752L366.249 313.58L355.563 310.389C355.563 310.389 350.695 296.812 352.651 289.169C354.604 281.525 357.59 276.216 357.59 276.216C357.59 276.216 364.851 274.585 377.661 275.492L385.349 290.762Z" fill="#FFD21E"/>
<path d="M386.267 299.348C386.086 302.414 382.065 306.413 381.624 307.43C380.52 309.979 379.273 310.392 379.273 310.392L369.637 312.752L367.898 307.767C367.898 307.767 381.978 304.068 379.714 291.042L386.267 299.348Z" fill="#FFC700"/>
<path d="M356.243 312.454C356.243 312.454 350.952 328.916 350.611 334.523C350.271 340.128 360.725 414.15 361.146 416.731C361.541 419.165 364.568 420.718 364.568 420.718C364.568 420.718 365.96 421.538 367.944 420.978C370.697 420.2 371.569 419.27 371.569 419.27C371.569 419.27 375.687 366.479 373.14 347.621C370.59 328.763 370.562 312.454 370.562 312.454H356.243Z" fill="#233862"/>
<path d="M378.663 311.962C378.663 311.962 386.736 322.786 387.488 330.106C388.24 337.423 388.668 363.127 390.272 370.261C391.876 377.395 397.766 391.125 397.766 413.375C397.766 413.375 397.154 414.649 395.264 415.33C394.66 415.546 393.849 415.758 393.064 415.939C391.506 416.296 389.905 415.534 389.193 414.104C385.211 406.091 372.528 380.242 371.876 374.877C371.417 371.079 367.411 345.949 358.673 331.205C356.575 327.664 359.961 313.585 359.961 313.585L378.663 311.962Z" fill="#2A4E96"/>
<path d="M355.399 309.913C355.399 309.913 357.523 311.592 361.743 311.676C366.784 311.778 379.272 310.392 379.272 310.392C379.272 310.392 379.828 311.941 379.805 313.578C379.805 313.578 364.55 317.424 355.713 314.138C355.713 314.141 354.573 311.997 355.399 309.913Z" fill="#233862"/>
<path d="M360.535 316.019C359.268 316.019 358.235 314.852 358.235 313.417C358.235 311.982 359.268 310.815 360.535 310.815C361.802 310.815 362.835 311.982 362.835 313.417C362.835 314.852 361.802 316.019 360.535 316.019ZM360.535 311.577C359.686 311.577 358.998 312.403 358.998 313.417C358.998 314.431 359.689 315.257 360.535 315.257C361.382 315.257 362.073 314.431 362.073 313.417C362.073 312.403 361.382 311.577 360.535 311.577Z" fill="white"/>
<path d="M371.554 320.752L348.627 320.966L337.345 294.462L360.272 294.248L371.554 320.752Z" fill="#B5453C"/>
<path d="M368.556 308.776L366.876 306.711C366.876 306.711 365.738 305.697 364.912 305.526C364.086 305.353 362.345 304.349 362.176 304.632C362.008 304.914 363.515 306.933 363.515 306.933L363.592 306.943C361.86 308.246 357.49 307.096 356.952 307.626C356.299 308.269 357.852 309.66 358.686 310.443C359.52 311.225 361.904 312.525 363.762 311.949C365.121 311.526 367.258 311.095 367.258 311.095L368.556 308.776Z" fill="#FFE3CF"/>
<path d="M339.068 299.127C339.068 299.127 340.509 297.49 341.427 298.275C342.345 299.06 341.187 302.924 340.313 302.532C339.438 302.139 338.569 299.606 339.068 299.127Z" fill="#FFE3CF"/>
<path d="M377.664 275.497C377.664 275.497 384.227 276.221 388.936 284.775C392.651 291.521 399 303.956 396.603 307.468C395.55 309.01 385.468 314.498 366.021 311.363C366.021 311.363 366.327 308.908 367.896 307.769C367.896 307.769 384.262 302.516 384.234 301.471C384.181 299.496 382.024 297.788 372.88 288.646C370.397 286.161 377.664 275.497 377.664 275.497Z" fill="#FFD21E"/>
<path d="M372.613 275.844C372.837 275.541 372.549 274.577 372.187 272.783C371.86 271.157 371.307 268.641 371.317 265.812L370.833 265.894L362.699 267.263C362.699 267.263 362.885 269.437 362.89 271.486C362.89 271.504 362.89 271.519 362.89 271.537C362.901 273.316 362.411 276.005 363.01 276.354C366.093 278.158 371.743 277.006 372.613 275.844Z" fill="#FFE3CF"/>
<path d="M362.699 267.26C362.699 267.26 362.86 270.326 362.868 272.373C367.419 272.263 369.849 267.846 370.835 265.891L362.699 267.26Z" fill="#E8945B"/>
<path d="M362.21 270.917C362.21 270.917 372.873 269.398 371.825 262.774C370.777 256.15 371.448 251.494 364.594 252.184C357.74 252.873 356.822 255.61 356.634 257.906C356.445 260.2 359.408 271.142 362.21 270.917Z" fill="#FFE3CF"/>
<path d="M359.724 252.793C359.724 252.793 363.875 260.098 368.525 260.536C373.178 260.972 374.925 259.469 374.925 259.469C374.925 259.469 371.062 257.292 369.594 252.653C369.596 252.653 361.333 248.746 359.724 252.793Z" fill="#163560"/>
<path d="M360.547 253.308C360.547 253.308 358.518 254.46 357.878 256.176C357.253 257.853 356.838 260.011 357.409 262.484C357.409 262.484 354.372 257.552 356.363 254.172C358.472 250.589 360.547 253.308 360.547 253.308Z" fill="#163560"/>
</g>
<defs>
<clipPath id="clip0">
<rect width="599" height="430" fill="white"/>
</clipPath>
</defs>
</svg>
